<svg width="342" height="342" viewBox="0 0 342 342" fill="none" xmlns="http://www.w3.org/2000/svg">
<path d="M174.796 330.126C93.3015 330.126 27.237 292.109 27.237 245.214C27.237 198.319 93.3015 160.302 174.796 160.302C256.291 160.302 322.356 198.319 322.356 245.214C322.356 292.109 256.291 330.126 174.796 330.126Z" fill="#F5F5F5"/>
<path d="M220.891 287.978C197.689 287.978 178.88 277.118 178.88 263.723C178.88 250.328 197.689 239.468 220.891 239.468C244.093 239.468 262.902 250.328 262.902 263.723C262.902 277.118 244.093 287.978 220.891 287.978Z" fill="#E0E0E0"/>
<path d="M163.572 317.376L74.1388 265.755C73.973 265.696 73.8294 265.588 73.7278 265.445C73.6261 265.301 73.5716 265.13 73.5716 264.954C73.5716 264.779 73.6261 264.607 73.7278 264.464C73.8294 264.321 73.973 264.212 74.1388 264.154L121.335 236.924C121.764 236.705 122.238 236.591 122.72 236.591C123.201 236.591 123.676 236.705 124.105 236.924L213.517 288.559C213.687 288.614 213.834 288.721 213.938 288.865C214.043 289.009 214.099 289.182 214.099 289.359C214.099 289.537 214.043 289.71 213.938 289.854C213.834 289.998 213.687 290.105 213.517 290.16L166.321 317.397C165.892 317.605 165.421 317.712 164.944 317.708C164.467 317.704 163.998 317.591 163.572 317.376Z" fill="#E0E0E0"/>
<path d="M104.255 249.332C105.069 243.75 102.73 231.602 97.9966 223.511C93.2633 215.419 86.9978 208.914 80.2126 210.18C73.8924 211.356 73.8172 219.667 80.3562 225.973C86.8953 232.28 98.4549 243.757 100.343 253.251L101.437 261.637L104.255 249.332Z" fill="#750550"/>
<path opacity="0.15" d="M104.255 249.332C105.069 243.75 102.73 231.602 97.9966 223.511C93.2633 215.419 86.9978 208.914 80.2126 210.18C73.8924 211.356 73.8172 219.667 80.3562 225.973C86.8953 232.28 98.4549 243.757 100.343 253.251L101.437 261.637L104.255 249.332Z" fill="black"/>
<path d="M103.551 257.027C103.463 257.006 103.384 256.958 103.326 256.889C103.268 256.82 103.234 256.734 103.229 256.644C102.279 237.054 89.1388 219.318 80.4247 214.55C80.3768 214.525 80.3345 214.49 80.3003 214.447C80.2661 214.405 80.2406 214.356 80.2253 214.304C80.21 214.252 80.2053 214.197 80.2113 214.143C80.2174 214.089 80.2341 214.037 80.2605 213.989C80.2849 213.941 80.3189 213.898 80.3604 213.864C80.402 213.829 80.4502 213.803 80.5021 213.788C80.554 213.772 80.6085 213.768 80.6622 213.774C80.716 213.781 80.7678 213.798 80.8146 213.825C89.7066 218.682 103.092 236.712 104.071 256.603C104.073 256.657 104.065 256.71 104.047 256.761C104.029 256.812 104.001 256.859 103.965 256.899C103.929 256.939 103.885 256.972 103.836 256.995C103.787 257.018 103.735 257.031 103.681 257.034L103.551 257.027Z" fill="white"/>
<path d="M103.681 273.497C103.243 270.228 100.172 264.489 94.5971 259.311C88.4411 253.579 80.0827 250.132 78.6258 246.158C76.8679 241.37 81.2044 237.758 88.1197 239.66C95.0349 241.561 105.999 252.977 105.863 267.704L103.681 273.497Z" fill="#750550"/>
<path opacity="0.3" d="M103.681 273.497C103.243 270.228 100.172 264.489 94.5971 259.311C88.4411 253.579 80.0827 250.132 78.6258 246.158C76.8679 241.37 81.2044 237.758 88.1197 239.66C95.0349 241.561 105.999 252.977 105.863 267.704L103.681 273.497Z" fill="black"/>
<path d="M105.521 270.406C105.445 270.386 105.376 270.345 105.321 270.289C105.267 270.232 105.229 270.161 105.213 270.084C101.759 252.909 90.1649 245.364 84.4945 243.771C84.4424 243.756 84.3938 243.731 84.3513 243.697C84.3089 243.664 84.2734 243.622 84.2471 243.575C84.2207 243.527 84.2039 243.475 84.1977 243.422C84.1914 243.368 84.1958 243.313 84.2107 243.261C84.2255 243.209 84.2504 243.16 84.2841 243.118C84.3177 243.075 84.3594 243.04 84.4067 243.014C84.454 242.987 84.506 242.971 84.5598 242.964C84.6136 242.958 84.6681 242.962 84.7202 242.977C90.972 244.742 102.504 252.396 106.02 269.92C106.04 270.027 106.018 270.138 105.958 270.228C105.898 270.319 105.805 270.383 105.699 270.406C105.64 270.416 105.58 270.416 105.521 270.406Z" fill="white"/>
<path d="M241.862 241.856C241.862 241.856 240.768 227.847 245.529 215.864C250.289 203.88 258.367 195.453 266.972 193.066C275.577 190.679 284.195 197.361 275.912 204.694C267.629 212.026 252.109 220.884 248.463 242.998L241.862 241.856Z" fill="#750550"/>
<path opacity="0.15" d="M241.862 241.856C241.862 241.856 240.768 227.847 245.529 215.864C250.289 203.88 258.367 195.453 266.972 193.066C275.577 190.679 284.195 197.361 275.912 204.694C267.629 212.026 252.109 220.884 248.463 242.998L241.862 241.856Z" fill="black"/>
<path d="M243.737 237.799H243.641C243.517 237.775 243.407 237.702 243.337 237.597C243.266 237.491 243.24 237.363 243.265 237.239C248.094 212.738 263.785 199.851 271.452 196.458C271.569 196.41 271.699 196.408 271.817 196.454C271.934 196.5 272.029 196.59 272.082 196.705C272.108 196.761 272.122 196.822 272.124 196.884C272.126 196.947 272.116 197.008 272.093 197.066C272.071 197.124 272.037 197.177 271.994 197.222C271.951 197.267 271.899 197.303 271.842 197.327C264.359 200.645 248.976 213.299 244.188 237.416C244.167 237.522 244.11 237.617 244.029 237.686C243.947 237.755 243.844 237.795 243.737 237.799Z" fill="white"/>
<path d="M278.798 225.344C278.511 226.979 277.095 228.148 275.748 229.119C274.4 230.091 272.943 231.171 272.478 232.738C271.555 235.959 275.214 239.25 274.147 242.423C273.874 243.073 273.472 243.66 272.965 244.149C272.459 244.638 271.858 245.019 271.199 245.269C270.118 245.708 269.015 246.091 267.895 246.418C267.356 246.542 266.811 246.633 266.261 246.691C264.653 246.849 262.95 247.198 261.726 248.347C259.804 250.159 259.824 253.135 258.99 255.666C258.47 257.16 257.634 258.523 256.537 259.663C255.44 260.802 254.109 261.69 252.635 262.266C250.187 263.231 246.247 263.634 245.31 262.649C244.626 261.924 245.447 258.983 245.228 257.984C244.68 255.431 244.373 252.832 244.311 250.221C244.335 249.032 244.213 247.844 243.949 246.685C243.613 245.392 243.265 244.092 242.977 242.799C242.635 241.39 242.033 240.378 242.191 238.839C242.415 237.372 242.858 235.948 243.504 234.612C244.069 233.28 244.646 231.949 245.234 230.617C245.873 229.028 246.704 227.523 247.711 226.137C248.637 224.969 249.793 224.002 251.107 223.296C252.421 222.59 253.865 222.161 255.351 222.033C257.806 221.842 260.44 222.594 262.875 221.876C265.31 221.158 267.369 219.974 269.824 219.537C272.389 219.085 275.228 219.537 277.211 221.322C277.785 221.811 278.23 222.434 278.507 223.135C278.783 223.836 278.883 224.595 278.798 225.344Z" fill="#750550"/>
<path opacity="0.3" d="M278.798 225.344C278.511 226.979 277.095 228.148 275.748 229.119C274.4 230.091 272.943 231.171 272.478 232.738C271.555 235.959 275.214 239.25 274.147 242.423C273.874 243.073 273.472 243.66 272.965 244.149C272.459 244.638 271.858 245.019 271.199 245.269C270.118 245.708 269.015 246.091 267.895 246.418C267.356 246.542 266.811 246.633 266.261 246.691C264.653 246.849 262.95 247.198 261.726 248.347C259.804 250.159 259.824 253.135 258.99 255.666C258.47 257.16 257.634 258.523 256.537 259.663C255.44 260.802 254.109 261.69 252.635 262.266C250.187 263.231 246.247 263.634 245.31 262.649C244.626 261.924 245.447 258.983 245.228 257.984C244.68 255.431 244.373 252.832 244.311 250.221C244.335 249.032 244.213 247.844 243.949 246.685C243.613 245.392 243.265 244.092 242.977 242.799C242.635 241.39 242.033 240.378 242.191 238.839C242.415 237.372 242.858 235.948 243.504 234.612C244.069 233.28 244.646 231.949 245.234 230.617C245.873 229.028 246.704 227.523 247.711 226.137C248.637 224.969 249.793 224.002 251.107 223.296C252.421 222.59 253.865 222.161 255.351 222.033C257.806 221.842 260.44 222.594 262.875 221.876C265.31 221.158 267.369 219.974 269.824 219.537C272.389 219.085 275.228 219.537 277.211 221.322C277.785 221.811 278.23 222.434 278.507 223.135C278.783 223.836 278.883 224.595 278.798 225.344Z" fill="black"/>
<path d="M251.267 236.349C251.295 236.291 251.337 236.242 251.39 236.206C258.771 227.163 269.612 223.387 273.224 222.847C273.275 222.833 273.329 222.83 273.382 222.838C273.434 222.846 273.485 222.865 273.529 222.894C273.574 222.924 273.612 222.962 273.641 223.007C273.669 223.051 273.688 223.102 273.696 223.155C273.704 223.207 273.7 223.261 273.686 223.312C273.671 223.364 273.646 223.411 273.612 223.452C273.577 223.493 273.535 223.526 273.487 223.549C273.439 223.572 273.386 223.585 273.333 223.586C269.913 224.099 259.865 227.58 252.67 235.829C255.412 235.117 258.273 234.979 261.071 235.427C263.869 235.874 266.545 236.896 268.928 238.429C268.968 238.457 269.002 238.493 269.028 238.535C269.053 238.577 269.07 238.624 269.077 238.672C269.084 238.721 269.081 238.771 269.069 238.818C269.056 238.865 269.034 238.91 269.003 238.948C268.969 238.997 268.923 239.037 268.869 239.063C268.815 239.09 268.756 239.102 268.696 239.099C268.619 239.098 268.544 239.072 268.484 239.024C266.034 237.467 263.273 236.464 260.395 236.086C257.516 235.708 254.59 235.964 251.821 236.835C247.508 242.172 245.066 248.778 244.872 255.638C244.869 255.731 244.83 255.82 244.764 255.886C244.698 255.952 244.61 255.99 244.516 255.994C244.418 255.99 244.324 255.948 244.257 255.876C244.189 255.805 244.152 255.709 244.154 255.611C244.342 248.583 246.842 241.812 251.267 236.349Z" fill="white"/>
<path d="M243.196 257.635C240.351 259.003 237.266 258.805 233.989 257.307L232.943 239.133L244.489 237.868L243.196 257.635Z" fill="#FFA8A7"/>
<path d="M220.898 246.52C219.434 249.209 212.854 249.817 210.98 246.295L210.18 228.511L222.28 228.771L220.898 246.52Z" fill="#FFA8A7"/>
<path d="M222.191 274.045C221.876 274.325 221.896 276.302 222.191 276.849C222.485 277.396 224.557 279.291 228.347 279.694C231.944 280.077 235.187 279.694 237.355 278.436C239.523 277.177 240.597 275.7 240.871 273.648C241.144 271.596 240.98 269.605 242.02 268.06C242.977 266.63 244.475 265.036 244.817 264.257C245.563 262.56 244.995 260.07 244.995 260.07L222.191 274.045Z" fill="#263238"/>
<path d="M232.731 256.459C232.648 257.234 232.471 257.997 232.204 258.73C231.599 260.303 230.805 261.796 229.838 263.176C229.358 263.895 228.83 264.58 228.258 265.228C227.115 266.486 225.727 267.506 224.523 268.709C223.253 269.842 222.412 271.379 222.143 273.06C221.883 275.885 224.92 276.952 227.273 277.458C229.814 277.996 232.443 277.959 234.968 277.348C236.296 277.051 237.509 276.376 238.463 275.405C239.417 274.435 240.07 273.209 240.344 271.876C240.501 271.097 240.488 270.289 240.604 269.503C240.986 267.709 241.804 266.037 242.984 264.633C243.669 263.819 244.267 262.937 244.769 261.999C245.57 260.276 245.043 258.285 244.64 256.527C244.284 255.009 244.01 253.21 243.477 253.333L243.401 254.503C243.217 254.824 242.861 254.811 242.717 255.187C242.596 255.582 242.44 255.967 242.252 256.336C241.966 256.914 241.511 257.392 240.946 257.704C240.946 256.637 240.946 255.563 240.946 254.496C240.982 254.164 240.908 253.83 240.734 253.545C240.492 253.31 240.18 253.161 239.845 253.121C237.879 252.577 235.843 252.335 233.805 252.403C233.653 252.398 233.501 252.425 233.36 252.481C233.219 252.538 233.091 252.623 232.984 252.731C232.861 252.937 232.803 253.176 232.82 253.415C232.843 254.431 232.814 255.447 232.731 256.459Z" fill="#E8AFCE"/>
<path d="M229.434 263.75C230.515 262.998 232.854 263.066 234.161 263.258C235.469 263.418 236.715 263.905 237.786 264.674C237.941 264.798 238.135 264.862 238.334 264.854C238.532 264.847 238.721 264.768 238.866 264.633C238.952 264.556 239.02 264.461 239.066 264.355C239.111 264.249 239.133 264.135 239.13 264.019C239.127 263.904 239.098 263.791 239.047 263.688C238.996 263.585 238.922 263.494 238.832 263.422C237.649 262.489 236.227 261.908 234.728 261.746C231.561 261.411 230.624 261.924 230.624 261.924C230.624 261.924 229.14 262.806 229.434 263.75Z" fill="#F5F5F5"/>
<path d="M226.91 266.562C228.278 265.83 230.85 266.035 232.136 266.22C233.42 266.396 234.635 266.908 235.658 267.704C235.816 267.824 236.01 267.885 236.208 267.877C236.405 267.868 236.593 267.79 236.739 267.656C236.825 267.58 236.893 267.486 236.938 267.38C236.984 267.275 237.006 267.161 237.002 267.046C236.999 266.931 236.971 266.819 236.92 266.716C236.868 266.614 236.795 266.524 236.705 266.452C235.513 265.476 234.073 264.85 232.546 264.646C229.379 264.311 228.524 264.934 228.524 264.934C228.15 265.065 227.81 265.28 227.53 265.562C227.251 265.844 227.039 266.186 226.91 266.562Z" fill="#F5F5F5"/>
<path d="M236.13 258.75C234.802 258.472 233.425 258.538 232.129 258.942C231.555 259.236 231.158 260.111 231.507 260.344C232.646 259.937 233.867 259.815 235.063 259.988C236.257 260.143 237.414 260.504 238.483 261.055C238.757 261.185 239.072 261.363 239.345 261.527C239.433 261.582 239.531 261.617 239.633 261.632C239.734 261.647 239.838 261.641 239.938 261.614C240.037 261.587 240.13 261.54 240.21 261.475C240.291 261.411 240.357 261.331 240.405 261.24C240.491 261.085 240.513 260.903 240.467 260.732C240.421 260.561 240.311 260.415 240.159 260.324C238.944 259.517 237.57 258.981 236.13 258.75Z" fill="#F5F5F5"/>
<path d="M190.761 257.526C190.467 258.348 190.499 259.251 190.85 260.05C191.185 260.796 194.954 263.046 200.186 262.786C204.045 262.6 207.784 261.384 211.014 259.263C213.018 257.998 215.084 257.793 217.662 257.704C220.241 257.615 223.134 256.391 223.73 255.2C224.325 254.01 223.73 251.924 223.73 251.924L190.761 257.526Z" fill="#263238"/>
<path d="M211.978 241.999L210.61 241.479C210.376 241.355 210.104 241.319 209.844 241.377C209.509 241.493 209.372 241.883 209.277 242.225C209.143 242.991 208.937 243.742 208.661 244.468C208.263 245.057 207.757 245.565 207.17 245.966C205.859 246.974 204.447 247.843 202.957 248.559C201.24 249.434 199.537 250.105 197.792 250.857C196.048 251.609 193.606 252.061 192.19 252.971C190.138 254.339 189.783 257.759 192.081 259.161C194.058 260.378 199.297 261.767 204.858 260.317C207.888 259.53 211.301 256.384 215.262 256.158C217.779 256.021 222.047 255.406 223.702 253.531C224.318 252.697 223.579 249.995 222.97 247.663C222.286 245.125 222.122 241.158 221.281 241.363C221.206 242.204 220.467 242.676 220.009 243.374C219.645 244.013 219.329 244.678 219.065 245.365C218.757 246.049 218.853 246.698 218.217 247.075C217.905 247.28 217.534 247.376 217.162 247.346C216.79 247.317 216.439 247.163 216.165 246.91C215.44 246.131 215.911 244.797 215.392 243.873C214.96 243.287 214.343 242.863 213.641 242.67L211.978 241.999Z" fill="#E8AFCE"/>
<path d="M205.364 247.239C205.553 246.896 205.824 246.606 206.154 246.395C206.484 246.185 206.862 246.061 207.252 246.035C208.401 245.85 210.405 246.719 211.636 247.799C211.754 247.899 211.845 248.025 211.902 248.168C211.959 248.311 211.979 248.465 211.963 248.618C211.946 248.771 211.892 248.917 211.805 249.044C211.718 249.171 211.602 249.274 211.465 249.345C211.294 249.434 211.1 249.468 210.909 249.442C210.718 249.416 210.54 249.332 210.398 249.202C209.041 247.916 207.234 247.211 205.364 247.239Z" fill="#F5F5F5"/>
<path d="M201.78 249.147C201.78 248.839 202.526 247.984 204.003 248.059C204.003 248.059 206.992 248.21 208.791 249.975C208.901 250.073 208.987 250.196 209.04 250.333C209.093 250.471 209.112 250.619 209.096 250.766C209.08 250.913 209.029 251.054 208.947 251.176C208.866 251.299 208.756 251.401 208.627 251.473C208.462 251.558 208.275 251.59 208.091 251.564C207.907 251.538 207.736 251.456 207.601 251.329C206.855 250.554 205.945 249.955 204.938 249.578C203.931 249.2 202.852 249.053 201.78 249.147Z" fill="#F5F5F5"/>
<path d="M197.82 250.857C198.112 250.537 198.47 250.284 198.869 250.115C199.268 249.946 199.698 249.866 200.132 249.879C201.827 250.019 203.434 250.695 204.721 251.808C204.832 251.904 204.918 252.026 204.971 252.163C205.025 252.3 205.045 252.448 205.03 252.594C205.014 252.74 204.964 252.881 204.883 253.003C204.802 253.126 204.692 253.227 204.564 253.299C204.399 253.385 204.211 253.419 204.026 253.394C203.841 253.37 203.668 253.289 203.531 253.162C202.826 252.358 201.941 251.731 200.949 251.33C199.958 250.93 198.886 250.768 197.82 250.857Z" fill="#F5F5F5"/>
<path d="M248.976 122.99C251.028 142.723 246.007 191.643 246.007 191.643C246.39 194.092 247.505 197.56 247.471 206.007C247.423 218.901 244.462 246.507 244.462 246.507C244.462 246.507 238.709 248.354 232.916 246.411C232.916 246.411 229.249 211.014 227.649 199.215C226.534 191.007 226.069 182.238 226.069 182.238L225.303 190.22C225.996 195.52 226.132 200.878 225.706 206.205C225.214 212.102 221.944 236.254 221.944 236.254C218.005 237.409 213.832 237.518 209.838 236.568C209.838 236.568 206.985 195.049 206.493 189.66C205.939 183.504 205.727 123.996 205.727 123.996L248.976 122.99Z" fill="#E8AFCE"/>
<path d="M226.096 182.279L223.518 147.306C221.071 146.875 218.738 145.95 216.66 144.589C214.582 143.227 212.803 141.457 211.431 139.386C211.431 139.386 212.621 145.678 221.089 149.475L224.858 181.944L225.33 190.248L226.096 182.279Z" fill="#37474F"/>
<path d="M188.285 137.484V137.381C188.188 135.8 188.285 134.213 188.572 132.655C188.832 131.513 190.227 130.487 191.014 129.652C194.858 125.582 200.631 120.76 204.961 116.369C209.14 112.162 208.6 106.287 209.01 98.9406C209.749 85.8625 210.282 79.898 210.282 79.898L212.04 67.032C205.104 67.716 201.869 71.3822 201.226 73.6805C198.887 82.0389 195.467 106.205 195.467 106.205C193.852 108.619 193.538 108.777 189.885 114.378C187.943 117.361 185.85 120.234 183.729 123.099C183.257 123.742 182.758 124.365 182.313 125.028C181.869 125.692 181.629 126.451 181.164 127.135C180.243 128.614 179.025 129.886 177.587 130.87C176.417 131.67 175.097 132.279 174.105 133.291C173.375 134.103 172.69 134.955 172.053 135.842C171.356 136.59 170.537 137.214 169.632 137.689C169.96 138.144 170.414 138.493 170.937 138.695C171.461 138.896 172.032 138.941 172.58 138.825C173.688 138.654 174.577 137.518 175.528 136.93C174.995 138.64 174.735 143.086 175.22 143.914C175.952 145.158 178.319 146.602 180.357 147.423C181.71 147.932 183.211 147.885 184.53 147.293C186.253 146.547 186.876 144.639 187.368 142.819C187.929 141.094 188.238 139.297 188.285 137.484Z" fill="#F28F8F"/>
<path d="M212.04 66.5532C207.656 67.5108 205.022 67.9212 202.081 71.1292C199.14 74.3371 198.1 85.5274 197.43 90.1786C196.759 94.8298 196.062 99.4331 196.062 99.4331C196.062 99.4331 200.781 104.221 211.63 101.82L212.04 66.5532Z" fill="#E8AFCE"/>
<path d="M191.766 128.496C191.576 128.133 191.294 127.827 190.949 127.607C190.603 127.388 190.206 127.262 189.796 127.245C188.974 127.22 188.161 127.426 187.45 127.84C187.304 127.66 187.115 127.521 186.901 127.435C186.686 127.348 186.453 127.317 186.224 127.345C185.994 127.373 185.775 127.459 185.588 127.595C185.401 127.73 185.251 127.911 185.152 128.12C184.969 127.718 184.643 127.399 184.237 127.223C183.832 127.047 183.376 127.028 182.957 127.17C182.539 127.311 182.187 127.602 181.971 127.988C181.755 128.373 181.689 128.825 181.787 129.256C181.605 129.238 181.422 129.269 181.256 129.345C181.09 129.421 180.947 129.54 180.842 129.69C180.737 129.839 180.673 130.014 180.658 130.196C180.643 130.378 180.676 130.561 180.754 130.726C180.308 130.714 179.871 130.847 179.507 131.105C179.144 131.364 178.875 131.733 178.74 132.158C178.606 132.583 178.614 133.041 178.762 133.461C178.911 133.881 179.192 134.242 179.564 134.488C180.035 134.715 180.559 134.809 181.079 134.761C181.6 134.713 182.097 134.524 182.519 134.215C183.354 133.589 184.114 132.868 184.783 132.067C185.458 131.262 186.374 130.697 187.396 130.453C188.558 130.268 189.714 130.801 190.87 130.61C191.794 130.459 192.129 129.276 191.766 128.496Z" fill="#FAFAFA"/>
<path d="M178.223 134.536C180.59 130.473 185.063 126.971 189.249 129.221C189.454 129.331 190.87 130.049 191.363 130.316C193.647 131.54 194.954 135.692 192.334 140.186C190.056 144.085 185.692 146.868 181.978 144.974C181.695 144.827 181.423 144.66 181.164 144.474C180.728 144.37 180.305 144.214 179.906 144.009C176.191 142.087 176.171 138.052 178.223 134.536Z" fill="#750550"/>
<path d="M189.249 129.221C191.534 130.446 192.881 134.728 190.255 139.228C187.984 143.12 183.62 145.911 179.906 144.016C176.192 142.122 176.171 138.072 178.223 134.557C180.576 130.473 185.056 126.971 189.249 129.221Z" fill="#750550"/>
<path opacity="0.5" d="M189.249 129.221C191.534 130.446 192.881 134.728 190.255 139.228C187.984 143.12 183.62 145.911 179.906 144.016C176.192 142.122 176.171 138.072 178.223 134.557C180.576 130.473 185.056 126.971 189.249 129.221Z" fill="white"/>
<path d="M196.643 138.756C197.294 136.905 197.238 134.878 196.486 133.065C196.204 132.431 195.767 131.877 195.214 131.458C194.937 131.249 194.622 131.098 194.285 131.014C193.949 130.931 193.599 130.917 193.257 130.972C192.915 131.033 192.596 131.188 192.338 131.42C192.079 131.652 191.89 131.952 191.794 132.286C191.555 132.068 191.267 131.914 190.953 131.838C190.64 131.761 190.313 131.765 190.001 131.848C189.495 131.978 188.565 132.532 189.085 133.216C188.761 132.811 188.302 132.537 187.793 132.442C187.283 132.347 186.756 132.439 186.309 132.7C185.861 132.961 185.522 133.375 185.354 133.865C185.185 134.355 185.199 134.889 185.391 135.37C185.197 135.271 184.985 135.213 184.768 135.2C184.55 135.187 184.333 135.218 184.128 135.292C183.923 135.367 183.736 135.482 183.578 135.632C183.42 135.782 183.294 135.963 183.209 136.163C183.124 136.364 183.081 136.58 183.083 136.797C183.085 137.015 183.132 137.23 183.22 137.429C183.309 137.628 183.437 137.807 183.598 137.954C183.758 138.101 183.947 138.213 184.153 138.284C183.734 138.193 183.296 138.259 182.922 138.469C182.734 138.542 182.566 138.657 182.43 138.805C182.293 138.953 182.193 139.131 182.135 139.324C182.081 139.612 182.114 139.91 182.231 140.179C182.347 140.448 182.496 140.7 182.676 140.931C182.558 140.755 182.396 140.612 182.207 140.517C182.018 140.421 181.807 140.375 181.595 140.384C181.38 140.398 181.173 140.469 180.994 140.589C180.815 140.709 180.671 140.875 180.576 141.068C180.591 140.83 180.53 140.593 180.401 140.392C180.271 140.192 180.081 140.038 179.858 139.953C179.619 139.872 179.364 139.854 179.116 139.899C178.868 139.945 178.636 140.053 178.442 140.213C178.259 140.382 178.113 140.587 178.016 140.816C177.918 141.044 177.869 141.291 177.874 141.54C177.899 142.142 178.082 142.726 178.405 143.234C178.728 143.742 179.18 144.156 179.714 144.433C180.789 144.978 181.971 145.277 183.175 145.309C185.865 145.604 188.587 145.267 191.123 144.324C192.386 143.842 193.532 143.096 194.484 142.136C195.436 141.175 196.172 140.023 196.643 138.756Z" fill="#FAFAFA"/>
<path d="M241.849 65.9444C241.849 65.9444 243.121 67.2714 245.091 71.7926C247.803 77.7414 249.252 84.1884 249.345 90.7257C249.448 101.246 249.496 103.968 249.496 109.666V130.261C242.929 135.446 214.714 139.091 204.742 129.173C204.742 129.173 205.33 124.584 206.007 109.809C204.639 101.471 203.428 91.8817 203.1 86.0609C202.526 75.924 203.784 69.6449 209.66 67.0799C211.967 66.2564 214.317 65.5555 216.698 64.98C216.698 64.98 220.474 63.7556 227.341 64.0634C232.214 64.3578 237.062 64.9863 241.849 65.9444Z" fill="#750550"/>
<path d="M221.048 30.096C221.048 30.096 223.695 28.7964 226.329 31.2861C228.627 33.4613 228.456 38.8512 228.381 44.46C228.41 47.9923 227.987 51.5139 227.122 54.9389C226.823 55.9639 226.139 56.8337 225.214 57.3671L223.887 51.0401L223.08 46.6077C223.08 46.6077 220.022 46.4162 218.292 40.3491C217.15 36.3272 217.396 34.5351 217.396 34.5351L221.048 30.096Z" fill="#E8AFCE"/>
<path d="M218.593 38.1672C219.134 40.4928 218.973 42.9267 218.131 45.1611C217.289 47.3955 215.804 49.33 213.862 50.72C211.921 52.11 209.611 52.893 207.224 52.9701C204.838 53.0472 202.482 52.4148 200.455 51.153C198.427 49.8912 196.82 48.0566 195.836 45.8812C194.851 43.7058 194.534 41.2873 194.924 38.9316C195.314 36.5759 196.394 34.3888 198.027 32.6468C199.66 30.9049 201.773 29.6863 204.099 29.1452C205.643 28.7851 207.243 28.7328 208.807 28.9914C210.372 29.2499 211.87 29.8143 213.216 30.6522C214.562 31.4901 215.729 32.5851 216.652 33.8745C217.575 35.164 218.234 36.6227 218.593 38.1672Z" fill="#E8AFCE"/>
<path d="M222.765 45.9101C224.202 45.8143 224.338 44.0017 225.009 42.8663C225.679 41.7308 228.285 39.7883 230.44 42.4969C232.594 45.2055 231.561 49.1864 229.851 50.9443C229.322 51.5214 228.62 51.9108 227.85 52.0539C227.08 52.197 226.285 52.0861 225.583 51.7377L227.423 65.2741C223.819 72.5929 210.056 74.2482 213.743 66.4916L213.182 63.6941C211.459 64.4142 209.638 64.8752 207.779 65.0621C204.783 65.2946 202.43 63.4341 200.829 60.5066C198.251 55.8144 196.807 48.1946 196.431 37.9825C199.078 34.713 209.605 31.8265 217.403 34.5215C218.429 40.3355 220.248 43.9059 220.864 44.6515C221.479 45.3971 222.211 45.9511 222.765 45.9101Z" fill="#FFA8A7"/>
<path d="M192.43 30.78C192.445 30.6856 192.486 30.597 192.547 30.5236C192.608 30.4502 192.688 30.3947 192.779 30.3628C192.927 30.34 193.078 30.3664 193.21 30.438C194.171 30.8944 195.168 31.2696 196.192 31.5598C195.678 30.4546 195.381 29.2611 195.316 28.044C195.275 27.2985 195.091 25.609 195.932 25.2191C196.431 24.9934 196.992 25.3217 197.464 25.5953C201.78 28.044 206.021 25.4585 210.31 24.624C213.894 23.8921 218.518 24.3299 220.946 27.4079C222.054 28.8169 222.581 30.4517 221.384 31.8881C220.29 33.0665 218.936 33.973 217.43 34.5352C210.638 37.4422 201.698 42.1207 194.858 36.7513C193.852 36.0129 193.086 34.9947 192.656 33.8238C192.293 32.8755 192.207 31.8435 192.409 30.8484L192.43 30.78Z" fill="#263238"/>
<path d="M213.21 63.6941C213.21 63.6941 218.517 61.8815 221.274 59.2412C222.396 58.1337 223.189 56.7368 223.565 55.2056C223.659 56.6165 223.338 58.0239 222.642 59.2549C220.296 63.1879 213.593 65.4656 213.593 65.4656L213.21 63.6941Z" fill="#F28F8F"/>
<path d="M210.911 47.0729C210.951 47.2427 211.024 47.4029 211.126 47.5445C211.228 47.686 211.357 47.8061 211.505 47.8979C211.654 47.9897 211.819 48.0513 211.991 48.0794C212.163 48.1074 212.339 48.1013 212.509 48.0613C212.678 48.0213 212.839 47.9483 212.98 47.8464C213.122 47.7445 213.242 47.6157 213.334 47.4674C213.425 47.3191 213.487 47.1542 213.515 46.982C213.543 46.8099 213.537 46.6339 213.497 46.4642C213.457 46.2944 213.384 46.1342 213.282 45.9926C213.18 45.8511 213.051 45.731 212.903 45.6392C212.755 45.5474 212.59 45.4857 212.418 45.4577C212.246 45.4297 212.07 45.4358 211.9 45.4758C211.73 45.5158 211.57 45.5888 211.428 45.6907C211.287 45.7926 211.167 45.9213 211.075 46.0697C210.983 46.218 210.921 46.3829 210.893 46.555C210.865 46.7272 210.872 46.9032 210.911 47.0729Z" fill="#263238"/>
<path d="M211.151 41.8676L214.27 42.75C214.379 42.3249 214.319 41.8742 214.104 41.492C213.888 41.1097 213.534 40.8253 213.114 40.698C212.908 40.6418 212.693 40.6277 212.482 40.6565C212.27 40.6853 212.067 40.7564 211.884 40.8656C211.701 40.9748 211.541 41.1198 211.415 41.292C211.289 41.4641 211.199 41.6599 211.151 41.8676Z" fill="#263238"/>
<path d="M198.497 45.9511L200.549 43.4203C200.391 43.2767 200.206 43.1669 200.004 43.0974C199.803 43.028 199.589 43.0004 199.377 43.0164C199.164 43.0325 198.957 43.0917 198.768 43.1905C198.579 43.2894 198.412 43.4258 198.278 43.5913C198.004 43.9374 197.874 44.3756 197.915 44.815C197.956 45.2544 198.164 45.6613 198.497 45.9511Z" fill="#263238"/>
<path d="M200.077 49.207C200.147 49.4574 200.288 49.6819 200.485 49.8525C200.681 50.0231 200.923 50.1323 201.181 50.1665C201.438 50.2007 201.7 50.1585 201.934 50.045C202.168 49.9315 202.364 49.7518 202.496 49.5282C202.629 49.3046 202.693 49.047 202.681 48.7873C202.668 48.5276 202.58 48.2772 202.426 48.0674C202.272 47.8576 202.061 47.6975 201.817 47.607C201.573 47.5166 201.308 47.4997 201.055 47.5585C200.708 47.6503 200.412 47.8745 200.229 48.1828C200.046 48.4911 199.991 48.8588 200.077 49.207Z" fill="#263238"/>
<path d="M206.541 45.6433L207.58 53.4888L203.264 53.4341L206.541 45.6433Z" fill="#F28F8F"/>
<path d="M212.861 55.2056L207.553 57.1755C207.668 57.5316 207.853 57.8609 208.097 58.1438C208.342 58.4267 208.641 58.6574 208.977 58.8221C209.313 58.9868 209.678 59.0822 210.052 59.1025C210.425 59.1228 210.799 59.0676 211.151 58.9403C211.864 58.661 212.442 58.1155 212.761 57.4187C213.08 56.7219 213.116 55.9284 212.861 55.2056Z" fill="#B16668"/>
<path d="M212.327 56.1906C212.552 56.1375 212.781 56.1077 213.011 56.1017C213.036 56.7089 212.871 57.3086 212.538 57.8175C212.206 58.3263 211.723 58.7188 211.158 58.9403C210.87 59.0424 210.567 59.0955 210.262 59.0976C210.169 58.4408 210.331 57.7733 210.715 57.2325C211.099 56.6917 211.676 56.3188 212.327 56.1906Z" fill="#F28F8F"/>
<path d="M176.971 136.246C177.532 135.35 179.591 133.859 180.562 133.086C181.534 132.313 181.978 133.729 181.759 134.748C181.595 135.514 180.439 136.444 179.372 137.34L178.989 140.076L181.766 142.689C181.766 142.689 185.583 142.73 186.075 142.375C186.917 141.773 187.443 141.109 186.759 140.323C186.075 139.536 185.446 139.249 183.572 139.338C182.658 139.417 181.737 139.369 180.836 139.194C179.844 138.831 179.536 138.25 180.056 137.607C180.918 136.52 182.696 136.773 184.728 136.239C187.272 135.555 188.045 134.693 190.248 133.941C192.157 133.392 194.017 132.685 195.809 131.827C197.806 130.788 224.803 115.733 224.803 115.733L233.059 87.4836C233.059 87.4836 234.715 69.1524 238.86 65.3835C248.504 67.032 249.749 73.8583 249.496 81.7995C249.243 89.7408 242.546 111.752 239.557 118.524C236.671 125.069 235.768 125.637 231.466 127.675C225.043 130.719 207.232 137.251 203.086 139.392C200.894 140.424 198.786 141.625 196.78 142.983C194.81 144.447 190.877 147.299 189.837 147.58C187.279 148.264 182.177 146.732 180.569 146.164C178.962 145.596 176.144 141.588 175.939 140.829C175.733 140.07 176.41 137.142 176.971 136.246Z" fill="#FFA8A7"/>
<path d="M236.24 64.98C238.976 65.1168 243.08 65.4246 246.261 68.4C249.441 71.3754 249.92 76.8679 249.455 82.5246C249.106 86.868 245.946 104.413 245.946 104.413C245.946 104.413 236.753 106.417 229.195 99.693C229.311 99.3989 232.861 80.3426 232.861 80.3426C232.861 80.3426 233.189 67.0799 236.24 64.98Z" fill="#E8AFCE"/>
<path d="M107.689 276.213V277.28L105.835 278.354V277.28L107.689 276.213Z" fill="#37474F"/>
<path d="M103.975 276.213V277.28L105.835 278.354V277.28L103.975 276.213Z" fill="#E8AFCE"/>
<path d="M103.975 256.924V276.213L105.835 277.28V257.998L103.975 256.924Z" fill="#37474F"/>
<path d="M105.835 277.28L107.689 276.213V256.924L105.835 257.998V277.28Z" fill="#263238"/>
<path d="M157.799 305.146V306.213L155.945 307.287V306.213L157.799 305.146Z" fill="#37474F"/>
<path d="M154.085 305.146V306.213L155.945 307.287V306.213L154.085 305.146Z" fill="#E8AFCE"/>
<path d="M154.085 285.857V305.146L155.945 306.213V286.924L154.085 285.857Z" fill="#37474F"/>
<path d="M155.945 306.213L157.799 305.146V285.857L155.945 286.924V306.213Z" fill="#263238"/>
<path d="M196.773 282.643V283.71L194.92 284.784V283.71L196.773 282.643Z" fill="#37474F"/>
<path d="M193.059 282.643V283.71L194.919 284.784V283.71L193.059 282.643Z" fill="#E8AFCE"/>
<path d="M193.059 263.354V282.642L194.919 283.709V264.428L193.059 263.354Z" fill="#E8AFCE"/>
<path d="M194.92 283.709L196.773 282.642V263.354L194.92 264.428V283.709Z" fill="#263238"/>
<path d="M165.22 212.991L100.268 175.487V256.924L165.22 294.428V212.991Z" fill="#E8AFCE"/>
<path d="M165.22 212.991L202.341 191.561V272.998L165.22 294.428V212.991Z" fill="#37474F"/>
<path d="M168.934 221.548L89.1321 175.487L137.388 147.628L217.191 193.688L168.934 221.548Z" fill="#750550"/>
<path opacity="0.6" d="M168.934 221.548L89.1321 175.487L137.388 147.628L217.191 193.688L168.934 221.548Z" fill="white"/>
<path opacity="0.1" d="M142.436 196.506C144.201 197.526 144.201 199.181 142.436 200.2C141.445 200.699 140.351 200.959 139.242 200.959C138.132 200.959 137.038 200.699 136.048 200.2C134.283 199.181 134.283 197.526 136.048 196.506C137.037 196.004 138.132 195.742 139.242 195.742C140.352 195.742 141.446 196.004 142.436 196.506Z" fill="black"/>
<path d="M217.191 193.688V195.829L168.934 223.689V221.548L217.191 193.688Z" fill="#750550"/>
<path opacity="0.5" d="M217.191 193.688V195.829L168.934 223.689V221.548L217.191 193.688Z" fill="white"/>
<path opacity="0.15" d="M217.191 193.688V195.829L168.934 223.689V221.548L217.191 193.688Z" fill="black"/>
<path d="M168.934 223.689L89.132 177.635V175.487L168.934 221.548V223.689Z" fill="#750550"/>
<path opacity="0.5" d="M168.934 223.689L89.132 177.635V175.487L168.934 221.548V223.689Z" fill="white"/>
<path opacity="0.05" d="M168.934 223.689L89.132 177.635V175.487L168.934 221.548V223.689Z" fill="black"/>
<path opacity="0.1" d="M163.367 197.614C152.774 197.614 144.187 192.656 144.187 186.541C144.187 180.425 152.774 175.467 163.367 175.467C173.959 175.467 182.546 180.425 182.546 186.541C182.546 192.656 173.959 197.614 163.367 197.614Z" fill="black"/>
<path d="M150.651 188.36C149.283 186.992 145.466 183.189 137.402 177.306H156.636C161.049 176.048 165.725 176.048 170.138 177.306H189.331C181.267 183.189 177.436 187.019 176.089 188.36L175.979 188.469L175.754 188.688C173.23 191.055 168.626 192.635 163.367 192.635C158.107 192.635 153.51 191.055 150.979 188.688C150.918 188.627 150.842 188.558 150.76 188.469L150.651 188.36Z" fill="#E0E0E0"/>
<path d="M163.367 184.502C145.268 184.502 130.596 176.24 130.596 166.048C130.596 155.856 145.268 147.594 163.367 147.594C181.465 147.594 196.137 155.856 196.137 166.048C196.137 176.24 181.465 184.502 163.367 184.502Z" fill="#FAFAFA"/>
<path d="M163.367 181.841C146.745 181.841 133.271 174.504 133.271 165.453C133.271 156.402 146.745 149.064 163.367 149.064C179.988 149.064 193.463 156.402 193.463 165.453C193.463 174.504 179.988 181.841 163.367 181.841Z" fill="#EBEBEB"/>
<path d="M163.366 181.841C159.173 181.856 154.993 181.363 150.918 180.371C153.428 177.97 158.065 176.363 163.366 176.363C168.667 176.363 173.305 177.97 175.822 180.371C171.745 181.363 167.563 181.857 163.366 181.841Z" fill="#E0E0E0"/>
<path d="M141.096 171.205L154.085 163.702L150.377 161.561L137.388 169.057L141.096 171.205Z" fill="#750550"/>
<path opacity="0.8" d="M141.096 171.205L154.085 163.702L150.377 161.561L137.388 169.057L141.096 171.205Z" fill="white"/>
<path opacity="0.05" d="M141.096 171.205L154.085 163.702L150.377 161.561L137.388 169.057L141.096 171.205Z" fill="black"/>
<path opacity="0.05" d="M141.096 171.205L137.388 169.058L139.728 167.71L143.435 169.851L141.096 171.205Z" fill="black"/>
<path d="M154.085 163.702L159.659 164.776L155.945 162.635L150.377 161.561L154.085 163.702Z" fill="#750550"/>
<path opacity="0.7" d="M154.085 163.702L159.659 164.776L155.945 162.635L150.377 161.561L154.085 163.702Z" fill="white"/>
<path opacity="0.05" d="M154.085 163.702L159.659 164.776L155.945 162.635L150.377 161.561L154.085 163.702Z" fill="black"/>
<path d="M159.659 166.917L154.085 165.849L141.096 173.346V171.205L154.085 163.702L159.659 164.776V166.917Z" fill="#750550"/>
<path opacity="0.7" d="M159.659 166.917L154.085 165.849L141.096 173.346V171.205L154.085 163.702L159.659 164.776V166.917Z" fill="white"/>
<path opacity="0.1" d="M159.659 166.917L154.085 165.849L141.096 173.346V171.205L154.085 163.702L159.659 164.776V166.917Z" fill="black"/>
<path opacity="0.1" d="M143.435 171.999L141.096 173.346V171.205L143.435 169.851V171.999Z" fill="black"/>
<path d="M136.205 198.052V162.423H142.272V198.052C142.247 198.319 142.152 198.575 141.996 198.792C141.839 199.01 141.628 199.182 141.383 199.29C140.718 199.627 139.984 199.803 139.238 199.803C138.493 199.803 137.759 199.627 137.094 199.29C136.85 199.181 136.639 199.008 136.483 198.791C136.327 198.573 136.231 198.319 136.205 198.052Z" fill="#750550"/>
<path opacity="0.8" d="M136.205 198.052V162.423H142.272V198.052C142.247 198.319 142.152 198.575 141.996 198.792C141.839 199.01 141.628 199.182 141.383 199.29C140.718 199.627 139.984 199.803 139.238 199.803C138.493 199.803 137.759 199.627 137.094 199.29C136.85 199.181 136.639 199.008 136.483 198.791C136.327 198.573 136.231 198.319 136.205 198.052Z" fill="white"/>
<path opacity="0.03" d="M136.205 198.052V162.423H142.272V198.052C142.247 198.319 142.152 198.575 141.996 198.792C141.839 199.01 141.628 199.182 141.383 199.29C140.718 199.627 139.984 199.803 139.238 199.803C138.493 199.803 137.759 199.627 137.094 199.29C136.85 199.181 136.639 199.008 136.483 198.791C136.327 198.573 136.231 198.319 136.205 198.052Z" fill="black"/>
<path d="M138.332 199.728C137.898 199.658 137.48 199.514 137.094 199.304C136.85 199.194 136.639 199.022 136.483 198.805C136.327 198.587 136.231 198.332 136.205 198.066V162.423H138.332V199.728Z" fill="#750550"/>
<path opacity="0.8" d="M138.332 199.728C137.898 199.658 137.48 199.514 137.094 199.304C136.85 199.194 136.639 199.022 136.483 198.805C136.327 198.587 136.231 198.332 136.205 198.066V162.423H138.332V199.728Z" fill="white"/>
<path opacity="0.1" d="M138.332 199.728C137.898 199.658 137.48 199.514 137.094 199.304C136.85 199.194 136.639 199.022 136.483 198.805C136.327 198.587 136.231 198.332 136.205 198.066V162.423H138.332V199.728Z" fill="black"/>
<path d="M141.383 163.661C140.718 163.998 139.984 164.173 139.238 164.173C138.493 164.173 137.759 163.998 137.094 163.661C135.911 162.977 135.911 161.869 137.094 161.185C137.759 160.848 138.493 160.672 139.238 160.672C139.984 160.672 140.718 160.848 141.383 161.185C142.573 161.869 142.573 162.977 141.383 163.661Z" fill="#750550"/>
<path opacity="0.8" d="M141.383 163.661C140.718 163.998 139.984 164.173 139.238 164.173C138.493 164.173 137.759 163.998 137.094 163.661C135.911 162.977 135.911 161.869 137.094 161.185C137.759 160.848 138.493 160.672 139.238 160.672C139.984 160.672 140.718 160.848 141.383 161.185C142.573 161.869 142.573 162.977 141.383 163.661Z" fill="white"/>
<path d="M108.472 68.0002C101.741 66.1766 97.7628 59.2418 99.5864 52.511C101.41 45.7801 108.345 41.8021 115.076 43.6258C121.807 45.4495 125.785 52.3843 123.961 59.1151C122.137 65.8459 115.202 69.8239 108.472 68.0002Z" fill="#750550"/>
<path d="M103.489 46.4642C104.396 46.1141 105.204 45.5483 105.842 44.8157C105.391 45.0209 104.632 44.6174 103.653 43.3656C102.86 42.3465 102.128 41.3136 101.601 40.6296L101.383 40.315L100.774 40.7459L100.986 41.0606C101.492 41.7924 102.19 42.8321 102.874 43.9265C103.715 45.2535 103.838 46.1085 103.489 46.4642Z" fill="#750550"/>
<path opacity="0.2" d="M101.047 41.1153C101.158 41.0576 101.265 40.9936 101.369 40.9238C101.471 40.8491 101.569 40.7691 101.663 40.6844C101.56 40.5476 101.471 40.4176 101.389 40.2945L100.781 40.7254L101.047 41.1153Z" fill="black"/>
<path d="M99.7888 40.8896C99.7476 40.8276 99.7197 40.7577 99.7067 40.6844C99.703 40.6687 99.703 40.6523 99.7067 40.6365C99.7033 40.6116 99.7033 40.5862 99.7067 40.5613C99.7067 40.5613 99.7067 40.5613 99.7067 40.5271C99.7067 40.4929 99.7067 40.486 99.7067 40.4655C99.8645 40.1197 100.112 39.8225 100.424 39.6047C100.735 39.387 101.099 39.2567 101.478 39.2275H101.574H101.649H101.69C101.752 39.2666 101.806 39.3178 101.848 39.378C101.89 39.4366 101.918 39.5046 101.93 39.5763C102.005 39.8636 101.711 40.3287 101.205 40.6844C100.699 41.0401 100.158 41.1564 99.912 40.9854C99.8657 40.9608 99.824 40.9284 99.7888 40.8896Z" fill="#750550"/>
<path opacity="0.3" d="M100.104 40.4518C100.22 40.6159 100.596 40.5544 100.945 40.315C101.294 40.0756 101.485 39.7336 101.369 39.5694C101.253 39.4053 101.123 39.4531 100.917 39.5147C101.157 39.5147 101.253 39.6994 101.102 39.9319C100.923 40.1518 100.686 40.3175 100.418 40.4107C100.247 40.4518 100.124 40.4107 100.097 40.2945C100.087 40.3198 100.083 40.3468 100.084 40.3738C100.086 40.4008 100.092 40.4273 100.104 40.4518Z" fill="black"/>
<path d="M107.976 43.8513C108.944 43.875 109.906 43.6883 110.794 43.3041C110.302 43.3041 109.891 43.2357 109.543 41.8677C109.255 40.7528 109.207 40.6844 109.05 39.9046C109.05 39.7815 109.002 39.6721 108.982 39.5695L108.25 39.7131C108.25 39.8134 108.27 39.9229 108.311 40.0414C108.462 40.828 108.462 40.9033 108.612 42.0455C108.797 43.4477 108.441 43.6803 107.976 43.8513Z" fill="#750550"/>
<path opacity="0.2" d="M108.339 40.1782C108.463 40.1719 108.586 40.1559 108.708 40.1303C108.833 40.1065 108.957 40.0745 109.078 40.0346C109.043 39.8704 109.009 39.7131 108.982 39.5695L108.25 39.7131C108.277 39.8567 108.305 40.0072 108.339 40.1782Z" fill="black"/>
<path d="M107.026 39.378C107.005 39.2925 107.005 39.2035 107.026 39.118C107.022 39.0999 107.022 39.0814 107.026 39.0633L107.067 38.9812C107.065 38.9676 107.065 38.9538 107.067 38.9402L107.108 38.8855C107.433 38.5694 107.849 38.3636 108.298 38.2972C108.738 38.1901 109.2 38.2261 109.618 38.3998H109.679H109.714L109.782 38.4614L109.816 38.5024C109.87 38.573 109.908 38.6548 109.926 38.7418C109.939 38.8256 109.939 38.9111 109.926 38.9949C109.864 39.3438 109.317 39.6789 108.599 39.8431C107.881 40.0072 107.231 39.8431 107.053 39.549C107.035 39.4938 107.025 39.4361 107.026 39.378Z" fill="#750550"/>
<path opacity="0.3" d="M107.573 39.0565C107.621 39.289 108.058 39.4053 108.551 39.3095C109.043 39.2138 109.413 38.947 109.365 38.7076C109.317 38.4682 109.16 38.4614 108.913 38.434C109.173 38.5366 109.18 38.7965 108.913 38.9675C108.607 39.1284 108.259 39.1928 107.915 39.1522C107.709 39.1112 107.58 39.0291 107.621 38.8649C107.6 38.892 107.585 38.9229 107.577 38.9558C107.569 38.9887 107.567 39.023 107.573 39.0565Z" fill="black"/>
<path d="M113.366 43.393C114.109 43.7299 114.911 43.9159 115.726 43.9402C115.336 43.7898 115.131 43.2015 115.309 42.1276C115.338 41.7969 115.386 41.4681 115.452 41.1427C115.452 41.056 115.473 40.974 115.514 40.8964L114.898 40.7528C114.898 40.828 114.864 40.9101 114.837 41.0059C114.76 41.3282 114.657 41.6439 114.529 41.9498C114.228 42.9895 113.777 43.4272 113.366 43.393Z" fill="#750550"/>
<path opacity="0.2" d="M114.809 41.1358C114.907 41.1769 115.007 41.2089 115.11 41.2316C115.214 41.257 115.319 41.2731 115.425 41.2795C115.425 41.1427 115.487 41.0127 115.514 40.8964L114.898 40.7528C114.871 40.8691 114.844 40.999 114.809 41.1358Z" fill="black"/>
<path d="M114.228 40.2261C114.246 40.1649 114.273 40.1071 114.31 40.0551L114.358 40.0141H114.399C114.713 39.8902 115.056 39.8565 115.388 39.9169C115.721 39.9774 116.029 40.1295 116.28 40.3561C116.282 40.3697 116.282 40.3835 116.28 40.3971V40.4587V40.4997C116.294 40.5605 116.294 40.6236 116.28 40.6844C116.266 40.7436 116.241 40.7995 116.205 40.8486C116.068 41.0538 115.61 41.1359 115.097 41.0127C114.584 40.8896 114.214 40.6229 114.18 40.3766C114.186 40.3237 114.202 40.2725 114.228 40.2261Z" fill="#750550"/>
<path opacity="0.3" d="M114.686 40.1714C114.652 40.3424 114.898 40.5408 115.254 40.6228C115.61 40.7049 115.938 40.6228 115.938 40.4655C115.938 40.3082 115.876 40.2466 115.726 40.1577C115.863 40.3014 115.794 40.4724 115.569 40.5066C115.329 40.5171 115.091 40.4576 114.885 40.3356C114.762 40.2466 114.707 40.1577 114.775 40.062C114.736 40.089 114.705 40.127 114.686 40.1714Z" fill="black"/>
<path d="M118.031 44.9457C118.693 45.6542 119.517 46.1917 120.432 46.5121C120.076 46.1701 120.165 45.3219 120.959 43.9744C121.602 42.8732 122.258 41.8267 122.737 41.088C122.812 40.9785 122.881 40.8759 122.942 40.7733L122.32 40.3629L122.108 40.6776C121.622 41.4094 120.924 42.4218 120.165 43.4136C119.235 44.72 118.489 45.1441 118.031 44.9457Z" fill="#750550"/>
<path opacity="0.2" d="M122.06 40.7733C122.152 40.8556 122.251 40.931 122.354 40.999C122.457 41.0709 122.567 41.1327 122.682 41.1837L122.942 40.787L122.32 40.3766C122.238 40.4997 122.149 40.6297 122.06 40.7733Z" fill="black"/>
<path d="M121.629 39.2001C121.681 39.125 121.749 39.062 121.827 39.0154H121.882H121.971H122.019H122.094C122.571 39.0144 123.036 39.1653 123.421 39.4464C123.83 39.6907 124.153 40.0565 124.344 40.4929V40.5613C124.344 40.5613 124.344 40.5613 124.344 40.6092C124.348 40.641 124.348 40.6731 124.344 40.7049C124.341 40.723 124.341 40.7415 124.344 40.7596C124.329 40.8515 124.296 40.9397 124.249 41.0196C124.195 41.0912 124.131 41.1536 124.057 41.2042C123.756 41.4231 123.079 41.2932 122.436 40.8691C121.793 40.445 121.403 39.8704 121.485 39.5011C121.509 39.391 121.558 39.2881 121.629 39.2001Z" fill="#750550"/>
<path opacity="0.3" d="M122.279 39.3643C122.142 39.5763 122.388 39.9799 122.833 40.274C123.277 40.5681 123.749 40.6297 123.886 40.4245C124.023 40.2193 123.886 40.0825 123.749 39.8773C123.866 40.1509 123.681 40.3492 123.353 40.2808C122.991 40.1782 122.671 39.9654 122.436 39.6721C122.313 39.4942 122.279 39.3369 122.436 39.248C122.372 39.2681 122.317 39.3091 122.279 39.3643Z" fill="black"/>
<path d="M121.991 48.5641C122.325 49.4177 122.771 50.2229 123.318 50.9581C123.134 50.5271 123.318 50.0141 124.002 49.549C124.55 49.1728 125.097 48.865 125.5 48.6119L125.671 48.5162L125.323 47.8937C125.267 47.9286 125.21 47.9605 125.152 47.9895C124.748 48.2084 124.173 48.4957 123.565 48.7624C122.785 49.0565 122.258 48.9197 121.991 48.5641Z" fill="#750550"/>
<path opacity="0.2" d="M125.028 48.0169C125.076 48.1195 125.124 48.2289 125.186 48.3384C125.242 48.4431 125.306 48.5436 125.377 48.6393L125.644 48.4888L125.295 47.8664L125.028 48.0169Z" fill="black"/>
<path d="M125.316 46.9156C125.374 46.888 125.436 46.8696 125.5 46.8609H125.562H125.63H125.664H125.712C126.005 47.014 126.243 47.2526 126.396 47.5449C126.577 47.835 126.658 48.1758 126.629 48.5162C126.629 48.5162 126.629 48.5162 126.629 48.5709C126.629 48.6256 126.629 48.5709 126.629 48.5709C126.631 48.5913 126.631 48.612 126.629 48.6325C126.593 48.6876 126.544 48.7324 126.485 48.7624C126.428 48.793 126.365 48.8116 126.301 48.8171C126.041 48.8582 125.651 48.5504 125.384 48.0647C125.117 47.5791 125.069 47.0935 125.24 46.8951C125.266 46.8993 125.291 46.9062 125.316 46.9156Z" fill="#750550"/>
<path opacity="0.3" d="M125.671 47.2371C125.514 47.326 125.535 47.6612 125.719 47.9964C125.904 48.3315 126.178 48.5299 126.335 48.441C126.492 48.352 126.465 48.2358 126.431 48.0511C126.431 48.2631 126.232 48.3247 126.041 48.1742C125.857 47.9859 125.731 47.7483 125.678 47.4902C125.678 47.3329 125.678 47.2234 125.815 47.2166C125.766 47.2057 125.715 47.213 125.671 47.2371Z" fill="black"/>
<path d="M124.043 53.27C123.897 54.229 123.982 55.2091 124.29 56.1291C124.338 55.6366 125.056 55.1783 126.595 54.9663C127.853 54.7884 129.071 54.6585 129.94 54.5764L130.316 54.5422L130.247 53.8035H129.878C129.002 53.8719 127.785 53.954 126.513 53.995C124.96 54.0702 124.18 53.7488 124.043 53.27Z" fill="#750550"/>
<path opacity="0.2" d="M129.782 53.8377C129.772 53.9629 129.772 54.0887 129.782 54.2139C129.795 54.3404 129.816 54.4661 129.844 54.5901L130.316 54.5422L130.247 53.8035L129.782 53.8377Z" fill="black"/>
<path d="M130.815 52.3739C130.915 52.3698 131.014 52.3837 131.109 52.415H131.171L131.26 52.4765H131.301L131.355 52.5313C131.672 52.9425 131.854 53.442 131.875 53.9608C131.949 54.4788 131.853 55.0066 131.602 55.4656C131.59 55.491 131.573 55.5141 131.554 55.534L131.52 55.5751L131.444 55.6435H131.39C131.304 55.6944 131.208 55.7248 131.109 55.7324C131.012 55.7416 130.914 55.7299 130.822 55.6982C130.425 55.5887 130.076 54.9184 130.008 54.0771C129.94 53.2358 130.165 52.5176 130.528 52.3466C130.624 52.3381 130.722 52.3473 130.815 52.3739Z" fill="#750550"/>
<path opacity="0.3" d="M131.116 53.0442C130.842 53.0442 130.658 53.5572 130.706 54.1386C130.753 54.72 131.02 55.1646 131.301 55.1373C131.465 55.1373 131.602 54.9321 131.67 54.6516C131.513 54.9389 131.219 54.9184 131.054 54.5832C130.909 54.2109 130.878 53.8037 130.966 53.4136C131.041 53.1879 131.15 53.0511 131.328 53.1195C131.3 53.0933 131.266 53.0732 131.23 53.0602C131.193 53.0473 131.155 53.0419 131.116 53.0442Z" fill="black"/>
<path d="M124.002 58.4137C123.524 59.306 123.192 60.2689 123.017 61.266C123.243 60.8009 123.879 60.582 124.939 60.8624C125.801 61.0813 126.622 61.3412 127.21 61.5464L127.457 61.6285L127.71 60.8761L127.463 60.794C126.882 60.582 126.095 60.281 125.261 59.9185C124.262 59.5081 123.893 58.9199 124.002 58.4137Z" fill="#750550"/>
<path opacity="0.2" d="M127.375 60.7598C127.32 60.876 127.272 60.9923 127.224 61.1223C127.179 61.2474 127.142 61.3753 127.115 61.5053L127.457 61.6216L127.71 60.876L127.375 60.7598Z" fill="black"/>
<path d="M128.544 60.1921C128.615 60.2185 128.68 60.2579 128.736 60.3083C128.755 60.3283 128.772 60.3514 128.784 60.3767V60.4315C128.867 60.8034 128.848 61.191 128.727 61.5527C128.607 61.9143 128.39 62.2361 128.1 62.4835H128.052H128.011H127.942H127.874C127.802 62.4999 127.727 62.4999 127.655 62.4835C127.588 62.4621 127.527 62.4245 127.477 62.374C127.245 62.1894 127.21 61.6353 127.416 61.0539C127.621 60.4725 128.038 60.1921 128.332 60.1921C128.402 60.1782 128.474 60.1782 128.544 60.1921Z" fill="#750550"/>
<path opacity="0.3" d="M128.551 60.7461C128.36 60.6777 128.093 60.9513 127.949 61.3548C127.805 61.7584 127.853 62.1346 128.045 62.203C128.236 62.2714 128.312 62.1551 128.442 61.9841C128.25 62.1346 128.059 62.032 128.052 61.7584C128.064 61.4645 128.164 61.1809 128.339 60.9444C128.455 60.8145 128.565 60.7598 128.667 60.8555C128.657 60.8302 128.641 60.8074 128.621 60.7886C128.601 60.7697 128.577 60.7553 128.551 60.7461Z" fill="black"/>
<path d="M121.636 63.5095C121.104 64.0164 120.602 64.5531 120.131 65.1169C120.35 64.9117 120.726 64.7133 120.993 64.8569C121.195 64.9696 121.385 65.1026 121.561 65.2537L121.615 65.3015L121.93 64.9595L121.875 64.9117C121.714 64.7502 121.578 64.5658 121.472 64.3645C121.408 64.2223 121.39 64.064 121.419 63.9111C121.448 63.7581 121.524 63.6179 121.636 63.5095Z" fill="#750550"/>
<path opacity="0.2" d="M121.807 64.8433L121.636 65.0074L121.485 65.1853L121.615 65.3015L121.93 64.9595L121.807 64.8433Z" fill="black"/>
<path d="M122.819 64.7612C122.861 64.7985 122.894 64.8454 122.915 64.898C122.918 64.9115 122.918 64.9255 122.915 64.939C122.919 64.957 122.919 64.9757 122.915 64.9937C122.918 65.0072 122.918 65.0213 122.915 65.0348C122.865 65.3246 122.724 65.5909 122.511 65.794C122.321 66.0192 122.065 66.1795 121.779 66.2523H121.629H121.595C121.539 66.2373 121.487 66.2092 121.444 66.1702C121.406 66.1307 121.376 66.0842 121.355 66.0334C121.253 65.8282 121.403 65.4246 121.725 65.0826C122.046 64.7406 122.443 64.556 122.655 64.6449C122.721 64.6651 122.778 64.7058 122.819 64.7612Z" fill="#750550"/>
<path opacity="0.3" d="M122.655 65.1442C122.539 65.0348 122.265 65.1442 122.039 65.3836C121.814 65.623 121.725 65.9035 121.841 66.0129C121.957 66.1224 122.046 66.0608 122.19 65.9787C122.012 66.0266 121.909 65.8966 121.985 65.6983C122.089 65.4987 122.248 65.3328 122.443 65.2195C122.566 65.1648 122.662 65.1579 122.703 65.2605C122.704 65.2388 122.7 65.2172 122.692 65.1971C122.683 65.1771 122.671 65.159 122.655 65.1442Z" fill="black"/>
<path d="M117.744 66.8268C116.789 66.9937 115.88 67.3596 115.076 67.9007C115.562 67.7913 115.979 67.7844 116.56 69.0293C117.039 70.0485 117.108 70.0964 117.395 70.8214C117.443 70.924 117.484 71.0266 117.525 71.1224L118.209 70.8488C118.168 70.753 118.127 70.6504 118.086 70.541C117.805 69.8159 117.792 69.7407 117.436 68.6805C117.012 67.374 117.32 67.0868 117.744 66.8268Z" fill="#750550"/>
<path opacity="0.2" d="M118.045 70.411C117.922 70.4391 117.8 70.4756 117.682 70.5204C117.566 70.5655 117.454 70.6204 117.347 70.6846L117.525 71.1224L118.209 70.8488C118.161 70.712 118.099 70.5615 118.045 70.411Z" fill="black"/>
<path d="M119.481 70.9445C119.513 71.0251 119.529 71.111 119.529 71.1976C119.529 71.1976 119.529 71.2386 119.529 71.2523C119.529 71.266 119.529 71.2523 119.529 71.2523C119.532 71.2819 119.532 71.3116 119.529 71.3412V71.3823V71.4438C119.276 71.8196 118.906 72.1009 118.476 72.2441C118.063 72.4349 117.601 72.4899 117.156 72.4014H117.087H117.046L116.971 72.3604C116.971 72.3604 116.937 72.3604 116.93 72.3604C116.866 72.3015 116.816 72.2294 116.783 72.1491C116.75 72.0687 116.734 71.9821 116.738 71.8953C116.738 71.5396 117.197 71.0813 117.881 70.8077C118.565 70.5341 119.214 70.5478 119.454 70.8077C119.468 70.8522 119.477 70.898 119.481 70.9445Z" fill="#750550"/>
<path opacity="0.3" d="M119.016 71.3618C118.92 71.1361 118.469 71.1087 118.004 71.3002C117.539 71.4918 117.224 71.8201 117.32 72.039C117.415 72.2578 117.573 72.2442 117.826 72.2236C117.545 72.1758 117.491 71.9227 117.723 71.697C117.998 71.4844 118.328 71.356 118.674 71.3276C118.879 71.3276 119.023 71.3892 119.009 71.5533C119.035 71.4925 119.037 71.4243 119.016 71.3618Z" fill="black"/>
<path d="M112.497 68.2427C111.704 68.0549 110.881 68.0247 110.076 68.1538C110.486 68.2291 110.794 68.7626 110.822 69.8296C110.863 70.1539 110.879 70.481 110.87 70.8077C110.87 70.8967 110.87 70.9787 110.87 71.0608H111.499C111.499 70.9856 111.499 70.8967 111.499 70.8077C111.515 70.4814 111.557 70.1567 111.622 69.8365C111.731 68.7968 112.08 68.2906 112.497 68.2427Z" fill="#750550"/>
<path opacity="0.2" d="M111.492 70.6846C111.387 70.6772 111.282 70.6772 111.177 70.6846C111.073 70.6741 110.967 70.6741 110.863 70.6846C110.863 70.8214 110.863 70.9582 110.863 71.0814H111.492C111.492 70.9582 111.492 70.8283 111.492 70.6846Z" fill="black"/>
<path d="M112.238 71.478C112.235 71.5402 112.219 71.6011 112.19 71.6559L112.149 71.7037H112.108C111.829 71.8672 111.506 71.9412 111.184 71.9158C110.862 71.9188 110.548 71.818 110.288 71.6285H110.247C110.233 71.6119 110.222 71.5935 110.213 71.5738V71.5327C110.191 71.476 110.179 71.4157 110.179 71.3549C110.184 71.2933 110.2 71.2331 110.227 71.1771C110.322 70.9445 110.76 70.7872 111.28 70.8077C111.8 70.8282 112.224 71.0197 112.306 71.2591C112.306 71.3373 112.282 71.4136 112.238 71.478Z" fill="#750550"/>
<path opacity="0.3" d="M111.807 71.608C111.807 71.437 111.526 71.2934 111.171 71.2797C110.815 71.266 110.487 71.3892 110.487 71.5602C110.487 71.7312 110.589 71.7654 110.76 71.8269C110.589 71.7106 110.63 71.5328 110.849 71.4576C111.085 71.3839 111.338 71.3839 111.574 71.4576C111.704 71.5191 111.779 71.5944 111.725 71.697C111.743 71.6883 111.76 71.676 111.774 71.6607C111.789 71.6454 111.8 71.6276 111.807 71.608Z" fill="black"/>
<path d="M107.532 67.5792C106.781 66.9722 105.897 66.5505 104.953 66.348C105.357 66.6421 105.37 67.4903 104.761 68.913C104.269 70.0827 103.756 71.1839 103.393 71.9773C103.334 72.0913 103.279 72.2008 103.229 72.3057L103.913 72.6408C103.961 72.5382 104.016 72.4219 104.077 72.3057C104.467 71.5191 105.028 70.4383 105.651 69.3371C106.376 67.9486 107.053 67.4424 107.532 67.5792Z" fill="#750550"/>
<path opacity="0.2" d="M104.091 72.1826C103.985 72.1132 103.875 72.0493 103.763 71.991C103.65 71.9366 103.534 71.8909 103.414 71.8542C103.346 72.0047 103.27 72.1415 103.209 72.2715L103.893 72.6066C103.968 72.504 104.016 72.333 104.091 72.1826Z" fill="black"/>
<path d="M104.707 73.6874C104.664 73.7688 104.606 73.8409 104.536 73.8994H104.488L104.406 73.9405H104.358H104.283C103.811 73.9747 103.338 73.8825 102.914 73.6733C102.489 73.4641 102.128 73.1455 101.868 72.7503C101.866 72.7275 101.866 72.7047 101.868 72.6819C101.865 72.6661 101.865 72.6499 101.868 72.634C101.862 72.6024 101.862 72.5699 101.868 72.5383C101.861 72.5183 101.861 72.4967 101.868 72.4767C101.869 72.3844 101.89 72.2933 101.93 72.21C101.969 72.1304 102.025 72.0604 102.094 72.0048C102.367 71.7448 103.051 71.7927 103.742 72.1279C104.433 72.463 104.891 72.9897 104.85 73.3591C104.837 73.4806 104.787 73.5951 104.707 73.6874Z" fill="#750550"/>
<path opacity="0.3" d="M104.043 73.6053C104.153 73.3796 103.859 73.0034 103.359 72.7709C102.86 72.5383 102.409 72.5315 102.299 72.7709C102.19 73.0103 102.299 73.1129 102.504 73.2907C102.347 73.0376 102.504 72.8187 102.846 72.8461C103.206 72.9073 103.539 73.0739 103.804 73.3249C103.948 73.4959 104.002 73.6395 103.865 73.749C103.904 73.7407 103.941 73.7233 103.971 73.6984C104.002 73.6734 104.027 73.6416 104.043 73.6053Z" fill="black"/>
<path d="M102.6 64.3781C102.159 63.5758 101.614 62.8353 100.979 62.1757C101.218 62.5792 101.123 63.1127 100.521 63.6531C100.028 64.0909 99.5356 64.4876 99.1526 64.7612L99.0021 64.8775L99.4194 65.452L99.5767 65.3357C99.946 65.069 100.473 64.7133 101.04 64.3781C101.731 63.9677 102.265 64.0361 102.6 64.3781Z" fill="#750550"/>
<path opacity="0.2" d="M99.6589 65.2673C99.6023 65.1647 99.5383 65.0664 99.4674 64.9732C99.3972 64.8757 99.3218 64.7821 99.2416 64.6927L98.9954 64.8774L99.4126 65.452L99.6589 65.2673Z" fill="black"/>
<path d="M99.522 66.396C99.4689 66.4336 99.4082 66.4592 99.3442 66.4712H99.2826C99.2603 66.4781 99.2365 66.4781 99.2142 66.4712H99.18H99.1253C98.8073 66.3492 98.5349 66.1318 98.3456 65.8488C98.1281 65.5861 98.0031 65.2592 97.9899 64.9185V64.8638V64.8022V64.768C98.0201 64.7104 98.0628 64.6602 98.1149 64.6212C98.1669 64.5822 98.2271 64.5552 98.2908 64.5423C98.5439 64.4671 98.9748 64.727 99.2963 65.1648C99.6178 65.6025 99.7341 66.0882 99.5904 66.3139C99.5713 66.3441 99.5483 66.3717 99.522 66.396Z" fill="#750550"/>
<path opacity="0.3" d="M99.1253 66.1223C99.269 66.0197 99.2074 65.6846 98.9817 65.3768C98.7559 65.069 98.455 64.9116 98.2977 65.0142C98.1403 65.1168 98.1951 65.2331 98.2566 65.4178C98.2566 65.1989 98.4139 65.1168 98.6191 65.24C98.8288 65.4002 98.986 65.6193 99.0706 65.8692C99.1048 66.0197 99.0706 66.1292 98.968 66.1565C98.9952 66.1617 99.0231 66.1614 99.0501 66.1555C99.0772 66.1496 99.1027 66.1383 99.1253 66.1223Z" fill="black"/>
<path d="M100.138 60.452C100.155 59.4818 99.8814 58.5286 99.351 57.716C99.351 58.2153 98.5576 58.8514 96.6902 59.467C96.2456 59.6175 95.2675 60.0416 94.2005 60.3494L93.7491 60.4794L93.9474 61.1976L94.4057 61.0744C95.4796 60.7735 96.6355 60.4588 96.9502 60.3904C98.8654 59.898 99.864 60.0142 100.138 60.452Z" fill="#750550"/>
<path opacity="0.2" d="M94.392 61.0471C94.3602 60.7965 94.291 60.5521 94.1868 60.322L93.7354 60.452L93.9337 61.1702L94.392 61.0471Z" fill="black"/>
<path d="M93.6601 62.6749C93.5635 62.6987 93.4626 62.6987 93.366 62.6749H93.2976L93.2018 62.6339H93.1608L93.0855 62.586C92.6928 62.2438 92.4176 61.7868 92.2989 61.2796C92.137 60.784 92.137 60.2498 92.2989 59.7543C92.309 59.7286 92.3204 59.7035 92.3331 59.679C92.3309 59.6631 92.3309 59.647 92.3331 59.6311L92.3947 59.5491L92.4426 59.508C92.5187 59.4432 92.6071 59.3943 92.7025 59.3644C92.7995 59.3443 92.8996 59.3443 92.9966 59.3644C93.4002 59.3644 93.8721 59.9937 94.0979 60.8008C94.3236 61.6079 94.2415 62.3603 93.9132 62.5997C93.8345 62.641 93.7485 62.6665 93.6601 62.6749Z" fill="#750550"/>
<path opacity="0.3" d="M93.2429 62.0799C93.5028 62.0046 93.5917 61.4916 93.4344 60.9308C93.2771 60.3699 92.9351 59.98 92.6683 60.0552C92.4016 60.1305 92.4016 60.3152 92.3947 60.6093C92.4905 60.2946 92.7846 60.2604 93.0103 60.5546C93.2238 60.8939 93.331 61.2893 93.3181 61.69C93.3181 61.9226 93.2087 62.0799 93.0172 62.0457C93.0852 62.0856 93.1661 62.0978 93.2429 62.0799Z" fill="black"/>
<path d="M99.2621 55.5203C99.6126 54.5649 99.7594 53.5468 99.693 52.5312C99.5426 53.0306 98.797 53.3384 97.3811 53.2153C96.2252 53.1195 96.3414 53.1126 95.548 53.0032L95.2128 52.9622L95.1034 53.7351L95.4386 53.783C96.232 53.9061 96.1226 53.9676 97.2443 54.2002C98.6328 54.4943 99.2553 55.0005 99.2621 55.5203Z" fill="#750550"/>
<path opacity="0.2" d="M95.4591 53.7967C95.4591 53.6736 95.5138 53.5436 95.5344 53.4068C95.5549 53.27 95.5343 53.1401 95.5685 53.0169L95.2129 52.9691L95.1034 53.742L95.4591 53.7967Z" fill="black"/>
<path d="M94.392 54.5559C94.3202 54.5497 94.2516 54.5236 94.1937 54.4807H94.1526L94.1047 54.426C94.1068 54.4078 94.1068 54.3894 94.1047 54.3712C93.9612 54.0204 93.9141 53.6375 93.9682 53.2623C94.0223 52.8871 94.1757 52.5332 94.4126 52.2372L94.4604 52.1961L94.5288 52.1551H94.5767C94.6486 52.1377 94.7237 52.1377 94.7956 52.1551C94.8656 52.1644 94.9331 52.1876 94.994 52.2235C95.2539 52.3671 95.3907 52.9075 95.3017 53.5162C95.2128 54.125 94.9324 54.6038 94.6177 54.6654C94.5334 54.6517 94.455 54.6136 94.392 54.5559Z" fill="#750550"/>
<path opacity="0.3" d="M94.3031 54.0361C94.5014 54.0703 94.7135 53.7488 94.775 53.3521C94.8366 52.9553 94.7271 52.5655 94.5219 52.5381C94.3167 52.5107 94.2689 52.6339 94.1799 52.8254C94.3373 52.6475 94.5425 52.7159 94.604 52.9759C94.6433 53.2674 94.5982 53.5641 94.4741 53.8309C94.3851 53.9745 94.2826 54.0566 94.1663 53.9813C94.2045 54.0144 94.2526 54.0336 94.3031 54.0361Z" fill="black"/>
<path d="M100.548 50.0142C100.976 49.4148 101.368 48.7913 101.724 48.1469C101.547 48.3931 101.211 48.6599 100.917 48.5641C100.698 48.4943 100.487 48.4003 100.288 48.2836H100.227L99.9803 48.6735L100.042 48.7146C100.232 48.8391 100.401 48.9939 100.541 49.1729C100.623 49.2974 100.668 49.4432 100.669 49.5925C100.67 49.7418 100.628 49.8883 100.548 50.0142Z" fill="#750550"/>
<path opacity="0.2" d="M100.151 48.735C100.199 48.6739 100.242 48.61 100.281 48.5435C100.324 48.4773 100.363 48.4088 100.398 48.3383L100.254 48.2494L100.008 48.6393L100.151 48.735Z" fill="black"/>
<path opacity="0.3" d="M99.2621 48.5983C99.3921 48.6804 99.6451 48.5231 99.8161 48.2495C99.9871 47.9759 100.028 47.6749 99.8914 47.5655C99.7546 47.456 99.6862 47.5655 99.5562 47.6612C99.7272 47.5791 99.8503 47.6612 99.8161 47.9006C99.7554 48.1183 99.6288 48.3118 99.4536 48.4547C99.3442 48.5367 99.2484 48.5573 99.1937 48.4547C99.1897 48.4827 99.194 48.5113 99.2062 48.5368C99.2184 48.5624 99.2378 48.5838 99.2621 48.5983Z" fill="black"/>
<path opacity="0.1" d="M104.467 66.0881C107.573 68.1401 117.094 68.8241 121.649 60.8829C126.205 52.9416 119.461 45.6297 116.622 44.1385C118.266 44.8182 119.748 45.8377 120.971 47.1301C122.193 48.4225 123.129 49.9586 123.716 51.6379C124.304 53.3171 124.53 55.1016 124.379 56.8742C124.229 58.6469 123.706 60.3678 122.844 61.9241C121.982 63.4805 120.801 64.8372 119.378 65.9052C117.956 66.9733 116.323 67.7286 114.588 68.1218C112.853 68.5149 111.055 68.537 109.31 68.1865C107.566 67.836 105.916 67.121 104.467 66.0881Z" fill="black"/>
<path d="M119.337 55.7939C119.224 56.1794 119.264 56.5938 119.449 56.9506C119.634 57.3074 119.949 57.5791 120.329 57.7091C121.013 57.8254 121.731 57.1619 121.896 56.2248C122.009 55.8393 121.969 55.4249 121.784 55.0681C121.599 54.7113 121.284 54.4396 120.904 54.3096C120.199 54.1933 119.495 54.8568 119.337 55.7939Z" fill="#750550"/>
<path opacity="0.15" d="M119.337 55.7939C119.224 56.1794 119.264 56.5938 119.449 56.9506C119.634 57.3074 119.949 57.5791 120.329 57.7091C121.013 57.8254 121.731 57.1619 121.896 56.2248C122.009 55.8393 121.969 55.4249 121.784 55.0681C121.599 54.7113 121.284 54.4396 120.904 54.3096C120.199 54.1933 119.495 54.8568 119.337 55.7939Z" fill="black"/>
<path opacity="0.15" d="M121.232 54.9389C120.979 54.5696 120.261 54.8432 120.056 55.6982C119.965 55.9715 119.954 56.2652 120.026 56.5442C120.097 56.8233 120.248 57.0757 120.459 57.2714C120.523 57.3027 120.593 57.3211 120.664 57.3253C120.736 57.3295 120.807 57.3196 120.875 57.2961C120.942 57.2725 121.004 57.2359 121.057 57.1882C121.11 57.1405 121.154 57.0828 121.184 57.0183C120.952 57.203 120.644 57.1346 120.466 56.7584C120.361 56.5097 120.318 56.2395 120.339 55.9704C120.36 55.7014 120.446 55.4415 120.589 55.2126C120.781 54.9321 121.068 54.8363 121.232 54.9389Z" fill="black"/>
<path d="M104.351 58.3247C104.242 57.3808 103.571 56.6831 102.86 56.7652C102.149 56.8473 101.663 57.6818 101.772 58.6257C101.882 59.5696 102.552 60.2673 103.284 60.1921C104.016 60.1168 104.461 59.2687 104.351 58.3247Z" fill="#750550"/>
<path opacity="0.15" d="M104.351 58.3247C104.242 57.3808 103.571 56.6831 102.86 56.7652C102.149 56.8473 101.663 57.6818 101.772 58.6257C101.882 59.5696 102.552 60.2673 103.284 60.1921C104.016 60.1168 104.461 59.2687 104.351 58.3247Z" fill="black"/>
<path opacity="0.15" d="M102.771 59.6722C103.12 59.9526 103.729 59.4944 103.688 58.6188C103.647 57.9348 103.264 57.2987 102.86 57.2508C102.79 57.2391 102.718 57.2413 102.649 57.2573C102.58 57.2733 102.514 57.3028 102.457 57.3441C102.399 57.3854 102.35 57.4377 102.312 57.4979C102.275 57.5582 102.249 57.6254 102.238 57.6954C102.409 57.456 102.716 57.4355 102.997 57.7502C103.158 57.9578 103.267 58.2002 103.317 58.4581C103.367 58.7159 103.356 58.9818 103.284 59.2344C103.209 59.5559 102.983 59.7201 102.771 59.6722Z" fill="black"/>
<path d="M112.333 51.8541C112.643 51.9879 112.993 51.9964 113.31 51.8778C113.626 51.7592 113.884 51.5227 114.03 51.218C114.201 50.6434 113.715 49.9936 112.949 49.7679C112.64 49.6336 112.29 49.6241 111.974 49.7414C111.658 49.8586 111.399 50.0936 111.253 50.3972C111.082 50.9717 111.567 51.6284 112.333 51.8541Z" fill="#750550"/>
<path opacity="0.15" d="M112.333 51.8541C112.643 51.9879 112.993 51.9964 113.31 51.8778C113.626 51.7592 113.884 51.5227 114.03 51.218C114.201 50.6434 113.715 49.9936 112.949 49.7679C112.64 49.6336 112.29 49.6241 111.974 49.7414C111.658 49.8586 111.399 50.0936 111.253 50.3972C111.082 50.9717 111.567 51.6284 112.333 51.8541Z" fill="black"/>
<path opacity="0.15" d="M111.813 50.1851C111.478 50.363 111.629 50.9854 112.326 51.2453C112.546 51.3547 112.794 51.3963 113.038 51.3646C113.281 51.3329 113.51 51.2295 113.694 51.0675C113.727 51.0173 113.75 50.9612 113.761 50.9022C113.772 50.8433 113.771 50.7827 113.758 50.7242C113.745 50.6656 113.721 50.6101 113.687 50.561C113.652 50.5119 113.608 50.4702 113.558 50.4382C113.688 50.6502 113.606 50.8965 113.27 51.0059C113.053 51.0699 112.823 51.0803 112.6 51.0362C112.377 50.9922 112.168 50.8949 111.991 50.7528C111.759 50.5613 111.711 50.3356 111.813 50.1851Z" fill="black"/>
<path d="M113.462 58.9266C112.614 59.3576 112.183 60.2194 112.511 60.8555C112.84 61.4916 113.777 61.6695 114.632 61.2386C115.487 60.8076 115.904 59.9458 115.582 59.3097C115.261 58.6736 114.31 58.5026 113.462 58.9266Z" fill="#750550"/>
<path opacity="0.15" d="M113.462 58.9266C112.614 59.3576 112.183 60.2194 112.511 60.8555C112.84 61.4916 113.777 61.6695 114.632 61.2386C115.487 60.8076 115.904 59.9458 115.582 59.3097C115.261 58.6736 114.31 58.5026 113.462 58.9266Z" fill="black"/>
<path opacity="0.15" d="M115.275 59.9526C115.418 59.5217 114.775 59.1045 113.968 59.4533C113.325 59.7201 112.874 60.3015 112.935 60.705C112.948 60.775 112.974 60.8418 113.012 60.9015C113.051 60.9613 113.101 61.0127 113.159 61.0528C113.218 61.093 113.284 61.121 113.353 61.1353C113.423 61.1496 113.495 61.1498 113.565 61.136C113.284 61.0607 113.154 60.7803 113.359 60.4109C113.496 60.1782 113.686 59.9819 113.915 59.839C114.144 59.696 114.404 59.6106 114.673 59.5901C115.015 59.5764 115.24 59.7338 115.275 59.9526Z" fill="black"/>
<path d="M114.276 48.1742C114.655 48.3215 115.077 48.3145 115.452 48.1547C115.826 47.995 116.124 47.6951 116.28 47.3192C116.444 46.6352 115.829 45.8759 114.912 45.6571C113.995 45.4382 113.099 45.8212 112.935 46.5189C112.771 47.2166 113.346 47.9553 114.276 48.1742Z" fill="#750550"/>
<path opacity="0.15" d="M114.276 48.1742C114.655 48.3215 115.077 48.3145 115.452 48.1547C115.826 47.995 116.124 47.6951 116.28 47.3192C116.444 46.6352 115.829 45.8759 114.912 45.6571C113.995 45.4382 113.099 45.8212 112.935 46.5189C112.771 47.2166 113.346 47.9553 114.276 48.1742Z" fill="black"/>
<path opacity="0.15" d="M113.544 46.2248C113.161 46.4642 113.38 47.1961 114.228 47.4492C114.493 47.5625 114.785 47.5957 115.068 47.5446C115.351 47.4936 115.613 47.3605 115.822 47.1619C115.894 47.0366 115.914 46.8879 115.876 46.7482C115.839 46.6085 115.748 46.4892 115.623 46.4163C115.788 46.6626 115.706 46.9635 115.309 47.1003C115.054 47.1881 114.782 47.2135 114.515 47.1742C114.249 47.1349 113.995 47.0322 113.777 46.8746C113.51 46.6762 113.435 46.4095 113.544 46.2248Z" fill="black"/>
<path d="M108.551 58.1401C108.339 58.0711 108.112 58.0625 107.896 58.1152C107.68 58.168 107.482 58.2801 107.326 58.4388C107.17 58.5976 107.061 58.7968 107.012 59.0139C106.963 59.2311 106.976 59.4577 107.048 59.6682C107.121 59.8787 107.251 60.0648 107.423 60.2056C107.596 60.3463 107.804 60.4362 108.025 60.465C108.246 60.4939 108.47 60.4606 108.673 60.3688C108.876 60.2771 109.049 60.1306 109.173 59.9458C109.325 59.6231 109.346 59.2537 109.229 58.9163C109.113 58.579 108.87 58.3004 108.551 58.1401Z" fill="#750550"/>
<path opacity="0.15" d="M108.551 58.1401C108.339 58.0711 108.112 58.0625 107.896 58.1152C107.68 58.168 107.482 58.2801 107.326 58.4388C107.17 58.5976 107.061 58.7968 107.012 59.0139C106.963 59.2311 106.976 59.4577 107.048 59.6682C107.121 59.8787 107.251 60.0648 107.423 60.2056C107.596 60.3463 107.804 60.4362 108.025 60.465C108.246 60.4939 108.47 60.4606 108.673 60.3688C108.876 60.2771 109.049 60.1306 109.173 59.9458C109.325 59.6231 109.346 59.2537 109.229 58.9163C109.113 58.579 108.87 58.3004 108.551 58.1401Z" fill="black"/>
<path opacity="0.15" d="M108.544 59.9526C108.934 59.8774 108.982 59.2071 108.359 58.7283C108.174 58.555 107.942 58.439 107.692 58.3941C107.442 58.3493 107.185 58.3774 106.95 58.4752C106.9 58.5149 106.858 58.5646 106.827 58.6211C106.796 58.6777 106.778 58.7399 106.772 58.8039C106.766 58.868 106.774 58.9325 106.794 58.9936C106.814 59.0547 106.846 59.1111 106.889 59.1592C106.827 58.9061 106.984 58.6872 107.361 58.6804C107.601 58.6891 107.835 58.7558 108.043 58.875C108.252 58.9941 108.428 59.1621 108.558 59.3644C108.715 59.5901 108.694 59.8364 108.544 59.9526Z" fill="black"/>
<path d="M105.254 52.8733C105.979 51.7721 105.897 50.4383 105.076 49.8911C104.255 49.3439 102.983 49.7885 102.258 50.8897C101.533 51.9909 101.608 53.3247 102.436 53.8719C103.263 54.4191 104.529 53.9677 105.254 52.8733Z" fill="#750550"/>
<path opacity="0.15" d="M105.254 52.8733C105.979 51.7721 105.897 50.4383 105.076 49.8911C104.255 49.3439 102.983 49.7885 102.258 50.8897C101.533 51.9909 101.608 53.3247 102.436 53.8719C103.263 54.4191 104.529 53.9677 105.254 52.8733Z" fill="black"/>
<path opacity="0.15" d="M102.374 52.8869C102.491 53.4957 103.551 53.5709 104.289 52.586C104.871 51.8131 105.015 50.8144 104.666 50.3698C104.602 50.2936 104.525 50.2307 104.437 50.1849C104.349 50.1391 104.253 50.1112 104.154 50.103C104.056 50.0947 103.956 50.1061 103.862 50.1367C103.768 50.1673 103.681 50.2163 103.605 50.2809C104.002 50.1851 104.351 50.4314 104.358 51.0128C104.356 51.3862 104.263 51.7536 104.087 52.0827C103.91 52.4118 103.656 52.6926 103.346 52.9006C102.942 53.1537 102.559 53.1263 102.374 52.8869Z" fill="black"/>
<path d="M117.983 61.3822C117.89 61.5461 117.845 61.7326 117.852 61.9208C117.859 62.109 117.919 62.2915 118.024 62.4477C118.13 62.6038 118.276 62.7275 118.448 62.8049C118.62 62.8822 118.81 62.91 118.997 62.8853C119.183 62.8605 119.36 62.7842 119.505 62.6648C119.651 62.5455 119.76 62.3878 119.821 62.2096C119.882 62.0314 119.893 61.8397 119.851 61.6561C119.809 61.4724 119.716 61.3042 119.584 61.1702C119.341 60.9914 119.039 60.9136 118.741 60.9531C118.442 60.9927 118.171 61.1465 117.983 61.3822Z" fill="#750550"/>
<path opacity="0.15" d="M117.983 61.3822C117.89 61.5461 117.845 61.7326 117.852 61.9208C117.859 62.109 117.919 62.2915 118.024 62.4477C118.13 62.6038 118.276 62.7275 118.448 62.8049C118.62 62.8822 118.81 62.91 118.997 62.8853C119.183 62.8605 119.36 62.7842 119.505 62.6648C119.651 62.5455 119.76 62.3878 119.821 62.2096C119.882 62.0314 119.893 61.8397 119.851 61.6561C119.809 61.4724 119.716 61.3042 119.584 61.1702C119.341 60.9914 119.039 60.9136 118.741 60.9531C118.442 60.9927 118.171 61.1465 117.983 61.3822Z" fill="black"/>
<path opacity="0.15" d="M119.509 61.6968C119.509 61.3617 118.961 61.2112 118.462 61.6353C118.286 61.7598 118.151 61.9329 118.072 62.1333C117.993 62.3338 117.974 62.5529 118.017 62.7639C118.042 62.8113 118.076 62.8533 118.117 62.8874C118.158 62.9215 118.205 62.9469 118.256 62.9622C118.307 62.9776 118.361 62.9824 118.414 62.9766C118.467 62.9707 118.518 62.9542 118.565 62.928C118.346 62.928 118.188 62.7639 118.25 62.4561C118.292 62.2543 118.384 62.0664 118.518 61.9098C118.652 61.7532 118.823 61.6329 119.016 61.56C119.101 61.5211 119.197 61.5135 119.287 61.5386C119.377 61.5636 119.456 61.6196 119.509 61.6968Z" fill="black"/>
<path d="M112.238 63.4752C111.273 63.5573 110.541 64.214 110.61 64.939C110.678 65.664 111.506 66.1839 112.47 66.1018C113.435 66.0197 114.16 65.3562 114.098 64.6312C114.036 63.9062 113.202 63.3863 112.238 63.4752Z" fill="#750550"/>
<path opacity="0.15" d="M112.238 63.4752C111.273 63.5573 110.541 64.214 110.61 64.939C110.678 65.664 111.506 66.1839 112.47 66.1018C113.435 66.0197 114.16 65.3562 114.098 64.6312C114.036 63.9062 113.202 63.3863 112.238 63.4752Z" fill="black"/>
<path opacity="0.15" d="M113.544 65.1168C113.838 64.768 113.394 64.1319 112.498 64.1592C111.814 64.1592 111.13 64.5491 111.047 64.9527C111.028 65.0265 111.025 65.1034 111.037 65.1787C111.049 65.254 111.076 65.3259 111.117 65.3901C111.158 65.4543 111.212 65.5094 111.275 65.5518C111.339 65.5942 111.41 65.6231 111.485 65.6367C111.246 65.452 111.232 65.1374 111.56 64.8706C111.777 64.701 112.031 64.5869 112.302 64.538C112.573 64.4891 112.851 64.507 113.113 64.5902C113.455 64.6722 113.612 64.9048 113.544 65.1168Z" fill="black"/>
<path d="M106.848 62.9281C106.671 62.7459 106.431 62.6376 106.177 62.6249C105.923 62.6122 105.674 62.6961 105.48 62.8597C105.38 63.0914 105.357 63.3494 105.416 63.595C105.474 63.8406 105.611 64.0606 105.805 64.2222C105.999 64.3839 106.24 64.4784 106.492 64.4917C106.744 64.505 106.994 64.4364 107.203 64.2961C107.334 64.0667 107.37 63.7953 107.304 63.5397C107.237 63.2842 107.074 63.0647 106.848 62.9281Z" fill="#750550"/>
<path opacity="0.15" d="M106.848 62.9281C106.671 62.7459 106.431 62.6376 106.177 62.6249C105.923 62.6122 105.674 62.6961 105.48 62.8597C105.38 63.0914 105.357 63.3494 105.416 63.595C105.474 63.8406 105.611 64.0606 105.805 64.2222C105.999 64.3839 106.24 64.4784 106.492 64.4917C106.744 64.505 106.994 64.4364 107.203 64.2961C107.334 64.0667 107.37 63.7953 107.304 63.5397C107.237 63.2842 107.074 63.0647 106.848 62.9281Z" fill="black"/>
<path opacity="0.15" d="M106.704 64.2961C106.998 64.2961 107.08 63.7762 106.663 63.3864C106.54 63.2438 106.378 63.1401 106.197 63.0879C106.016 63.0357 105.824 63.0372 105.644 63.0922C105.566 63.145 105.512 63.2264 105.494 63.3187C105.476 63.411 105.496 63.5066 105.548 63.5847C105.548 63.3932 105.657 63.2427 105.931 63.2701C106.105 63.2909 106.272 63.3541 106.416 63.4543C106.561 63.5544 106.678 63.6885 106.759 63.8446C106.861 64.0088 106.827 64.1866 106.704 64.2961Z" fill="black"/>
<path d="M108.872 47.5244C109.007 47.5209 109.139 47.4862 109.259 47.4232C109.378 47.3601 109.481 47.2703 109.56 47.1609C109.639 47.0514 109.691 46.9253 109.713 46.7922C109.735 46.6591 109.726 46.5227 109.687 46.3937C109.647 46.2647 109.579 46.1465 109.486 46.0484C109.394 45.9503 109.28 45.8749 109.153 45.8281C109.027 45.7813 108.891 45.7643 108.757 45.7786C108.623 45.7928 108.494 45.8379 108.38 45.9102C107.792 46.088 107.415 46.5942 107.552 47.0456C107.668 47.2807 107.87 47.4618 108.116 47.5511C108.362 47.6404 108.633 47.6308 108.872 47.5244Z" fill="#750550"/>
<path opacity="0.15" d="M108.872 47.5244C109.007 47.5209 109.139 47.4862 109.259 47.4232C109.378 47.3601 109.481 47.2703 109.56 47.1609C109.639 47.0514 109.691 46.9253 109.713 46.7922C109.735 46.6591 109.726 46.5227 109.687 46.3937C109.647 46.2647 109.579 46.1465 109.486 46.0484C109.394 45.9503 109.28 45.8749 109.153 45.8281C109.027 45.7813 108.891 45.7643 108.757 45.7786C108.623 45.7928 108.494 45.8379 108.38 45.9102C107.792 46.088 107.415 46.5942 107.552 47.0456C107.668 47.2807 107.87 47.4618 108.116 47.5511C108.362 47.6404 108.633 47.6308 108.872 47.5244Z" fill="black"/>
<path opacity="0.15" d="M107.826 46.6694C107.682 46.9293 108.052 47.2644 108.612 47.1345C109.05 47.0319 109.406 46.7104 109.413 46.4505C109.413 46.4035 109.403 46.357 109.385 46.3138C109.366 46.2705 109.34 46.2314 109.306 46.1989C109.272 46.1663 109.232 46.1409 109.188 46.1242C109.144 46.1075 109.097 46.0998 109.05 46.1016C109.228 46.1837 109.276 46.3752 109.105 46.5941C108.99 46.7275 108.845 46.8313 108.682 46.8968C108.519 46.9622 108.343 46.9875 108.168 46.9703C107.949 46.9361 107.819 46.8062 107.826 46.6694Z" fill="black"/>
<path d="M115.596 54.4054C115.549 54.6634 115.604 54.9294 115.75 55.1476C115.895 55.3658 116.12 55.519 116.376 55.575C116.848 55.575 117.251 55.1167 117.285 54.5011C117.327 54.2472 117.27 53.9872 117.126 53.7737C116.983 53.5603 116.763 53.4095 116.513 53.352C116.047 53.3041 115.644 53.7898 115.596 54.4054Z" fill="#750550"/>
<path opacity="0.15" d="M115.596 54.4054C115.549 54.6634 115.604 54.9294 115.75 55.1476C115.895 55.3658 116.12 55.519 116.376 55.575C116.848 55.575 117.251 55.1167 117.285 54.5011C117.327 54.2472 117.27 53.9872 117.126 53.7737C116.983 53.5603 116.763 53.4095 116.513 53.352C116.047 53.3041 115.644 53.7898 115.596 54.4054Z" fill="black"/>
<path opacity="0.15" d="M116.779 53.7146C116.581 53.4957 116.136 53.7146 116.095 54.2891C116.056 54.4731 116.071 54.6645 116.137 54.8405C116.204 55.0164 116.32 55.1693 116.472 55.2809C116.515 55.297 116.562 55.3041 116.609 55.3018C116.656 55.2994 116.702 55.2877 116.744 55.2673C116.786 55.2468 116.823 55.2181 116.854 55.1829C116.885 55.1476 116.908 55.1065 116.923 55.0621C116.786 55.1989 116.581 55.1783 116.444 54.9458C116.355 54.7945 116.305 54.6236 116.298 54.4482C116.291 54.2728 116.327 54.0983 116.403 53.9403C116.485 53.7419 116.643 53.6599 116.779 53.7146Z" fill="black"/>
<path d="M108.209 53.5504C108.26 53.3983 108.269 53.2349 108.234 53.0782C108.198 52.9215 108.121 52.7775 108.009 52.662C107.897 52.5465 107.756 52.464 107.601 52.4234C107.445 52.3828 107.282 52.3857 107.128 52.4319C106.974 52.478 106.836 52.5656 106.728 52.6851C106.621 52.8045 106.548 52.9512 106.519 53.109C106.489 53.2669 106.504 53.4299 106.56 53.5801C106.617 53.7303 106.714 53.8621 106.841 53.9608C106.958 54.0243 107.086 54.0641 107.218 54.0778C107.35 54.0915 107.483 54.0789 107.61 54.0407C107.738 54.0026 107.856 53.9396 107.959 53.8555C108.061 53.7713 108.146 53.6676 108.209 53.5504Z" fill="#750550"/>
<path opacity="0.15" d="M108.209 53.5504C108.26 53.3983 108.269 53.2349 108.234 53.0782C108.198 52.9215 108.121 52.7775 108.009 52.662C107.897 52.5465 107.756 52.464 107.601 52.4234C107.445 52.3828 107.282 52.3857 107.128 52.4319C106.974 52.478 106.836 52.5656 106.728 52.6851C106.621 52.8045 106.548 52.9512 106.519 53.109C106.489 53.2669 106.504 53.4299 106.56 53.5801C106.617 53.7303 106.714 53.8621 106.841 53.9608C106.958 54.0243 107.086 54.0641 107.218 54.0778C107.35 54.0915 107.483 54.0789 107.61 54.0407C107.738 54.0026 107.856 53.9396 107.959 53.8555C108.061 53.7713 108.146 53.6676 108.209 53.5504Z" fill="black"/>
<path opacity="0.15" d="M106.854 53.5025C106.902 53.7898 107.395 53.8377 107.764 53.3999C107.895 53.2666 107.986 53.0988 108.026 52.9161C108.066 52.7333 108.054 52.543 107.99 52.3671C107.962 52.3297 107.926 52.2983 107.886 52.2747C107.846 52.251 107.801 52.2355 107.754 52.2292C107.708 52.2228 107.661 52.2257 107.616 52.2376C107.57 52.2495 107.528 52.2703 107.491 52.2987C107.682 52.2987 107.839 52.3876 107.833 52.6612C107.822 52.8371 107.77 53.008 107.679 53.1593C107.589 53.3105 107.463 53.4376 107.313 53.5299C107.246 53.5815 107.163 53.6072 107.078 53.6022C106.994 53.5972 106.915 53.5618 106.854 53.5025Z" fill="black"/>
<path d="M118.838 50.1441C118.967 50.3781 119.182 50.5522 119.438 50.629C119.694 50.7057 119.97 50.679 120.206 50.5545C120.432 50.4669 120.625 50.3109 120.758 50.1084C120.891 49.9059 120.957 49.6668 120.948 49.4247C120.938 49.1826 120.853 48.9495 120.705 48.758C120.557 48.5665 120.352 48.4262 120.12 48.3565C119.888 48.2869 119.64 48.2915 119.411 48.3697C119.181 48.4479 118.982 48.5958 118.841 48.7927C118.7 48.9896 118.624 49.2257 118.623 49.4679C118.623 49.7102 118.698 49.9466 118.838 50.1441Z" fill="#750550"/>
<path opacity="0.15" d="M118.838 50.1441C118.967 50.3781 119.182 50.5522 119.438 50.629C119.694 50.7057 119.97 50.679 120.206 50.5545C120.432 50.4669 120.625 50.3109 120.758 50.1084C120.891 49.9059 120.957 49.6668 120.948 49.4247C120.938 49.1826 120.853 48.9495 120.705 48.758C120.557 48.5665 120.352 48.4262 120.12 48.3565C119.888 48.2869 119.64 48.2915 119.411 48.3697C119.181 48.4479 118.982 48.5958 118.841 48.7927C118.7 48.9896 118.624 49.2257 118.623 49.4679C118.623 49.7102 118.698 49.9466 118.838 50.1441Z" fill="black"/>
<path opacity="0.15" d="M119.31 48.8719C119.016 48.824 118.818 49.2823 119.125 49.7679C119.372 50.1509 119.809 50.3767 120.042 50.2946C120.129 50.2622 120.201 50.1967 120.24 50.1123C120.28 50.0278 120.285 49.9312 120.254 49.8431C120.254 50.0347 120.062 50.1441 119.803 50.0552C119.636 49.9928 119.487 49.8913 119.368 49.7591C119.249 49.627 119.163 49.4681 119.119 49.2959C119.098 49.0771 119.173 48.9129 119.31 48.8719Z" fill="black"/>
<path d="M110.432 56.9294C110.71 57.1415 111.047 57.2635 111.396 57.2791C111.746 57.2946 112.092 57.203 112.388 57.0164C112.684 56.8298 112.916 56.5572 113.053 56.2351C113.19 55.913 113.225 55.5568 113.153 55.2142C113.082 54.8716 112.908 54.559 112.654 54.3182C112.4 54.0774 112.079 53.9199 111.733 53.8669C111.387 53.8139 111.033 53.8679 110.718 54.0216C110.404 54.1753 110.144 54.4214 109.974 54.7269C109.745 55.0805 109.665 55.51 109.751 55.9223C109.836 56.3345 110.081 56.6964 110.432 56.9294Z" fill="#750550"/>
<path opacity="0.15" d="M110.432 56.9294C110.71 57.1415 111.047 57.2635 111.396 57.2791C111.746 57.2946 112.092 57.203 112.388 57.0164C112.684 56.8298 112.916 56.5572 113.053 56.2351C113.19 55.913 113.225 55.5568 113.153 55.2142C113.082 54.8716 112.908 54.559 112.654 54.3182C112.4 54.0774 112.079 53.9199 111.733 53.8669C111.387 53.8139 111.033 53.8679 110.718 54.0216C110.404 54.1753 110.144 54.4214 109.974 54.7269C109.745 55.0805 109.665 55.51 109.751 55.9223C109.836 56.3345 110.081 56.6964 110.432 56.9294Z" fill="black"/>
<path opacity="0.15" d="M111.396 54.2618C111.93 54.2618 112.415 54.809 112.258 55.6298C112.101 56.4506 111.02 57.0388 110.493 56.4985C110.766 56.4788 111.028 56.3866 111.253 56.2315C111.478 56.0763 111.657 55.8639 111.773 55.6161C111.841 55.5035 111.885 55.3781 111.903 55.2477C111.921 55.1172 111.913 54.9845 111.877 54.8576C111.842 54.7307 111.781 54.6124 111.698 54.5099C111.616 54.4074 111.513 54.323 111.396 54.2618Z" fill="black"/>
<path d="M173.736 120.528C173.877 120.535 174.016 120.498 174.136 120.422C174.255 120.347 174.347 120.236 174.401 120.106C174.455 119.976 174.468 119.832 174.437 119.694C174.406 119.557 174.333 119.432 174.229 119.338L173.483 118.599C173.418 118.535 173.342 118.484 173.257 118.449C173.173 118.415 173.083 118.397 172.992 118.397C172.9 118.398 172.81 118.416 172.726 118.451C172.642 118.486 172.566 118.538 172.501 118.602C172.437 118.667 172.386 118.744 172.352 118.828C172.317 118.912 172.3 119.003 172.3 119.094C172.3 119.185 172.318 119.275 172.354 119.359C172.389 119.443 172.44 119.52 172.505 119.584L173.244 120.322C173.308 120.388 173.384 120.44 173.469 120.475C173.554 120.51 173.644 120.528 173.736 120.528Z" fill="#E0E0E0"/>
<path d="M170.193 116.964C170.334 116.971 170.473 116.934 170.592 116.859C170.712 116.783 170.804 116.673 170.858 116.542C170.912 116.412 170.925 116.268 170.894 116.131C170.863 115.993 170.79 115.869 170.685 115.774L169.276 114.406C169.146 114.275 168.969 114.202 168.784 114.202C168.599 114.202 168.422 114.275 168.291 114.406C168.161 114.536 168.087 114.714 168.087 114.898C168.087 115.083 168.161 115.26 168.291 115.391L169.7 116.759C169.765 116.824 169.841 116.876 169.926 116.911C170.01 116.947 170.101 116.965 170.193 116.964ZM165.973 112.751C166.113 112.756 166.251 112.718 166.369 112.642C166.487 112.566 166.579 112.455 166.632 112.326C166.685 112.196 166.697 112.052 166.666 111.916C166.635 111.779 166.562 111.655 166.458 111.56L165.056 110.192C164.926 110.062 164.748 109.988 164.564 109.988C164.379 109.988 164.202 110.062 164.071 110.192C163.941 110.323 163.867 110.5 163.867 110.685C163.867 110.87 163.941 111.047 164.071 111.177L165.48 112.586C165.546 112.648 165.623 112.696 165.708 112.728C165.792 112.76 165.882 112.774 165.973 112.771V112.751ZM161.746 108.544C161.886 108.551 162.026 108.514 162.145 108.439C162.264 108.363 162.357 108.253 162.411 108.122C162.465 107.992 162.477 107.848 162.446 107.711C162.415 107.573 162.343 107.448 162.238 107.354L160.829 105.986C160.764 105.922 160.688 105.871 160.603 105.836C160.519 105.802 160.429 105.784 160.338 105.784C160.246 105.785 160.156 105.803 160.072 105.838C159.988 105.873 159.912 105.925 159.847 105.989C159.783 106.054 159.732 106.131 159.698 106.215C159.663 106.299 159.646 106.39 159.646 106.481C159.646 106.572 159.664 106.662 159.7 106.746C159.735 106.83 159.786 106.907 159.851 106.971L161.253 108.339C161.315 108.408 161.391 108.464 161.476 108.502C161.561 108.541 161.652 108.562 161.746 108.565V108.544ZM157.525 104.331C157.666 104.337 157.806 104.301 157.925 104.225C158.044 104.15 158.137 104.039 158.191 103.909C158.245 103.779 158.257 103.635 158.226 103.497C158.195 103.36 158.122 103.235 158.018 103.14L156.609 101.772C156.477 101.642 156.299 101.569 156.114 101.569C155.928 101.57 155.751 101.644 155.62 101.776C155.49 101.907 155.417 102.085 155.417 102.271C155.418 102.456 155.492 102.634 155.624 102.764L157.033 104.166C157.099 104.228 157.176 104.276 157.261 104.308C157.345 104.34 157.435 104.354 157.525 104.351V104.331ZM153.305 100.124C153.445 100.129 153.584 100.091 153.702 100.015C153.82 99.9393 153.911 99.8288 153.964 99.6989C154.017 99.5689 154.029 99.4258 153.998 99.2889C153.967 99.1521 153.895 99.0281 153.791 98.9338L152.423 97.5658C152.292 97.4352 152.115 97.3618 151.93 97.3618C151.745 97.3618 151.568 97.4352 151.438 97.5658C151.307 97.6964 151.234 97.8736 151.234 98.0583C151.234 98.243 151.307 98.4201 151.438 98.5507L152.847 99.9529C152.97 100.072 153.134 100.14 153.305 100.144V100.124ZM149.078 95.9173C149.219 95.9242 149.358 95.8874 149.477 95.8119C149.596 95.7364 149.689 95.626 149.743 95.4957C149.797 95.3654 149.809 95.2216 149.779 95.0841C149.748 94.9465 149.675 94.8218 149.57 94.7272L148.161 93.3181C148.03 93.1875 147.852 93.1145 147.666 93.1152C147.481 93.1158 147.304 93.19 147.173 93.3216C147.042 93.4531 146.969 93.6311 146.97 93.8165C146.971 94.0018 147.045 94.1793 147.176 94.3099L148.585 95.76C148.652 95.8206 148.729 95.8674 148.814 95.8979C148.898 95.9285 148.988 95.942 149.078 95.9379V95.9173ZM144.858 91.7039C144.998 91.7108 145.138 91.6739 145.257 91.5985C145.376 91.523 145.469 91.4125 145.523 91.2822C145.577 91.152 145.589 91.0082 145.558 90.8706C145.527 90.7331 145.455 90.6084 145.35 90.5137L143.941 89.1115C143.81 88.9809 143.633 88.9076 143.449 88.9076C143.264 88.9076 143.087 88.9809 142.956 89.1115C142.825 89.2422 142.752 89.4193 142.752 89.604C142.752 89.7887 142.825 89.9659 142.956 90.0965L144.365 91.4987C144.428 91.5679 144.503 91.6236 144.588 91.6624C144.673 91.7012 144.764 91.7223 144.858 91.7244V91.7039ZM140.63 87.552C140.771 87.5589 140.911 87.5221 141.03 87.4466C141.149 87.3711 141.242 87.2607 141.296 87.1304C141.35 87.0001 141.362 86.8563 141.331 86.7187C141.3 86.5812 141.227 86.4565 141.123 86.3619L139.721 84.9939C139.59 84.8633 139.413 84.7899 139.228 84.7899C139.044 84.7899 138.866 84.8633 138.736 84.9939C138.605 85.1245 138.532 85.3016 138.532 85.4863C138.532 85.6711 138.605 85.8482 138.736 85.9788L140.145 87.381C140.278 87.4991 140.453 87.5605 140.63 87.552ZM136.41 83.3386C136.551 83.3455 136.691 83.3086 136.81 83.2331C136.929 83.1577 137.022 83.0472 137.076 82.9169C137.129 82.7866 137.142 82.6429 137.111 82.5053C137.08 82.3677 137.007 82.2431 136.903 82.1484L135.494 80.7804C135.43 80.7142 135.353 80.6616 135.269 80.6256C135.184 80.5896 135.093 80.5711 135.001 80.5711C134.909 80.5711 134.818 80.5896 134.734 80.6256C134.649 80.6616 134.572 80.7142 134.509 80.7804C134.442 80.8442 134.39 80.9207 134.354 81.0053C134.318 81.09 134.299 81.181 134.299 81.2729C134.299 81.3648 134.318 81.4558 134.354 81.5405C134.39 81.6251 134.442 81.7016 134.509 81.7654L135.918 83.1334C136.053 83.2532 136.23 83.3146 136.41 83.3044V83.3386Z" fill="#E0E0E0"/>
<path d="M132.19 79.0978C132.331 79.1046 132.47 79.0678 132.589 78.9923C132.708 78.9169 132.801 78.8064 132.855 78.6761C132.909 78.5458 132.921 78.4021 132.89 78.2645C132.86 78.1269 132.787 78.0023 132.682 77.9076L131.944 77.1689C131.813 77.0383 131.636 76.9649 131.451 76.9649C131.266 76.9649 131.089 77.0383 130.959 77.1689C130.828 77.2995 130.755 77.4767 130.755 77.6614C130.755 77.8461 130.828 78.0232 130.959 78.1539L131.697 78.8926C131.762 78.958 131.838 79.0099 131.923 79.0452C132.007 79.0804 132.098 79.0983 132.19 79.0978Z" fill="#E0E0E0"/>
<path d="M112.019 83.195C113.346 83.1943 114.672 83.0983 115.986 82.9077C122.996 81.8838 129.335 78.181 133.67 72.5784C138.005 66.9757 139.998 59.91 139.23 52.8678C138.462 45.8255 134.992 39.3557 129.551 34.8197C124.11 30.2836 117.121 28.0348 110.055 28.5464C102.99 29.0581 96.3983 32.2902 91.6673 37.5629C86.9363 42.8356 84.4348 49.7378 84.6892 56.8173C84.9435 63.8967 87.9338 70.6016 93.031 75.5212C98.1281 80.4408 104.935 83.1917 112.019 83.195ZM112.108 30.3012C117.805 30.3159 123.331 32.2526 127.791 35.7981C132.251 39.3436 135.385 44.2903 136.684 49.8378C137.983 55.3853 137.373 61.2089 134.951 66.3662C132.529 71.5235 128.438 75.7127 123.339 78.256C118.241 80.7992 112.433 81.5476 106.857 80.3801C101.28 79.2126 96.2605 76.1975 92.6104 71.8226C88.9602 67.4478 86.8931 61.9693 86.7435 56.2737C86.5939 50.578 88.3706 44.9985 91.786 40.4381C94.1455 37.2779 97.2129 34.7147 100.742 32.9543C104.271 31.1939 108.164 30.2852 112.108 30.3012Z" fill="#E8AFCE"/>
<path d="M129.974 36.4278L131.578 37.9274L95.5951 76.4062L93.9914 74.9065L129.974 36.4278Z" fill="#E8AFCE"/>
</svg>
