<svg width="500" height="500" viewBox="0 0 500 500" fill="none" xmlns="http://www.w3.org/2000/svg">
<path d="M500 382.4H0V382.65H500V382.4Z" fill="#EBEBEB"/>
<path d="M321.52 396.34H288.4V396.59H321.52V396.34Z" fill="#EBEBEB"/>
<path d="M415.77 393.63H407.08V393.88H415.77V393.63Z" fill="#EBEBEB"/>
<path d="M396.59 389.21H327.67V389.46H396.59V389.21Z" fill="#EBEBEB"/>
<path d="M225.14 395.11H194.84V395.36H225.14V395.11Z" fill="#EBEBEB"/>
<path d="M185.94 395.11H166.72V395.36H185.94V395.11Z" fill="#EBEBEB"/>
<path d="M99.3 390.89H52.46V391.14H99.3V390.89Z" fill="#EBEBEB"/>
<path d="M237 337.8H43.91C42.3974 337.797 40.9476 337.195 39.8789 336.124C38.8102 335.053 38.21 333.603 38.21 332.09V60.66C38.2232 59.156 38.8292 57.718 39.8965 56.6582C40.9637 55.5985 42.406 55.0026 43.91 55H237C238.514 55 239.967 55.6016 241.038 56.6724C242.108 57.7433 242.71 59.1956 242.71 60.71V332.09C242.71 333.604 242.108 335.057 241.038 336.128C239.967 337.198 238.514 337.8 237 337.8ZM43.91 55.2C42.4637 55.2026 41.0775 55.7791 40.0557 56.8027C39.0339 57.8264 38.46 59.2136 38.46 60.66V332.09C38.46 333.536 39.0339 334.924 40.0557 335.947C41.0775 336.971 42.4637 337.547 43.91 337.55H237C238.447 337.547 239.835 336.971 240.858 335.948C241.881 334.924 242.457 333.537 242.46 332.09V60.66C242.457 59.2127 241.881 57.8255 240.858 56.8021C239.835 55.7787 238.447 55.2026 237 55.2H43.91Z" fill="#EBEBEB"/>
<path d="M453.31 337.8H260.21C258.696 337.797 257.246 337.195 256.175 336.125C255.105 335.054 254.503 333.604 254.5 332.09V60.66C254.516 59.1551 255.124 57.7171 256.193 56.6576C257.262 55.5981 258.705 55.0025 260.21 55H453.31C454.812 55.0052 456.252 55.6022 457.317 56.6617C458.382 57.7212 458.987 59.1578 459 60.66V332.09C459 333.601 458.401 335.05 457.335 336.121C456.268 337.191 454.821 337.795 453.31 337.8ZM260.21 55.2C258.763 55.2026 257.375 55.7787 256.352 56.8021C255.329 57.8255 254.753 59.2127 254.75 60.66V332.09C254.753 333.537 255.329 334.924 256.352 335.948C257.375 336.971 258.763 337.547 260.21 337.55H453.31C454.757 337.547 456.145 336.971 457.168 335.948C458.191 334.924 458.767 333.537 458.77 332.09V60.66C458.767 59.2127 458.191 57.8255 457.168 56.8021C456.145 55.7787 454.757 55.2026 453.31 55.2H260.21Z" fill="#EBEBEB"/>
<path d="M391.25 200C395.71 208.92 395.25 217.86 397.68 226.64C400.17 235.64 403.42 244.29 403.98 252.88C404.422 261.185 403.932 269.514 402.52 277.71C401.25 285.88 399.68 293.71 396.71 300.9C393.74 308.09 389.51 314.37 384.79 320.53C380.216 326.722 374.835 332.274 368.79 337.04C362.62 341.78 356.59 346.71 348.95 349.97C341.51 353.14 332.79 354.28 324.06 355.83C315.33 357.38 306.22 356.07 297.16 355.63C287.81 355.17 279.16 356.84 269.71 354.57C260.26 352.3 251.09 346.57 241.71 342.71C232.33 338.85 222.25 337.54 213.21 332.51C204.17 327.48 194.46 322.83 185.88 316.69C177.3 310.55 170.88 301.8 163.3 294.62C155.701 287.674 148.678 280.122 142.3 272.04C136.22 264.11 132.65 255.55 128.19 246.64C123.73 237.73 114.26 229.13 111.78 220.35C109.25 211.35 111.56 202.71 110.95 194.12C110.34 185.53 108.65 176.23 109.87 168.17C111.09 160.11 114.25 152.5 117.22 145.28C120.19 138.06 126.47 133.08 131.28 127.07C136.008 121.049 141.548 115.712 147.74 111.21C154.03 106.69 159.74 101.42 167.48 98.32C174.97 95.32 184.31 95.32 193 93.82C201.69 92.32 210 90.82 219.11 90.82C228.42 90.82 237.73 93 247.18 94.62C256.83 96.28 266.03 96.74 275.53 100.08C285.03 103.42 294.79 106.58 303.93 111.67C313.07 116.76 321.54 123.37 330.1 129.9C338.5 136.32 345.03 144.34 352.5 151.9C359.97 159.46 371.2 164.77 377.31 173.16C383.3 181.48 386.79 191.1 391.25 200Z" fill="#F5F5F5"/>
<path d="M177 99.71C176.24 100.57 174.69 100.98 173.07 101.16C173.472 99.1245 173.676 97.0548 173.68 94.98C173.675 93.6423 173.584 92.3063 173.41 90.98C174.668 90.798 175.948 91.1019 176.99 91.83C179.78 94.44 183.28 97.13 182.81 87.33C182.52 81.39 178.97 81.96 177.09 85.52C176.47 86.69 174.7 87.52 172.9 88.09C171.856 83.5376 169.806 79.2768 166.9 75.62C168.17 74.37 169.69 73.24 171.04 73.37C174.84 73.72 179.26 73.7 172.87 66.25C169 61.73 166.54 64.36 167.24 68.33C167.5 69.8 166.33 71.83 165.09 73.51C163.608 71.9375 161.969 70.5202 160.2 69.28C161.42 67.7 162.88 66.01 163.8 65.57C166.22 64.43 167.66 64.15 163.8 62.14C161.46 60.92 161.2 61.99 161.53 64.02C161.66 64.8 160.42 66.83 159.19 68.61C157.303 67.398 155.292 66.3922 153.19 65.61C153.77 64.22 154.57 62.96 155.63 62.61C159.21 61.28 163.19 59.35 154.19 55.4C148.75 53.01 147.68 56.45 150.03 59.72C150.82 60.82 150.75 62.87 150.43 64.78C145.919 63.568 141.195 63.3733 136.6 64.21C136.07 62.57 135.79 60.79 136.48 59.68C138.48 56.43 140.48 52.47 130.92 54.87C125.15 56.32 126.41 59.69 130.27 60.87C131.65 61.27 132.9 63.08 133.84 64.87C129.498 66.0363 125.459 68.1274 122 71C120.41 69.55 118.13 67.11 118.41 65.19C118.96 61.41 119.17 56.99 111.41 62.99C106.7 66.61 109.2 69.21 113.2 68.71C115.32 68.45 118.43 71.17 120.08 72.77C118.31 74.5335 116.756 76.5006 115.45 78.63C113.45 77.7 110.45 76.22 109.65 75.16C108.05 73.03 107.49 71.67 106.29 75.85C105.56 78.39 106.67 78.43 108.59 77.7C109.5 77.35 112.66 78.7 114.86 79.7C113.872 81.4376 113.061 83.2702 112.44 85.17C111.175 84.9747 110.034 84.3018 109.25 83.29C107.37 79.96 104.82 76.35 102.36 85.85C100.86 91.61 104.43 92.12 107.28 89.28C108.15 88.42 109.88 88.13 111.63 88.08C110.534 92.8599 110.579 97.8305 111.76 102.59C110.872 102.728 109.963 102.562 109.18 102.12C106.04 99.94 102.18 97.79 104.08 107.42C105.23 113.26 108.66 112.17 110 108.42C110.595 107.28 111.552 106.369 112.72 105.83C113.574 108.176 114.705 110.412 116.09 112.49C114.867 113.12 113.544 113.533 112.18 113.71C110.18 113.59 109.05 113.25 110.91 116.03C112.04 117.72 112.62 117.09 113.14 115.6C113.36 115 115.09 114.03 116.63 113.26C117.796 114.901 119.115 116.428 120.57 117.82C119.867 118.734 118.853 119.357 117.72 119.57C113.9 119.77 109.53 120.44 116.95 126.88C121.43 130.78 123.48 127.82 122.21 124C121.85 122.91 122.27 121.36 122.94 119.86C125.651 121.974 128.692 123.626 131.94 124.75C131.39 126.57 130.52 128.52 129.16 129.06C125.62 130.49 121.7 132.53 130.79 136.23C136.3 138.48 137.28 135.01 134.84 131.81C133.84 130.48 134.09 127.74 134.51 125.53C136.775 126.124 139.1 126.459 141.44 126.53C141.58 127.945 141.471 129.373 141.12 130.75C140.24 132.6 139.51 133.47 142.8 132.75C144.8 132.33 144.41 131.56 143.23 130.52C142.76 130.1 142.51 128.21 142.38 126.52C144.194 126.514 146.004 126.35 147.79 126.03C148.55 127.88 149.17 130.16 148.39 131.51C146.47 134.81 144.62 138.82 154.08 136.17C159.8 134.57 158.45 131.23 154.56 130.17C152.96 129.74 151.47 127.43 150.45 125.42C155.117 124.167 159.429 121.85 163.05 118.65C164.019 119.536 164.61 120.76 164.7 122.07C164.4 125.88 164.48 130.3 171.85 123.81C176.31 119.88 173.65 117.46 169.69 118.21C168.42 118.45 166.69 117.62 165.16 116.6C166.668 115.012 168.009 113.273 169.16 111.41C170.62 112.153 171.94 113.145 173.06 114.34C174.51 116.57 174.97 117.97 176.46 113.88C177.36 111.4 176.25 111.28 174.29 111.88C173.58 112.09 171.61 111.26 169.77 110.34C170.838 108.437 171.699 106.426 172.34 104.34C173.552 104.467 174.671 105.05 175.47 105.97C177.57 109.16 180.34 112.6 182.18 102.97C183.22 97 179.63 96.68 177 99.71Z" fill="#EBEBEB"/>
<path d="M420.6 293.24C419.601 292.889 418.751 292.208 418.19 291.31C420.572 290.461 422.796 289.22 424.77 287.64C425.362 288.364 425.655 289.287 425.59 290.22C425.01 292.98 424.64 296.22 430.65 292.22C434.29 289.79 432.58 287.76 429.65 287.93C428.65 287.98 427.48 287.18 426.44 286.26C428.917 283.883 430.83 280.982 432.04 277.77C433.31 278.09 434.6 278.62 435.04 279.52C436.27 282.05 437.96 284.83 440.24 277.97C441.61 273.81 439.02 273.26 436.78 275.21C435.95 275.93 434.23 275.97 432.69 275.82C433.12 274.288 433.391 272.717 433.5 271.13C434.781 271.194 436.041 271.485 437.22 271.99C438.85 273.08 439.58 273.88 439.38 270.68C439.26 268.74 438.48 268.98 437.33 269.96C436.88 270.34 435.13 270.33 433.54 270.23C433.593 268.574 433.465 266.918 433.16 265.29C434.125 265.043 435.148 265.183 436.01 265.68C438.21 267.43 440.95 269.2 440.01 262.02C439.44 257.68 436.87 258.31 435.7 261.02C435.3 261.94 433.98 262.67 432.65 263.2C431.708 259.872 430.034 256.797 427.75 254.2C428.59 253.25 429.61 252.39 430.57 252.4C433.38 252.4 436.62 252.16 431.49 247.06C428.38 243.98 426.73 246.06 427.49 248.93C427.75 249.93 427.09 251.43 426.31 252.7C423.902 250.419 421.03 248.687 417.89 247.62C418.2 246.06 418.89 243.7 420.19 243.14C422.78 242.05 425.65 240.5 418.91 237.87C414.82 236.28 414.14 238.87 415.97 241.18C416.97 242.42 416.42 245.42 416.03 247.07C414.245 246.621 412.411 246.389 410.57 246.38C410.38 244.73 410.19 242.29 410.57 241.38C411.31 239.56 411.95 238.69 408.86 239.53C406.98 240.03 407.37 240.75 408.57 241.68C409.13 242.12 409.51 244.61 409.72 246.38C408.249 246.422 406.785 246.61 405.35 246.94C405.004 246.063 405.004 245.087 405.35 244.21C406.73 241.76 408.05 238.78 401.11 240.83C396.91 242.08 397.94 244.53 400.82 245.25C401.859 245.714 402.71 246.518 403.23 247.53C401.588 248.072 400.011 248.796 398.53 249.69C396.928 250.657 395.448 251.812 394.12 253.13C393.697 252.624 393.457 251.99 393.44 251.33C393.62 248.52 393.51 245.26 388.15 250.13C384.91 253.07 386.9 254.83 389.81 254.23C390.757 254.168 391.697 254.425 392.48 254.96C391.321 256.389 390.34 257.954 389.56 259.62C388.697 259.088 387.933 258.412 387.3 257.62C386.59 256.28 386.4 255.47 385.35 257.71C384.72 259.06 385.35 259.18 386.48 258.95C386.94 258.85 388.21 259.57 389.28 260.26C388.681 261.617 388.219 263.031 387.9 264.48C387.055 264.382 386.275 263.976 385.71 263.34C384.13 261.01 382.05 258.51 380.8 265.64C380.05 269.95 382.7 270.12 384.62 267.86C385.431 267.175 386.449 266.784 387.51 266.75C387.207 269.251 387.315 271.784 387.83 274.25C386.47 274.6 384.91 274.79 384.06 274.14C381.81 272.45 379.06 270.75 380.15 277.9C380.83 282.23 383.39 281.53 384.48 278.77C384.94 277.64 386.76 276.77 388.32 276.17C388.813 277.818 389.483 279.407 390.32 280.91C389.484 281.537 388.542 282.011 387.54 282.31C386.04 282.46 385.21 282.31 386.89 284.14C387.89 285.24 388.25 284.71 388.46 283.57C388.54 283.11 389.65 282.23 390.67 281.51C391.363 282.649 392.152 283.727 393.03 284.73C392.16 285.92 390.96 287.18 389.81 287.2C386.99 287.2 383.76 287.6 389.03 292.56C392.22 295.56 393.81 293.44 393.03 290.56C392.69 289.39 393.58 287.56 394.46 286.16C397.023 288.628 400.124 290.467 403.52 291.53C403.332 292.481 402.784 293.323 401.99 293.88C399.48 295.14 396.72 296.88 403.62 299.05C407.79 300.37 408.31 297.77 406.33 295.56C405.696 294.521 405.445 293.294 405.62 292.09C407.19 292.433 408.793 292.607 410.4 292.61C410.493 293.815 410.371 295.027 410.04 296.19C409.18 297.96 408.48 298.78 411.62 298.19C413.53 297.81 413.19 297.07 412.06 296.06C411.65 295.69 411.43 294.13 411.32 292.63C412.898 292.582 414.466 292.371 416 292C416.382 292.814 416.443 293.743 416.17 294.6C414.95 297.13 413.83 300.19 420.62 297.68C424.71 296.14 423.52 293.77 420.6 293.24Z" fill="white"/>
<path d="M404.23 369.21C403.759 369.042 403.358 368.722 403.09 368.3C403.788 368.059 404.459 367.744 405.09 367.36C405.496 367.119 405.884 366.848 406.25 366.55C406.535 366.894 406.679 367.334 406.65 367.78C406.37 369.09 406.19 370.63 409.05 368.71C410.78 367.55 409.96 366.59 408.56 366.71C407.975 366.63 407.434 366.351 407.03 365.92C408.201 364.799 409.109 363.433 409.69 361.92C409.97 361.956 410.24 362.048 410.484 362.191C410.728 362.334 410.941 362.524 411.11 362.75C411.7 363.96 412.5 365.28 413.58 362.02C414.24 360.02 413 359.78 411.94 360.7C411.348 361.024 410.662 361.13 410 361C410.202 360.268 410.329 359.518 410.38 358.76C410.988 358.802 411.585 358.941 412.15 359.17C412.92 359.69 413.27 360.07 413.15 358.55C413.1 357.63 412.73 357.75 412.15 358.21C411.568 358.394 410.952 358.438 410.35 358.34C410.37 357.553 410.309 356.765 410.17 355.99C410.627 355.873 411.113 355.941 411.52 356.18C412.57 357.01 413.87 357.85 413.43 354.44C413.16 352.38 411.93 352.67 411.38 353.97C411.026 354.46 410.514 354.813 409.93 354.97C409.665 354.037 409.278 353.143 408.78 352.31C408.432 351.748 408.038 351.216 407.6 350.72C407.756 350.496 407.955 350.304 408.184 350.157C408.414 350.009 408.671 349.908 408.94 349.86C410.28 349.86 411.82 349.74 409.38 347.32C407.9 345.86 407.12 346.85 407.47 348.21C407.502 348.853 407.307 349.486 406.92 350C405.775 348.92 404.41 348.098 402.92 347.59C403.07 346.85 403.39 345.72 404.01 345.46C405.25 344.94 406.61 344.21 403.4 342.96C401.47 342.2 401.14 343.42 402.01 344.53C402.47 345.12 402.22 346.53 402.01 347.33C401.161 347.11 400.287 346.999 399.41 347C399.279 346.215 399.279 345.415 399.41 344.63C399.77 343.76 400.07 343.35 398.6 343.75C397.71 343.99 397.9 344.33 398.46 344.75C398.799 345.453 398.983 346.22 399 347C398.299 347.021 397.603 347.111 396.92 347.27C396.754 346.853 396.754 346.387 396.92 345.97C397.58 344.81 398.2 343.39 394.92 344.37C392.92 344.96 393.42 346.12 394.79 346.47C395.282 346.69 395.684 347.071 395.93 347.55C395.151 347.797 394.403 348.132 393.7 348.55C392.94 349.007 392.238 349.554 391.61 350.18C391.403 349.941 391.286 349.636 391.28 349.32C391.36 347.99 391.28 346.44 388.77 348.75C387.23 350.15 388.17 350.99 389.55 350.7C390 350.675 390.446 350.798 390.82 351.05C390.274 351.729 389.811 352.471 389.44 353.26C389.027 353.01 388.661 352.688 388.36 352.31C388.03 351.67 387.94 351.31 387.44 352.31C387.13 352.95 387.44 353.01 387.97 352.9C388.453 353.008 388.907 353.219 389.3 353.52C389.02 354.164 388.802 354.834 388.65 355.52C388.261 355.47 387.905 355.278 387.65 354.98C386.9 353.87 385.91 352.68 385.31 356.07C384.96 358.12 386.21 358.2 387.13 357.13C387.512 356.8 387.996 356.613 388.5 356.6C388.36 357.787 388.411 358.989 388.65 360.16C388.364 360.273 388.058 360.328 387.75 360.319C387.442 360.31 387.139 360.239 386.86 360.11C385.79 359.31 384.47 358.5 385 361.9C385.33 363.95 386.54 363.62 387.06 362.31C387.28 361.77 388.15 361.31 388.89 361.08C389.138 361.865 389.474 362.62 389.89 363.33C389.49 363.622 389.044 363.845 388.57 363.99C387.86 364.06 387.46 363.99 388.26 364.86C388.74 365.38 388.91 365.14 389.01 364.59C389.01 364.37 389.57 363.96 390.06 363.59C390.39 364.134 390.764 364.649 391.18 365.13C390.76 365.69 390.18 366.29 389.65 366.29C388.31 366.29 386.77 366.49 389.28 368.84C390.79 370.27 391.55 369.26 391.16 367.91C391.13 367.155 391.371 366.413 391.84 365.82C393.061 366.99 394.536 367.863 396.15 368.37C396.06 368.821 395.798 369.219 395.42 369.48C394.22 370.08 392.91 370.91 396.19 371.94C398.19 372.57 398.42 371.33 397.48 370.28C397.184 369.784 397.064 369.203 397.14 368.63C397.889 368.793 398.653 368.877 399.42 368.88C399.457 369.453 399.396 370.028 399.24 370.58C398.83 371.42 398.5 371.81 400 371.52C400.9 371.34 400.74 370.99 400.2 370.52C399.963 370.01 399.843 369.453 399.85 368.89C400.615 368.858 401.376 368.751 402.12 368.57C402.298 368.956 402.326 369.394 402.2 369.8C401.62 371 401.09 372.46 404.31 371.26C406.19 370.59 405.62 369.47 404.23 369.21Z" fill="#F5F5F5"/>
<path d="M89.46 163.27C88.813 163.499 88.107 163.499 87.46 163.27C87.9493 162.429 88.3546 161.541 88.67 160.62C88.8705 160.021 89.0342 159.409 89.16 158.79C89.748 158.895 90.2719 159.225 90.62 159.71C91.46 161.29 92.62 163.02 93.89 158.6C94.66 155.92 93 155.6 91.62 156.92C90.9565 157.348 90.1634 157.528 89.38 157.43C89.6128 155.254 89.3565 153.054 88.63 150.99C89.2789 150.583 90.063 150.449 90.81 150.62C92.44 151.36 94.41 152.02 92.71 147.74C91.71 145.15 90.19 145.94 89.89 147.81C89.78 148.5 88.96 149.22 88.15 149.81C87.7302 148.887 87.2176 148.009 86.62 147.19C87.2736 146.699 88.008 146.327 88.79 146.09C90.03 145.95 90.71 146.09 89.31 144.57C88.46 143.67 88.17 144.11 88.01 145.06C87.95 145.43 87.09 146.13 86.28 146.74C85.6262 145.913 84.8853 145.159 84.07 144.49C84.4344 143.965 84.9916 143.606 85.62 143.49C87.41 143.44 89.47 143.18 86.08 140.07C84.02 138.18 83.03 139.54 83.57 141.35C83.6661 142.176 83.464 143.01 83 143.7C81.9299 142.984 80.7699 142.412 79.55 142C78.7104 141.714 77.847 141.503 76.97 141.37C76.9115 140.645 77.1415 139.926 77.61 139.37C78.99 138.24 80.46 136.77 75.87 136.37C73.09 136.14 73.14 137.83 74.68 138.92C75.2796 139.549 75.6343 140.372 75.68 141.24C73.5688 141.124 71.4574 141.465 69.49 142.24C69 141.36 68.36 139.93 68.78 139.12C69.6 137.52 70.36 135.6 66 137.07C63.36 137.97 64.07 139.5 65.92 139.89C66.92 140.09 67.92 141.77 68.36 142.73C67.2876 143.241 66.2804 143.879 65.36 144.63C64.5674 143.936 63.892 143.119 63.36 142.21C62.97 141.02 62.93 140.33 61.76 142C61.05 143 61.54 143.21 62.5 143.17C62.96 143.17 64.16 144.22 64.99 144.99C64.283 145.596 63.6366 146.269 63.06 147C62.5304 146.718 62.1269 146.247 61.93 145.68C61.6 143.92 61.02 141.93 58.49 145.77C56.95 148.1 58.49 148.87 60.15 148.04C60.8478 147.844 61.5915 147.89 62.26 148.17C61.0463 150.125 60.3098 152.338 60.11 154.63C59.6776 154.557 59.2847 154.334 59 154C57.94 152.55 56.55 151 55.93 155.57C55.55 158.34 57.24 158.38 58.41 156.9C58.8468 156.483 59.4095 156.223 60.01 156.16C60.0372 157.332 60.2017 158.496 60.5 159.63C59.8615 159.724 59.2114 159.703 58.58 159.57C57.68 159.21 57.26 158.89 57.66 160.41C57.9 161.33 58.26 161.14 58.72 160.56C59.3043 160.243 59.9553 160.068 60.62 160.05C60.8883 160.954 61.2398 161.831 61.67 162.67C61.221 162.972 60.6746 163.093 60.14 163.01C58.42 162.52 56.38 162.15 58.69 166.14C60.09 168.55 61.44 167.55 61.46 165.66C61.588 164.99 61.9407 164.383 62.46 163.94C63.3388 165.281 64.4297 166.469 65.69 167.46C65.17 168.19 64.49 168.92 63.8 168.96C62.01 169.05 59.96 169.36 63.43 172.39C65.54 174.22 66.5 172.83 65.91 171.04C65.66 170.3 66.19 169.12 66.71 168.2C67.6281 168.802 68.6109 169.298 69.64 169.68C69.4848 170.326 69.221 170.942 68.86 171.5C68.19 172.19 67.73 172.5 69.29 172.66C70.29 172.78 70.19 172.38 69.82 171.74C69.7518 171.094 69.8304 170.441 70.05 169.83C70.8574 170.105 71.6872 170.309 72.53 170.44C72.625 170.88 72.6269 171.335 72.5356 171.776C72.4443 172.217 72.2619 172.634 72 173C70.65 174.18 69.22 175.68 73.82 175.94C76.6 176.1 76.51 174.41 74.94 173.36C74.29 172.93 73.94 171.67 73.84 170.63C76.1009 170.776 78.3652 170.403 80.46 169.54C80.7566 170.081 80.8319 170.715 80.67 171.31C79.96 172.95 79.32 174.93 83.58 173.17C86.16 172.1 85.34 170.62 83.47 170.35C82.7375 170.104 82.1147 169.608 81.71 168.95C82.6145 168.475 83.4659 167.905 84.25 167.25C84.7871 167.8 85.2237 168.439 85.54 169.14C85.84 170.36 85.84 171.05 87.12 169.46C87.89 168.46 87.42 168.27 86.46 168.24C86.11 168.24 85.37 167.56 84.69 166.87C85.4558 166.185 86.1464 165.421 86.75 164.59C87.2645 164.831 87.6708 165.256 87.89 165.78C88.33 167.52 89.04 169.47 91.32 165.47C92.65 163 91.1 162.34 89.46 163.27Z" fill="#F5F5F5"/>
<path d="M273.67 194.19C272.357 193.726 271.239 192.831 270.5 191.65C272.389 190.968 274.208 190.104 275.93 189.07C277.049 188.388 278.125 187.637 279.15 186.82C279.934 187.773 280.324 188.989 280.24 190.22C279.47 193.84 278.99 198.1 286.89 192.8C291.68 189.59 289.43 186.92 285.53 187.14C284.25 187.21 282.67 186.14 281.3 184.95C284.558 181.822 287.077 178.006 288.67 173.78C290.35 174.2 292.04 174.9 292.61 176.08C294.22 179.41 296.45 183.08 299.44 174.08C301.26 168.6 297.84 167.88 294.9 170.45C293.81 171.45 291.54 171.45 289.52 171.25C290.084 169.232 290.439 167.161 290.58 165.07C292.51 165.3 294.64 165.66 295.47 166.21C297.62 167.64 298.57 168.7 298.32 164.49C298.16 161.94 297.13 162.26 295.62 163.55C295.03 164.05 292.73 164.03 290.62 163.9C290.684 161.721 290.513 159.542 290.11 157.4C291.382 157.069 292.732 157.253 293.87 157.91C296.76 160.21 300.36 162.54 299.13 153.1C298.39 147.38 295 148.21 293.46 151.8C292.94 153.02 291.21 153.98 289.46 154.67C288.213 150.301 286.006 146.266 283 142.86C284.1 141.6 285.44 140.48 286.7 140.5C290.4 140.5 294.7 140.17 287.92 133.5C283.82 129.44 281.65 132.17 282.64 135.95C282.99 137.29 282.11 139.24 281.1 140.95C277.929 137.927 274.143 135.625 270 134.2C270.4 132.2 271.29 129.04 273 128.31C276.42 126.87 280.19 124.84 271.32 121.38C265.95 119.28 265.05 122.66 267.46 125.73C268.73 127.36 268.04 131.3 267.53 133.47C265.181 132.887 262.771 132.581 260.35 132.56C260.1 130.4 259.85 127.19 260.35 126.01C261.35 123.61 262.16 122.47 258.09 123.56C255.62 124.23 256.14 125.17 257.71 126.4C258.45 126.98 258.95 130.26 259.22 132.58C257.285 132.64 255.359 132.885 253.47 133.31C253.014 132.157 253.014 130.873 253.47 129.72C255.28 126.5 257.01 122.58 247.89 125.29C242.36 126.93 243.72 130.14 247.51 131.09C248.66 131.38 249.76 132.67 250.67 134.09C248.513 134.805 246.441 135.754 244.49 136.92C242.382 138.191 240.438 139.716 238.7 141.46C238.141 140.79 237.821 139.952 237.79 139.08C238.03 135.38 237.89 131.08 230.79 137.5C226.52 141.38 229.14 143.69 232.97 142.9C234.219 142.832 235.455 143.184 236.48 143.9C234.982 145.776 233.713 147.824 232.7 150C231.552 149.304 230.536 148.41 229.7 147.36C228.77 145.6 228.52 144.53 227.14 147.47C226.3 149.25 227.14 149.42 228.61 149.1C229.22 148.98 230.89 149.93 232.3 150.83C231.519 152.617 230.913 154.476 230.49 156.38C229.379 156.257 228.353 155.726 227.61 154.89C225.53 151.82 222.79 148.53 221.15 157.89C220.15 163.56 223.64 163.78 226.15 160.81C226.87 159.96 228.37 159.54 229.95 159.35C229.545 162.641 229.687 165.976 230.37 169.22C228.58 169.68 226.53 169.93 225.37 169.08C222.37 166.85 218.76 164.61 220.23 174.02C221.12 179.71 224.49 178.8 225.93 175.17C226.53 173.67 228.93 172.5 230.93 171.75C231.583 173.922 232.483 176.012 233.61 177.98C232.503 178.803 231.261 179.425 229.94 179.82C227.94 180.02 226.88 179.82 229.09 182.24C230.43 183.68 230.88 182.99 231.16 181.48C231.26 180.88 232.71 179.72 234.06 178.76C234.969 180.266 236.01 181.688 237.17 183.01C236.02 184.57 234.44 186.23 232.93 186.25C229.22 186.31 224.93 186.79 231.93 193.31C236.13 197.26 238.22 194.47 237.14 190.72C236.69 189.17 237.87 186.78 239.02 184.93C242.433 188.186 246.554 190.606 251.06 192C250.808 193.243 250.093 194.344 249.06 195.08C245.74 196.74 242.12 199.02 251.19 201.89C256.69 203.63 257.37 200.2 254.76 197.29C253.92 196.36 253.76 194.52 253.83 192.73C255.897 193.175 258.005 193.406 260.12 193.42C260.239 195.002 260.08 196.593 259.65 198.12C258.51 200.45 257.59 201.53 261.73 200.72C264.24 200.22 263.73 199.24 262.3 197.92C261.77 197.43 261.48 195.38 261.3 193.4C263.422 193.322 265.53 193.024 267.59 192.51C268.088 193.579 268.163 194.798 267.8 195.92C266.2 199.26 264.74 203.29 273.66 199.98C279.08 198 277.51 194.88 273.67 194.19Z" fill="white"/>
<path d="M250 427.56C357.082 427.56 443.89 422.492 443.89 416.24C443.89 409.988 357.082 404.92 250 404.92C142.917 404.92 56.11 409.988 56.11 416.24C56.11 422.492 142.917 427.56 250 427.56Z" fill="#F5F5F5"/>
<path opacity="0.2" d="M291.33 247.81C297.15 276.47 289.58 305.43 274.61 328.02C259.035 351.593 234.752 368.034 207.08 373.74C178.42 379.56 150.91 371.07 128.31 356.1C105.71 341.13 86.47 319.26 80.65 290.6C74.83 261.94 82.06 233 97 210.39C111.94 187.78 136.19 171.77 164.85 165.95C193.51 160.13 222.52 164.75 245.12 179.72C267.72 194.69 285.51 219.15 291.33 247.81Z" fill="#E8AFCE"/>
<path d="M145.87 340.2C143.87 354.01 133.11 403.93 129.46 409.13C124.143 407.463 118.921 405.503 113.82 403.26C113.622 403.174 113.4 403.161 113.193 403.223C112.986 403.284 112.808 403.417 112.688 403.597C112.569 403.777 112.517 403.993 112.541 404.207C112.565 404.422 112.664 404.621 112.82 404.77C118.299 409.821 124.736 413.721 131.75 416.24C137.66 403.24 153.26 358.71 153.26 353.11C149.67 347.61 145.87 340.2 145.87 340.2Z" fill="#E8AFCE"/>
<path opacity="0.2" d="M145.87 340.2C145.3 344.12 144.03 350.92 142.42 358.79C145.284 360.024 148.215 361.096 151.2 362C152.49 357.6 153.28 354.36 153.28 353.1C149.68 347.61 145.87 340.2 145.87 340.2Z" fill="black"/>
<path d="M281.15 269.27C281.15 295.13 269.49 318.88 252.55 335.83C234.908 353.513 210.978 363.484 186 363.56C160.14 363.56 137.8 351.36 120.85 334.42C103.9 317.48 91.08 295.13 91.08 269.27C91.08 243.41 102.44 219.6 119.39 202.66C136.34 185.72 160.14 176.09 186 176.09C211.86 176.09 236.18 185.2 253.13 202.15C270.912 219.982 280.975 244.088 281.15 269.27Z" fill="#E8AFCE"/>
<path opacity="0.2" d="M213 359.54L203 349.54C204.09 353.48 203.36 358.69 202.68 362.03C206.166 361.406 209.613 360.574 213 359.54Z" fill="black"/>
<path d="M200.1 347.41C204.83 353.6 217.88 371.9 226.1 386.35C229.1 391.65 250.97 395.68 253.56 396.77C253.06 402.324 252.252 407.846 251.14 413.31C251.095 413.522 251.128 413.743 251.232 413.934C251.336 414.124 251.504 414.271 251.707 414.348C251.909 414.425 252.133 414.427 252.337 414.354C252.541 414.281 252.712 414.138 252.82 413.95C256.597 407.52 259.039 400.395 260 393C246.45 392.12 240.54 385.52 232 384.2C224.91 369.84 219.13 352.07 216.89 349.88C210.45 348.62 200.1 347.41 200.1 347.41Z" fill="#E8AFCE"/>
<path d="M266.63 179.42C262.32 189.32 251.12 201.23 244.32 206.42C244.435 207.382 244.857 208.281 245.524 208.983C246.19 209.686 247.066 210.155 248.02 210.32C248.02 210.32 265.22 192.41 269.28 182.01C267.83 180.72 266.63 179.42 266.63 179.42Z" fill="#E8AFCE"/>
<path d="M276.63 178.67C276.591 180.604 275.801 182.448 274.428 183.81C273.054 185.172 271.204 185.947 269.27 185.97C268.328 185.943 267.402 185.729 266.544 185.341C265.685 184.953 264.912 184.399 264.27 183.71C262.869 182.415 262.038 180.617 261.96 178.71C261.982 176.772 262.769 174.921 264.15 173.56C265.554 172.248 267.404 171.519 269.325 171.519C271.246 171.519 273.096 172.248 274.5 173.56C275.842 174.925 276.605 176.756 276.63 178.67Z" fill="#E8AFCE"/>
<path opacity="0.2" d="M276.63 178.67C276.591 180.604 275.801 182.448 274.428 183.81C273.054 185.172 271.204 185.947 269.27 185.97C268.328 185.943 267.402 185.729 266.544 185.341C265.685 184.953 264.912 184.399 264.27 183.71C262.869 182.415 262.038 180.617 261.96 178.71C261.982 176.772 262.769 174.921 264.15 173.56C265.554 172.248 267.404 171.519 269.325 171.519C271.246 171.519 273.096 172.248 274.5 173.56C275.842 174.925 276.605 176.756 276.63 178.67Z" fill="white"/>
<path d="M206.79 157.61C205.88 172.05 197.19 192.16 190.99 201.82C193.51 206.04 197.43 205.05 197.43 205.05C197.43 205.05 210.95 174.64 211.32 159.68C208.89 158.7 206.79 157.61 206.79 157.61Z" fill="#E8AFCE"/>
<path d="M219.06 152.11C219.903 154.571 219.745 157.265 218.62 159.61C217.511 161.939 215.527 163.736 213.1 164.61C210.65 165.334 208.021 165.139 205.705 164.062C203.389 162.985 201.545 161.1 200.52 158.76C199.664 156.306 199.815 153.613 200.94 151.27C201.494 150.121 202.269 149.093 203.222 148.246C204.174 147.398 205.285 146.747 206.49 146.33C208.906 145.4 211.592 145.465 213.96 146.51C216.333 147.63 218.167 149.643 219.06 152.11Z" fill="#E8AFCE"/>
<path opacity="0.2" d="M219.06 152.11C219.903 154.571 219.745 157.265 218.62 159.61C217.511 161.939 215.527 163.736 213.1 164.61C210.65 165.334 208.021 165.139 205.705 164.062C203.389 162.985 201.545 161.1 200.52 158.76C199.664 156.306 199.815 153.613 200.94 151.27C201.494 150.121 202.269 149.093 203.222 148.246C204.174 147.398 205.285 146.747 206.49 146.33C208.906 145.4 211.592 145.465 213.96 146.51C216.333 147.63 218.167 149.643 219.06 152.11Z" fill="white"/>
<path d="M238.44 172.44C232.88 179.72 228.68 192.95 227.63 200.14C226.87 200.451 226.029 200.508 225.233 200.305C224.438 200.101 223.728 199.647 223.21 199.01C223.21 199.01 229.38 178.86 235.42 171.55C237 172.09 238.44 172.44 238.44 172.44Z" fill="#E8AFCE"/>
<path d="M234.86 164.72C233.44 165.546 232.399 166.892 231.956 168.474C231.514 170.056 231.705 171.747 232.49 173.19C233.36 174.553 234.697 175.552 236.251 176C237.805 176.447 239.469 176.312 240.93 175.62C242.36 174.804 243.41 173.456 243.85 171.87C244.242 170.288 244.022 168.617 243.234 167.191C242.446 165.765 241.148 164.69 239.6 164.18C238.011 163.729 236.308 163.924 234.86 164.72Z" fill="#E8AFCE"/>
<path opacity="0.2" d="M234.86 164.72C233.44 165.546 232.399 166.892 231.956 168.474C231.514 170.056 231.705 171.747 232.49 173.19C233.36 174.553 234.697 175.552 236.251 176C237.805 176.447 239.469 176.312 240.93 175.62C242.36 174.804 243.41 173.456 243.85 171.87C244.242 170.288 244.022 168.617 243.234 167.191C242.446 165.765 241.148 164.69 239.6 164.18C238.011 163.729 236.308 163.924 234.86 164.72Z" fill="white"/>
<path d="M179.94 161.21C180.8 168.38 185.68 178.21 189.04 182.81C188.783 183.405 188.341 183.902 187.778 184.224C187.216 184.547 186.564 184.679 185.92 184.6C185.92 184.6 178.34 169.81 177.75 162.37C178.93 161.81 179.94 161.21 179.94 161.21Z" fill="#E8AFCE"/>
<path d="M173.68 158.81C173.325 160.057 173.476 161.393 174.1 162.53C174.403 163.097 174.815 163.598 175.313 164.005C175.811 164.412 176.384 164.716 177 164.9C177.613 165.066 178.253 165.109 178.883 165.026C179.513 164.944 180.12 164.738 180.67 164.42C181.241 164.142 181.751 163.754 182.17 163.276C182.589 162.799 182.909 162.242 183.11 161.64C183.473 160.391 183.325 159.05 182.7 157.91C182.051 156.804 181.009 155.984 179.782 155.613C178.555 155.242 177.233 155.348 176.08 155.91C174.929 156.522 174.066 157.564 173.68 158.81Z" fill="#E8AFCE"/>
<path opacity="0.2" d="M173.68 158.81C173.325 160.057 173.476 161.393 174.1 162.53C174.403 163.097 174.815 163.598 175.313 164.005C175.811 164.412 176.384 164.716 177 164.9C177.613 165.066 178.253 165.109 178.883 165.026C179.513 164.944 180.12 164.738 180.67 164.42C181.241 164.142 181.751 163.754 182.17 163.276C182.589 162.799 182.909 162.242 183.11 161.64C183.473 160.391 183.325 159.05 182.7 157.91C182.051 156.804 181.009 155.984 179.782 155.613C178.555 155.242 177.233 155.348 176.08 155.91C174.929 156.522 174.066 157.564 173.68 158.81Z" fill="white"/>
<path d="M153.77 159.56C158.18 168.37 159.95 183.19 159.6 191C160.341 191.482 161.219 191.713 162.101 191.657C162.984 191.601 163.825 191.262 164.5 190.69C164.5 190.69 162.05 168.16 157.15 159.23C155.39 159.48 153.77 159.56 153.77 159.56Z" fill="#E8AFCE"/>
<path d="M159.11 152.12C160.45 153.281 161.28 154.922 161.42 156.69C161.499 157.56 161.406 158.438 161.145 159.272C160.884 160.106 160.461 160.88 159.9 161.55C158.707 162.814 157.095 163.6 155.364 163.76C153.634 163.92 151.904 163.444 150.5 162.42C149.155 161.265 148.318 159.627 148.17 157.86C148.069 156.116 148.631 154.398 149.744 153.052C150.857 151.705 152.438 150.829 154.17 150.6C155.953 150.435 157.729 150.981 159.11 152.12Z" fill="#E8AFCE"/>
<path opacity="0.2" d="M159.11 152.12C160.45 153.281 161.28 154.922 161.42 156.69C161.499 157.56 161.406 158.438 161.145 159.272C160.884 160.106 160.461 160.88 159.9 161.55C158.707 162.814 157.095 163.6 155.364 163.76C153.634 163.92 151.904 163.444 150.5 162.42C149.155 161.265 148.318 159.627 148.17 157.86C148.069 156.116 148.631 154.398 149.744 153.052C150.857 151.705 152.438 150.829 154.17 150.6C155.953 150.435 157.729 150.981 159.11 152.12Z" fill="white"/>
<path d="M132.38 175.2C134.21 183.36 141 194 145.43 199C145.204 199.715 144.752 200.338 144.143 200.776C143.534 201.214 142.8 201.443 142.05 201.43C142.05 201.43 131.56 185.3 130 176.79C131.28 176 132.38 175.2 132.38 175.2Z" fill="#E8AFCE"/>
<path d="M124.87 173.18C124.612 174.662 124.949 176.186 125.81 177.42C126.226 178.035 126.758 178.561 127.378 178.97C127.997 179.378 128.691 179.66 129.42 179.8C130.886 180.002 132.374 179.655 133.6 178.826C134.825 177.998 135.702 176.745 136.06 175.31C136.326 173.834 135.995 172.312 135.14 171.08C134.72 170.473 134.183 169.956 133.562 169.558C132.941 169.16 132.247 168.889 131.52 168.76C130.059 168.453 128.536 168.733 127.28 169.54C126.031 170.391 125.166 171.698 124.87 173.18Z" fill="#E8AFCE"/>
<path opacity="0.2" d="M124.87 173.18C124.612 174.662 124.949 176.186 125.81 177.42C126.226 178.035 126.758 178.561 127.378 178.97C127.997 179.378 128.691 179.66 129.42 179.8C130.886 180.002 132.374 179.655 133.6 178.826C134.825 177.998 135.702 176.745 136.06 175.31C136.326 173.834 135.995 172.312 135.14 171.08C134.72 170.473 134.183 169.956 133.562 169.558C132.941 169.16 132.247 168.889 131.52 168.76C130.059 168.453 128.536 168.733 127.28 169.54C126.031 170.391 125.166 171.698 124.87 173.18Z" fill="white"/>
<path d="M109.23 182.09C118.56 187.52 129.09 200.03 133.46 207.39C134.429 207.388 135.371 207.073 136.148 206.493C136.924 205.913 137.493 205.099 137.77 204.17C137.77 204.17 122 185 112.12 179.76C110.66 181.05 109.23 182.09 109.23 182.09Z" fill="#E8AFCE"/>
<path d="M109.65 172.07C111.567 172.332 113.307 173.331 114.5 174.854C115.693 176.378 116.245 178.306 116.04 180.23C115.908 181.169 115.59 182.072 115.104 182.886C114.618 183.7 113.974 184.409 113.21 184.97C112.488 185.589 111.651 186.059 110.746 186.353C109.842 186.647 108.888 186.758 107.94 186.68C106.017 186.431 104.27 185.432 103.08 183.9C101.933 182.359 101.415 180.44 101.63 178.531C101.845 176.622 102.778 174.867 104.24 173.62C105.77 172.414 107.713 171.857 109.65 172.07Z" fill="#E8AFCE"/>
<path opacity="0.2" d="M109.65 172.07C111.567 172.332 113.307 173.331 114.5 174.854C115.693 176.378 116.245 178.306 116.04 180.23C115.908 181.169 115.59 182.072 115.104 182.886C114.618 183.7 113.974 184.409 113.21 184.97C112.488 185.589 111.651 186.059 110.746 186.353C109.842 186.647 108.888 186.758 107.94 186.68C106.017 186.431 104.27 185.432 103.08 183.9C101.933 182.359 101.415 180.44 101.63 178.531C101.845 176.622 102.778 174.867 104.24 173.62C105.77 172.414 107.713 171.857 109.65 172.07Z" fill="white"/>
<path d="M80.61 239C94.85 241.58 113.81 252.55 122.68 259.83C127.16 257.83 126.68 253.83 126.68 253.83C126.68 253.83 98.05 236.83 83.23 234.76C81.94 237 80.61 239 80.61 239Z" fill="#E8AFCE"/>
<path d="M76.58 226.16C79.1144 225.625 81.7576 226.094 83.9529 227.469C86.1483 228.843 87.7247 231.016 88.35 233.53C88.7811 236.047 88.281 238.635 86.9431 240.81C85.6052 242.986 83.521 244.599 81.08 245.35C78.541 245.914 75.8821 245.454 73.68 244.07C71.5359 242.646 70.0114 240.462 69.4138 237.959C68.8163 235.456 69.1901 232.819 70.46 230.58C71.8442 228.364 74.0409 226.777 76.58 226.16Z" fill="#E8AFCE"/>
<path opacity="0.2" d="M76.58 226.16C79.1144 225.625 81.7576 226.094 83.9529 227.469C86.1483 228.843 87.7247 231.016 88.35 233.53C88.7811 236.047 88.281 238.635 86.9431 240.81C85.6052 242.986 83.521 244.599 81.08 245.35C78.541 245.914 75.8821 245.454 73.68 244.07C71.5359 242.646 70.0114 240.462 69.4138 237.959C68.8163 235.456 69.1901 232.819 70.46 230.58C71.8442 228.364 74.0409 226.777 76.58 226.16Z" fill="white"/>
<path d="M99 209.28C105.59 215.65 118.24 221.35 125.26 223.23C125.482 224.022 125.442 224.864 125.146 225.632C124.851 226.399 124.316 227.051 123.62 227.49C123.62 227.49 104.32 219.02 97.77 212.18C98.5 210.69 99 209.28 99 209.28Z" fill="#E8AFCE"/>
<path d="M90.9301 211.94C91.5888 213.443 92.8066 214.632 94.3258 215.253C95.845 215.875 97.5465 215.881 99.0701 215.27C100.528 214.567 101.678 213.356 102.304 211.864C102.93 210.372 102.989 208.702 102.47 207.17C101.823 205.656 100.605 204.459 99.0801 203.84C97.5627 203.274 95.8877 203.302 94.3897 203.917C92.8918 204.533 91.6813 205.691 91.0001 207.16C90.3571 208.684 90.332 210.398 90.9301 211.94Z" fill="#E8AFCE"/>
<path opacity="0.2" d="M90.9301 211.94C91.5888 213.443 92.8066 214.632 94.3258 215.253C95.845 215.875 97.5465 215.881 99.0701 215.27C100.528 214.567 101.678 213.356 102.304 211.864C102.93 210.372 102.989 208.702 102.47 207.17C101.823 205.656 100.605 204.459 99.0801 203.84C97.5627 203.274 95.8877 203.302 94.3897 203.917C92.8918 204.533 91.6813 205.691 91.0001 207.16C90.3571 208.684 90.332 210.398 90.9301 211.94Z" fill="white"/>
<path d="M81.07 266.07C88.29 266.07 98.58 262.34 103.58 259.54C104.141 259.865 104.582 260.363 104.836 260.96C105.09 261.557 105.144 262.22 104.99 262.85C104.99 262.85 89.42 268.66 81.99 268.39C81.55 267.15 81.07 266.07 81.07 266.07Z" fill="#E8AFCE"/>
<path d="M78 272C79.1987 272.487 80.5393 272.49 81.7403 272.009C82.9412 271.528 83.9089 270.6 84.44 269.42C84.859 268.219 84.8285 266.906 84.3542 265.726C83.8798 264.546 82.9937 263.577 81.86 263C80.659 262.505 79.311 262.505 78.11 263C76.9328 263.511 75.9927 264.449 75.4789 265.626C74.965 266.802 74.9154 268.129 75.34 269.34C75.8412 270.543 76.7972 271.499 78 272Z" fill="#E8AFCE"/>
<path opacity="0.2" d="M78 272C79.1987 272.487 80.5393 272.49 81.7403 272.009C82.9412 271.528 83.9089 270.6 84.44 269.42C84.859 268.219 84.8285 266.906 84.3542 265.726C83.8798 264.546 82.9937 263.577 81.86 263C80.659 262.505 79.311 262.505 78.11 263C76.9328 263.511 75.9927 264.449 75.4789 265.626C74.965 266.802 74.9154 268.129 75.34 269.34C75.8412 270.543 76.7972 271.499 78 272Z" fill="white"/>
<path d="M76.38 291.87C85.65 288.52 100.57 288.48 108.29 289.74C108.857 289.059 109.188 288.213 109.235 287.328C109.282 286.443 109.042 285.567 108.55 284.83C108.55 284.83 85.89 284.65 76.45 288.48C76.49 290.26 76.38 291.87 76.38 291.87Z" fill="#E8AFCE"/>
<path d="M69.62 285.7C70.9266 284.513 72.6438 283.882 74.4079 283.94C76.1719 283.998 77.8441 284.74 79.07 286.01C79.6511 286.652 80.0981 287.404 80.3848 288.222C80.6716 289.039 80.7923 289.905 80.74 290.77C80.7485 291.638 80.585 292.5 80.2589 293.305C79.9328 294.11 79.4506 294.842 78.84 295.46C77.5372 296.656 75.8179 297.295 74.05 297.24C72.2995 297.136 70.6533 296.373 69.4434 295.104C68.2335 293.834 67.5497 292.153 67.53 290.4C67.5855 288.62 68.3357 286.933 69.62 285.7Z" fill="#E8AFCE"/>
<path opacity="0.2" d="M69.62 285.7C70.9266 284.513 72.6438 283.882 74.4079 283.94C76.1719 283.998 77.8441 284.74 79.07 286.01C79.6511 286.652 80.0981 287.404 80.3848 288.222C80.6716 289.039 80.7923 289.905 80.74 290.77C80.7485 291.638 80.585 292.5 80.2589 293.305C79.9328 294.11 79.4506 294.842 78.84 295.46C77.5372 296.656 75.8179 297.295 74.05 297.24C72.2995 297.136 70.6533 296.373 69.4434 295.104C68.2335 293.834 67.5497 292.153 67.53 290.4C67.5855 288.62 68.3357 286.933 69.62 285.7Z" fill="white"/>
<path d="M89.4301 314.94C97.7501 314.06 109.15 308.56 114.58 304.74C115.259 305.052 115.82 305.575 116.18 306.23C116.541 306.885 116.681 307.639 116.58 308.38C116.58 308.38 99.3401 316.93 90.7101 317.5C90.1101 316.13 89.4301 314.94 89.4301 314.94Z" fill="#E8AFCE"/>
<path d="M86.5501 322.16C87.9922 322.584 89.5429 322.426 90.8701 321.72C91.528 321.38 92.1123 320.914 92.5894 320.347C93.0665 319.781 93.4269 319.126 93.6501 318.42C93.857 317.715 93.9202 316.975 93.8361 316.245C93.7519 315.515 93.522 314.81 93.1601 314.17C92.849 313.506 92.4097 312.909 91.8674 312.415C91.3251 311.921 90.6905 311.538 90.0001 311.29C88.5639 310.86 87.0162 311.011 85.6901 311.71C85.0374 312.05 84.4584 312.516 83.9864 313.08C83.5144 313.645 83.1588 314.297 82.9401 315C82.46 316.417 82.5607 317.967 83.2201 319.31C83.9111 320.662 85.1079 321.686 86.5501 322.16Z" fill="#E8AFCE"/>
<path opacity="0.2" d="M86.5501 322.16C87.9922 322.584 89.5429 322.426 90.8701 321.72C91.528 321.38 92.1123 320.914 92.5894 320.347C93.0665 319.781 93.4269 319.126 93.6501 318.42C93.857 317.715 93.9202 316.975 93.8361 316.245C93.7519 315.515 93.522 314.81 93.1601 314.17C92.849 313.506 92.4097 312.909 91.8674 312.415C91.3251 311.921 90.6905 311.538 90.0001 311.29C88.5639 310.86 87.0162 311.011 85.6901 311.71C85.0374 312.05 84.4584 312.516 83.9864 313.08C83.5144 313.645 83.1588 314.297 82.9401 315C82.46 316.417 82.5607 317.967 83.2201 319.31C83.9111 320.662 85.1079 321.686 86.5501 322.16Z" fill="white"/>
<path d="M114.42 357.43C118.42 347.43 129.34 335.21 136 329.83C135.86 328.872 135.414 327.985 134.73 327.3C134.045 326.616 133.158 326.17 132.2 326.03C132.2 326.03 115.47 344.39 111.7 354.9C113.18 356.16 114.42 357.43 114.42 357.43Z" fill="#E8AFCE"/>
<path d="M104.43 358.44C104.411 356.497 105.158 354.625 106.51 353.23C107.845 351.843 109.675 351.041 111.6 351C112.548 350.996 113.488 351.181 114.364 351.545C115.24 351.909 116.034 352.445 116.7 353.12C117.416 353.752 118 354.519 118.419 355.377C118.837 356.235 119.083 357.167 119.14 358.12C119.167 360.06 118.427 361.933 117.08 363.33C116.418 364.012 115.627 364.557 114.754 364.933C113.88 365.309 112.941 365.508 111.99 365.52C110.061 365.611 108.173 364.935 106.74 363.64C106.032 362.968 105.463 362.163 105.067 361.27C104.67 360.378 104.454 359.416 104.43 358.44Z" fill="#E8AFCE"/>
<path opacity="0.2" d="M104.43 358.44C104.411 356.497 105.158 354.625 106.51 353.23C107.845 351.843 109.675 351.041 111.6 351C112.548 350.996 113.488 351.181 114.364 351.545C115.24 351.909 116.034 352.445 116.7 353.12C117.416 353.752 118 354.519 118.419 355.377C118.837 356.235 119.083 357.167 119.14 358.12C119.167 360.06 118.427 361.933 117.08 363.33C116.418 364.012 115.627 364.557 114.754 364.933C113.88 365.309 112.941 365.508 111.99 365.52C110.061 365.611 108.173 364.935 106.74 363.64C106.032 362.968 105.463 362.163 105.067 361.27C104.67 360.378 104.454 359.416 104.43 358.44Z" fill="white"/>
<path d="M188.53 384.86C186.14 370.59 190.04 349.03 193.89 338.22C190.48 334.68 186.89 336.54 186.89 336.54C186.89 336.54 180.63 369.22 183.67 383.87C186.23 384.28 188.53 384.86 188.53 384.86Z" fill="#E8AFCE"/>
<path d="M177.83 393C176.469 390.796 176.015 388.151 176.565 385.619C177.116 383.088 178.627 380.869 180.78 379.43C183.001 378.169 185.606 377.762 188.107 378.284C190.607 378.807 192.83 380.224 194.36 382.27C195.752 384.465 196.22 387.122 195.66 389.66C195.047 392.159 193.509 394.332 191.356 395.741C189.203 397.149 186.595 397.689 184.06 397.25C181.505 396.709 179.266 395.182 177.83 393Z" fill="#E8AFCE"/>
<path opacity="0.2" d="M177.83 393C176.469 390.796 176.015 388.151 176.565 385.619C177.116 383.088 178.627 380.869 180.78 379.43C183.001 378.169 185.606 377.762 188.107 378.284C190.607 378.807 192.83 380.224 194.36 382.27C195.752 384.465 196.22 387.122 195.66 389.66C195.047 392.159 193.509 394.332 191.356 395.741C189.203 397.149 186.595 397.689 184.06 397.25C181.505 396.709 179.266 395.182 177.83 393Z" fill="white"/>
<path d="M164.31 375.51C168.08 367.16 169.16 353.32 168.55 346.08C169.219 345.602 170.025 345.354 170.847 345.372C171.669 345.39 172.462 345.674 173.11 346.18C173.11 346.18 171.68 367.18 167.46 375.69C165.81 375.52 164.31 375.51 164.31 375.51Z" fill="#E8AFCE"/>
<path d="M169.55 382.22C170.761 381.096 171.48 379.54 171.55 377.89C171.627 376.25 171.052 374.647 169.95 373.43C169.395 372.848 168.73 372.382 167.994 372.06C167.257 371.737 166.464 371.564 165.66 371.55C164.856 371.482 164.046 371.574 163.278 371.819C162.509 372.064 161.796 372.459 161.18 372.98C159.97 374.1 159.252 375.653 159.18 377.3C159.154 378.929 159.746 380.507 160.837 381.717C161.928 382.927 163.437 383.679 165.06 383.82C166.709 383.897 168.322 383.323 169.55 382.22Z" fill="#E8AFCE"/>
<path opacity="0.2" d="M169.55 382.22C170.761 381.096 171.48 379.54 171.55 377.89C171.627 376.25 171.052 374.647 169.95 373.43C169.395 372.848 168.73 372.382 167.994 372.06C167.257 371.737 166.464 371.564 165.66 371.55C164.856 371.482 164.046 371.574 163.278 371.819C162.509 372.064 161.796 372.459 161.18 372.98C159.97 374.1 159.252 375.653 159.18 377.3C159.154 378.929 159.746 380.507 160.837 381.717C161.928 382.927 163.437 383.679 165.06 383.82C166.709 383.897 168.322 383.323 169.55 382.22Z" fill="white"/>
<path d="M92.4301 330.52C98.5801 326.73 105.43 318.18 108.21 313.18C108.858 313.164 109.493 313.358 110.021 313.733C110.549 314.108 110.942 314.643 111.14 315.26C111.14 315.26 100.91 328.36 94.4101 332C93.4101 331.19 92.4301 330.52 92.4301 330.52Z" fill="#E8AFCE"/>
<path d="M92.89 337.21C94.1613 336.991 95.2988 336.289 96.0648 335.251C96.8307 334.213 97.1658 332.919 97 331.64C96.7414 330.392 96.0377 329.281 95.0202 328.514C94.0027 327.746 92.7409 327.376 91.47 327.47C90.1895 327.67 89.0395 328.367 88.27 329.41C87.893 329.924 87.622 330.508 87.4726 331.128C87.3233 331.747 87.2986 332.391 87.4 333.02C87.5573 334.3 88.2109 335.467 89.22 336.27C90.2727 337.053 91.5908 337.39 92.89 337.21Z" fill="#E8AFCE"/>
<path opacity="0.2" d="M92.89 337.21C94.1613 336.991 95.2988 336.289 96.0648 335.251C96.8307 334.213 97.1658 332.919 97 331.64C96.7414 330.392 96.0377 329.281 95.0202 328.514C94.0027 327.746 92.7409 327.376 91.47 327.47C90.1895 327.67 89.0395 328.367 88.27 329.41C87.893 329.924 87.622 330.508 87.4726 331.128C87.3233 331.747 87.2986 332.391 87.4 333.02C87.5573 334.3 88.2109 335.467 89.22 336.27C90.2727 337.053 91.5908 337.39 92.89 337.21Z" fill="white"/>
<path d="M253.84 374C247.54 366.42 242.46 352.39 241.02 344.71C240.189 344.408 239.283 344.383 238.437 344.637C237.59 344.891 236.848 345.411 236.32 346.12C236.32 346.12 243.82 367.51 250.63 375.12C252.28 374.47 253.84 374 253.84 374Z" fill="#E8AFCE"/>
<path d="M250.32 382.48C248.756 381.653 247.578 380.246 247.04 378.56C246.488 376.884 246.621 375.058 247.41 373.48C248.284 371.966 249.683 370.825 251.341 370.272C252.999 369.72 254.803 369.793 256.41 370.48C257.559 371.106 258.503 372.05 259.128 373.199C259.754 374.349 260.033 375.654 259.934 376.959C259.835 378.264 259.361 379.512 258.569 380.553C257.777 381.595 256.701 382.386 255.47 382.83C253.774 383.397 251.923 383.271 250.32 382.48Z" fill="#E8AFCE"/>
<path opacity="0.2" d="M250.32 382.48C248.756 381.653 247.578 380.246 247.04 378.56C246.488 376.884 246.621 375.058 247.41 373.48C248.284 371.966 249.683 370.825 251.341 370.272C252.999 369.72 254.803 369.793 256.41 370.48C257.559 371.106 258.503 372.05 259.128 373.199C259.754 374.349 260.033 375.654 259.934 376.959C259.835 378.264 259.361 379.512 258.569 380.553C257.777 381.595 256.701 382.386 255.47 382.83C253.774 383.397 251.923 383.271 250.32 382.48Z" fill="white"/>
<path d="M271.12 353.94C267.48 346.41 258.44 337.54 253.01 333.73C253.069 332.983 253.367 332.275 253.861 331.711C254.355 331.147 255.017 330.757 255.75 330.6C255.75 330.6 269.63 343.92 273.09 351.84C272 352.89 271.12 353.94 271.12 353.94Z" fill="#E8AFCE"/>
<path d="M278.89 354.2C278.805 352.699 278.134 351.291 277.02 350.28C275.917 349.265 274.457 348.73 272.96 348.79C271.492 348.936 270.128 349.613 269.124 350.694C268.121 351.775 267.547 353.185 267.51 354.66C267.585 356.16 268.25 357.569 269.36 358.58C270.484 359.551 271.933 360.06 273.417 360.007C274.901 359.953 276.31 359.34 277.36 358.29C278.388 357.181 278.938 355.711 278.89 354.2Z" fill="#E8AFCE"/>
<path opacity="0.2" d="M278.89 354.2C278.805 352.699 278.134 351.291 277.02 350.28C275.917 349.265 274.457 348.73 272.96 348.79C271.492 348.936 270.128 349.613 269.124 350.694C268.121 351.775 267.547 353.185 267.51 354.66C267.585 356.16 268.25 357.569 269.36 358.58C270.484 359.551 271.933 360.06 273.417 360.007C274.901 359.953 276.31 359.34 277.36 358.29C278.388 357.181 278.938 355.711 278.89 354.2Z" fill="white"/>
<path d="M294.39 336.64C284.07 333.48 270.98 323.64 265.05 317.51C264.108 317.732 263.263 318.252 262.639 318.992C262.016 319.732 261.648 320.654 261.59 321.62C261.59 321.62 281.31 336.71 292.11 339.57C293.24 338 294.39 336.64 294.39 336.64Z" fill="#E8AFCE"/>
<path d="M296.26 346.5C294.334 346.681 292.413 346.105 290.904 344.893C289.396 343.682 288.419 341.93 288.18 340.01C288.081 338.106 288.68 336.232 289.863 334.737C291.047 333.242 292.734 332.23 294.61 331.89C296.538 331.692 298.466 332.267 299.97 333.49C301.431 334.733 302.367 336.484 302.589 338.389C302.812 340.294 302.305 342.213 301.17 343.76C299.958 345.284 298.193 346.268 296.26 346.5Z" fill="#E8AFCE"/>
<path opacity="0.2" d="M296.26 346.5C294.334 346.681 292.413 346.105 290.904 344.893C289.396 343.682 288.419 341.93 288.18 340.01C288.081 338.106 288.68 336.232 289.863 334.737C291.047 333.242 292.734 332.23 294.61 331.89C296.538 331.692 298.466 332.267 299.97 333.49C301.431 334.733 302.367 336.484 302.589 338.389C302.812 340.294 302.305 342.213 301.17 343.76C299.958 345.284 298.193 346.268 296.26 346.5Z" fill="white"/>
<path d="M305.05 280.07C290.6 280.78 269.64 274.4 259.35 269.32C255.44 272.32 256.86 276.09 256.86 276.09C256.86 276.09 288.59 286.09 303.5 284.8C304.2 282.28 305.05 280.07 305.05 280.07Z" fill="#E8AFCE"/>
<path d="M311.89 291.64C309.541 292.759 306.845 292.902 304.39 292.04C303.173 291.633 302.048 290.99 301.08 290.148C300.112 289.305 299.32 288.28 298.75 287.13C297.756 284.778 297.654 282.145 298.464 279.723C299.274 277.302 300.941 275.26 303.15 273.98C305.492 272.854 308.183 272.696 310.64 273.54C313.049 274.443 315.028 276.225 316.178 278.527C317.328 280.829 317.564 283.481 316.84 285.95C315.996 288.42 314.219 290.462 311.89 291.64Z" fill="#E8AFCE"/>
<path opacity="0.2" d="M311.89 291.64C309.541 292.759 306.845 292.902 304.39 292.04C303.173 291.633 302.048 290.99 301.08 290.148C300.112 289.305 299.32 288.28 298.75 287.13C297.756 284.778 297.654 282.145 298.464 279.723C299.274 277.302 300.941 275.26 303.15 273.98C305.492 272.854 308.183 272.696 310.64 273.54C313.049 274.443 315.028 276.225 316.178 278.527C317.328 280.829 317.564 283.481 316.84 285.95C315.996 288.42 314.219 290.462 311.89 291.64Z" fill="white"/>
<path d="M295.88 313.18C288.02 308.47 274.4 305.78 267.14 305.55C266.743 304.83 266.59 304 266.703 303.185C266.817 302.371 267.191 301.614 267.77 301.03C267.77 301.03 288.49 304.89 296.42 310.08C296.06 311.69 295.88 313.18 295.88 313.18Z" fill="#E8AFCE"/>
<path d="M303.15 308.75C302.166 307.435 300.71 306.554 299.088 306.292C297.467 306.031 295.807 306.41 294.46 307.35C293.212 308.372 292.376 309.811 292.108 311.401C291.84 312.992 292.156 314.625 293 316C293.739 316.966 294.74 317.698 295.885 318.109C297.029 318.52 298.268 318.592 299.453 318.317C300.637 318.041 301.717 317.43 302.562 316.556C303.408 315.682 303.984 314.583 304.22 313.39C304.48 311.763 304.096 310.099 303.15 308.75Z" fill="#E8AFCE"/>
<path opacity="0.2" d="M303.15 308.75C302.166 307.435 300.71 306.554 299.088 306.292C297.467 306.031 295.807 306.41 294.46 307.35C293.212 308.372 292.376 309.811 292.108 311.401C291.84 312.992 292.156 314.625 293 316C293.739 316.966 294.74 317.698 295.885 318.109C297.029 318.52 298.268 318.592 299.453 318.317C300.637 318.041 301.717 317.43 302.562 316.556C303.408 315.682 303.984 314.583 304.22 313.39C304.48 311.763 304.096 310.099 303.15 308.75Z" fill="white"/>
<path d="M300.47 253.79C293.47 255.45 284.27 261.4 280.03 265.26C279.411 265.07 278.87 264.685 278.488 264.162C278.106 263.64 277.903 263.007 277.91 262.36C277.91 262.36 291.75 253.17 299.08 251.74C299.76 252.85 300.47 253.79 300.47 253.79Z" fill="#E8AFCE"/>
<path d="M302.16 247.3C300.879 247.101 299.572 247.406 298.512 248.152C297.452 248.899 296.724 250.027 296.48 251.3C296.381 251.927 296.407 252.567 296.558 253.184C296.709 253.8 296.982 254.38 297.36 254.89C298.043 255.963 299.12 256.725 300.36 257.01C301.642 257.229 302.958 256.93 304.02 256.18C304.546 255.814 304.993 255.347 305.336 254.806C305.68 254.265 305.912 253.661 306.02 253.03C306.152 252.401 306.155 251.751 306.031 251.121C305.906 250.49 305.656 249.891 305.294 249.359C304.933 248.827 304.469 248.373 303.929 248.025C303.388 247.676 302.783 247.44 302.15 247.33L302.16 247.3Z" fill="#E8AFCE"/>
<path opacity="0.2" d="M302.16 247.3C300.879 247.101 299.572 247.406 298.512 248.152C297.452 248.899 296.724 250.027 296.48 251.3C296.381 251.927 296.407 252.567 296.558 253.184C296.709 253.8 296.982 254.38 297.36 254.89C298.043 255.963 299.12 256.725 300.36 257.01C301.642 257.229 302.958 256.93 304.02 256.18C304.546 255.814 304.993 255.347 305.336 254.806C305.68 254.265 305.912 253.661 306.02 253.03C306.152 252.401 306.155 251.751 306.031 251.121C305.906 250.49 305.656 249.891 305.294 249.359C304.933 248.827 304.469 248.373 303.929 248.025C303.388 247.676 302.783 247.44 302.15 247.33L302.16 247.3Z" fill="white"/>
<path d="M299.18 227.6C290.92 232.97 276.39 236.39 268.59 236.92C268.193 237.711 268.061 238.609 268.214 239.481C268.368 240.352 268.797 241.152 269.44 241.76C269.44 241.76 291.56 236.76 299.89 230.92C299.44 229.2 299.18 227.6 299.18 227.6Z" fill="#E8AFCE"/>
<path d="M307.17 232.08C306.167 233.539 304.629 234.545 302.89 234.88C302.032 235.051 301.148 235.051 300.29 234.879C299.432 234.707 298.616 234.368 297.89 233.88C296.502 232.834 295.541 231.319 295.188 229.617C294.835 227.915 295.113 226.142 295.97 224.63C296.965 223.163 298.5 222.149 300.24 221.81C301.09 221.642 301.965 221.644 302.815 221.815C303.665 221.987 304.472 222.325 305.19 222.81C306.681 223.749 307.739 225.242 308.13 226.96C308.5 228.726 308.155 230.568 307.17 232.08Z" fill="#E8AFCE"/>
<path opacity="0.2" d="M307.17 232.08C306.167 233.539 304.629 234.545 302.89 234.88C302.032 235.051 301.148 235.051 300.29 234.879C299.432 234.707 298.616 234.368 297.89 233.88C296.502 232.834 295.541 231.319 295.188 229.617C294.835 227.915 295.113 226.142 295.97 224.63C296.965 223.163 298.5 222.149 300.24 221.81C301.09 221.642 301.965 221.644 302.815 221.815C303.665 221.987 304.472 222.325 305.19 222.81C306.681 223.749 307.739 225.242 308.13 226.96C308.5 228.726 308.155 230.568 307.17 232.08Z" fill="white"/>
<path d="M281.24 208.1C273.34 210.84 263.48 218.79 259.06 223.74C258.325 223.593 257.656 223.213 257.154 222.657C256.651 222.1 256.341 221.396 256.27 220.65C256.27 220.65 271.11 208.41 279.39 205.9C280.31 207.09 281.24 208.1 281.24 208.1Z" fill="#E8AFCE"/>
<path d="M282.4 200.41C280.904 200.331 279.437 200.836 278.305 201.816C277.173 202.797 276.465 204.178 276.33 205.67C276.308 207.147 276.825 208.58 277.784 209.703C278.743 210.826 280.078 211.561 281.54 211.77C283.04 211.869 284.518 211.369 285.65 210.38C286.204 209.893 286.656 209.301 286.981 208.639C287.305 207.976 287.495 207.256 287.54 206.52C287.683 205.033 287.234 203.549 286.29 202.39C285.302 201.247 283.906 200.536 282.4 200.41Z" fill="#E8AFCE"/>
<path opacity="0.2" d="M282.4 200.41C280.904 200.331 279.437 200.836 278.305 201.816C277.173 202.797 276.465 204.178 276.33 205.67C276.308 207.147 276.825 208.58 277.784 209.703C278.743 210.826 280.078 211.561 281.54 211.77C283.04 211.869 284.518 211.369 285.65 210.38C286.204 209.893 286.656 209.301 286.981 208.639C287.305 207.976 287.495 207.256 287.54 206.52C287.683 205.033 287.234 203.549 286.29 202.39C285.302 201.247 283.906 200.536 282.4 200.41Z" fill="white"/>
<g opacity="0.1">
<path opacity="0.1" d="M267.39 266.41C267.39 271.93 264.53 276.98 263.39 282.22C262.25 287.46 261.6 292.85 259.39 297.8C257.174 302.71 254.495 307.398 251.39 311.8C248.42 316.307 245.043 320.531 241.3 324.42C237.44 328.161 233.22 331.51 228.7 334.42C224.301 337.471 219.612 340.08 214.7 342.21C209.75 344.28 204.82 346.48 199.46 347.57C194.1 348.66 188.84 348.39 183.34 348.39C177.84 348.39 172.94 346.73 167.82 345.56C162.53 344.36 157.04 344.44 152.22 342.19C147.4 339.94 143.76 335.73 139.41 332.61C135.06 329.49 129.64 327.7 125.86 323.92C122.08 320.14 117.8 316.52 114.61 312.16C111.42 307.8 110.27 302.16 107.93 297.31C105.52 292.528 103.636 287.498 102.31 282.31C101.09 277.17 101.5 271.94 101.5 266.42C101.5 260.9 98.5001 255.04 99.6101 249.79C100.72 244.54 104.61 239.72 106.73 234.79C108.85 229.86 110.59 224.37 113.63 219.91C116.67 215.45 120.71 211.43 124.52 207.62C128.33 203.81 133.42 201.62 137.95 198.62C142.396 195.687 147.131 193.218 152.08 191.25C157.03 189.31 161.88 186.89 167.25 185.9C172.46 184.9 177.86 185.9 183.34 185.9C188.691 185.75 194.045 186.068 199.34 186.85C204.73 187.79 209.5 189.97 214.5 191.85C219.5 193.73 224.8 194.96 229.34 197.85C233.88 200.74 238.61 203.5 242.44 207.32C246.27 211.14 249.25 215.75 252.31 220.32C255.37 224.89 256.78 230.04 258.91 235.12C261.04 240.2 266.01 244.33 267.12 249.72C268.23 255.11 267.39 260.88 267.39 266.41Z" fill="white"/>
</g>
<path d="M193.285 248.854C193.744 241.938 190.467 236.089 185.964 235.79C181.462 235.491 177.44 240.855 176.981 247.771C176.521 254.687 179.799 260.536 184.301 260.835C188.803 261.134 192.825 255.77 193.285 248.854Z" fill="white"/>
<path d="M144.312 248.097C144.771 241.181 141.494 235.332 136.991 235.033C132.489 234.734 128.467 240.098 128.008 247.014C127.548 253.93 130.826 259.779 135.328 260.078C139.83 260.377 143.852 255.013 144.312 248.097Z" fill="white"/>
<path d="M164.46 287.78C196.46 290.03 215.57 271.25 216.46 270.38C216.906 269.929 217.157 269.32 217.157 268.685C217.157 268.05 216.906 267.441 216.46 266.99C216.24 266.767 215.977 266.59 215.688 266.47C215.399 266.349 215.088 266.287 214.775 266.287C214.462 266.287 214.151 266.349 213.862 266.47C213.573 266.59 213.31 266.767 213.09 266.99C212.87 267.2 191.09 288.61 155.95 281.84C155.642 281.779 155.325 281.781 155.017 281.845C154.709 281.908 154.417 282.033 154.158 282.211C153.9 282.388 153.679 282.616 153.509 282.881C153.339 283.145 153.224 283.441 153.17 283.75C153.056 284.377 153.193 285.023 153.553 285.55C153.912 286.076 154.465 286.439 155.09 286.56C158.187 287.148 161.316 287.555 164.46 287.78Z" fill="white"/>
<path d="M187.12 219.37C186.821 219.724 186.614 220.146 186.52 220.6C186.447 220.954 186.444 221.319 186.512 221.674C186.58 222.029 186.718 222.367 186.916 222.669C187.115 222.97 187.371 223.23 187.671 223.433C187.97 223.636 188.306 223.777 188.66 223.85C192.884 224.834 197.285 224.768 201.478 223.658C205.67 222.547 209.527 220.426 212.71 217.48C212.964 217.222 213.163 216.915 213.296 216.578C213.428 216.241 213.492 215.881 213.482 215.519C213.473 215.157 213.391 214.8 213.241 214.471C213.091 214.141 212.877 213.845 212.61 213.6C212.08 213.099 211.373 212.826 210.644 212.841C209.914 212.856 209.219 213.157 208.71 213.68C208.34 214.06 201.37 220.92 189.78 218.49C189.298 218.388 188.798 218.416 188.331 218.57C187.864 218.725 187.446 219.001 187.12 219.37Z" fill="white"/>
<path d="M134.15 220C133.932 219.612 133.622 219.282 133.247 219.042C132.872 218.801 132.444 218.656 132 218.62C119.56 217.62 114.41 208.8 114.36 208.71C114.182 208.397 113.943 208.123 113.658 207.903C113.373 207.683 113.047 207.521 112.699 207.428C112.351 207.335 111.988 207.312 111.631 207.361C111.274 207.409 110.931 207.528 110.62 207.71C109.997 208.081 109.544 208.681 109.357 209.382C109.17 210.082 109.265 210.828 109.62 211.46C109.88 211.93 116.27 222.87 131.54 224.11C132.04 224.15 132.541 224.053 132.99 223.831C133.44 223.608 133.82 223.268 134.091 222.846C134.362 222.424 134.514 221.936 134.529 221.435C134.545 220.934 134.424 220.438 134.18 220H134.15Z" fill="white"/>
<path opacity="0.2" d="M387.8 86.24C372.29 84.24 357.12 89.3 345.62 98.12C333.613 107.299 325.735 120.863 323.71 135.84C321.71 151.35 327.21 165.71 336.03 177.22C344.85 188.73 357.23 198.22 372.74 200.22C388.25 202.22 403.42 197.34 414.93 188.52C426.44 179.7 434.09 166.19 436.14 150.68C438.19 135.17 434.65 119.87 425.83 108.36C416.541 96.2891 402.885 88.3462 387.8 86.24Z" fill="#263238"/>
<path d="M392.66 186.35C389.346 194.016 386.465 201.862 384.03 209.85C383.13 212.98 372.19 218.85 370.76 219.28C370.76 222.69 371.11 225.67 371.17 227.87C371.183 227.99 371.151 228.111 371.079 228.208C371.008 228.305 370.902 228.372 370.783 228.395C370.665 228.417 370.542 228.395 370.439 228.331C370.337 228.267 370.262 228.167 370.23 228.05C368.657 224.563 367.735 220.818 367.51 217C374.77 217.2 376.41 211.27 380.66 209.52C382.56 201.16 383.34 191.2 384.23 189.78C387.43 188.28 392.66 186.35 392.66 186.35Z" fill="#263238"/>
<path opacity="0.2" d="M384.24 189.74C383.81 190.42 383.41 193 382.91 196.44C385.001 196.125 387.068 195.674 389.1 195.09C390.57 191.3 391.9 188.09 392.66 186.36C392.66 186.36 387.43 188.28 384.24 189.74Z" fill="black"/>
<path d="M376.72 92.47C362.93 93.47 350.72 100.47 342.26 110.18C333.48 120.251 329.044 133.388 329.92 146.72C330.92 160.51 338.21 171.99 347.92 180.4C357.63 188.81 369.98 194.84 383.77 193.88C397.137 192.81 409.538 186.497 418.27 176.32C426.69 166.66 430.95 153.6 429.99 139.8C429.03 126 423.28 113.36 413.61 104.95C403.431 96.1038 390.179 91.6205 376.72 92.47Z" fill="#263238"/>
<path opacity="0.2" d="M365.76 186.59L362.42 189.87C363.5 190.36 364.59 190.8 365.7 191.21C365.859 189.675 365.879 188.129 365.76 186.59Z" fill="black"/>
<path d="M366.43 186.23C361.415 192.905 356.777 199.856 352.54 207.05C350.93 209.89 339.24 212.05 337.85 212.63C338.119 215.598 338.553 218.55 339.15 221.47C339.169 221.582 339.149 221.697 339.092 221.796C339.036 221.895 338.947 221.971 338.84 222.011C338.734 222.051 338.617 222.053 338.509 222.017C338.401 221.98 338.31 221.907 338.25 221.81C336.227 218.377 334.918 214.571 334.4 210.62C341.65 210.14 344.81 206.62 349.4 205.91C353.19 198.23 357.14 186.65 358.33 185.48C361.74 184.8 366.43 186.23 366.43 186.23Z" fill="#263238"/>
<path d="M425.2 96.9C420.08 99.56 414.14 105.98 411.61 109.8C411.092 109.774 410.597 109.582 410.197 109.253C409.797 108.923 409.514 108.473 409.39 107.97C409.39 107.97 418.31 98.13 423.72 95.58C424.46 96.31 425.2 96.9 425.2 96.9Z" fill="#263238"/>
<path d="M425.23 91.53C424.195 91.6255 423.237 92.1204 422.56 92.91C422.223 93.2935 421.965 93.7404 421.802 94.2245C421.638 94.7087 421.573 95.2205 421.61 95.73C421.741 96.7401 422.236 97.6678 423.002 98.3396C423.767 99.0114 424.751 99.3812 425.77 99.38C426.528 99.296 427.247 98.997 427.84 98.5182C428.434 98.0393 428.879 97.4007 429.122 96.6775C429.364 95.9544 429.395 95.1769 429.211 94.4367C429.026 93.6965 428.634 93.0246 428.08 92.5C427.293 91.8179 426.27 91.4699 425.23 91.53Z" fill="#263238"/>
<path opacity="0.2" d="M425.23 91.53C424.195 91.6255 423.237 92.1204 422.56 92.91C422.223 93.2935 421.965 93.7404 421.802 94.2245C421.638 94.7087 421.573 95.2205 421.61 95.73C421.741 96.7401 422.236 97.6678 423.002 98.3396C423.767 99.0114 424.751 99.3812 425.77 99.38C426.528 99.296 427.247 98.997 427.84 98.5182C428.434 98.0393 428.879 97.4007 429.122 96.6775C429.364 95.9544 429.395 95.1769 429.211 94.4367C429.026 93.6965 428.634 93.0246 428.08 92.5C427.293 91.8179 426.27 91.4699 425.23 91.53Z" fill="white"/>
<path d="M439 128C431.33 129 420.92 134.4 416 138.07C415.353 137.806 414.809 137.34 414.449 136.742C414.088 136.144 413.931 135.445 414 134.75C414 134.75 429.73 126.41 437.69 125.66C438.38 126.94 439 128 439 128Z" fill="#263238"/>
<path d="M441.52 121.27C440.852 121.09 440.155 121.043 439.468 121.132C438.782 121.221 438.12 121.445 437.52 121.79C436.656 122.323 435.961 123.091 435.517 124.004C435.073 124.917 434.898 125.937 435.013 126.946C435.127 127.955 435.526 128.91 436.163 129.701C436.8 130.491 437.649 131.084 438.61 131.41C439.957 131.778 441.395 131.598 442.61 130.91C443.803 130.225 444.676 129.096 445.04 127.77C445.447 126.44 445.314 125.003 444.67 123.77C443.983 122.561 442.854 121.665 441.52 121.27Z" fill="#263238"/>
<path opacity="0.2" d="M441.52 121.27C440.852 121.09 440.155 121.043 439.468 121.132C438.782 121.221 438.12 121.445 437.52 121.79C436.656 122.323 435.961 123.091 435.517 124.004C435.073 124.917 434.898 125.937 435.013 126.946C435.127 127.955 435.526 128.91 436.163 129.701C436.8 130.491 437.649 131.084 438.61 131.41C439.957 131.778 441.395 131.598 442.61 130.91C443.803 130.225 444.676 129.096 445.04 127.77C445.447 126.44 445.314 125.003 444.67 123.77C443.983 122.561 442.854 121.665 441.52 121.27Z" fill="white"/>
<path d="M430 111.68C426.32 114.92 419.42 117.68 415.62 118.47C415.474 118.887 415.47 119.342 415.609 119.761C415.749 120.181 416.023 120.543 416.39 120.79C416.39 120.79 426.92 116.79 430.59 113.26C430.2 112.45 430 111.68 430 111.68Z" fill="#263238"/>
<path d="M434.22 113.31C433.827 114.1 433.142 114.706 432.31 115C431.484 115.295 430.575 115.252 429.78 114.88C429.394 114.69 429.05 114.424 428.77 114.097C428.49 113.771 428.279 113.391 428.15 112.98C427.984 112.582 427.899 112.156 427.899 111.725C427.899 111.294 427.984 110.868 428.15 110.47C428.539 109.678 429.22 109.069 430.05 108.77C430.881 108.502 431.783 108.56 432.574 108.931C433.365 109.302 433.985 109.959 434.31 110.77C434.607 111.597 434.575 112.506 434.22 113.31Z" fill="#263238"/>
<path opacity="0.2" d="M434.22 113.31C433.827 114.1 433.142 114.706 432.31 115C431.484 115.295 430.575 115.252 429.78 114.88C429.394 114.69 429.05 114.424 428.77 114.097C428.49 113.771 428.279 113.391 428.15 112.98C427.984 112.582 427.899 112.156 427.899 111.725C427.899 111.294 427.984 110.868 428.15 110.47C428.539 109.678 429.22 109.069 430.05 108.77C430.881 108.502 431.783 108.56 432.574 108.931C433.365 109.302 433.985 109.959 434.31 110.77C434.607 111.597 434.575 112.506 434.22 113.31Z" fill="white"/>
<path d="M438.11 142.48C434.25 142.29 428.85 140.04 426.25 138.42C425.944 138.581 425.697 138.836 425.546 139.147C425.394 139.458 425.347 139.81 425.41 140.15C425.41 140.15 433.58 143.65 437.58 143.69C437.83 143 438.11 142.48 438.11 142.48Z" fill="#263238"/>
<path d="M439.63 145.73C439.307 145.848 438.964 145.902 438.621 145.886C438.278 145.871 437.941 145.787 437.63 145.64C437.001 145.354 436.509 144.834 436.26 144.19C436.06 143.538 436.104 142.836 436.384 142.214C436.663 141.592 437.16 141.093 437.78 140.81C438.431 140.574 439.149 140.603 439.78 140.89C440.089 141.035 440.367 141.239 440.597 141.491C440.827 141.744 441.005 142.039 441.12 142.36C441.25 142.678 441.315 143.019 441.31 143.362C441.306 143.705 441.233 144.044 441.095 144.359C440.956 144.673 440.757 144.957 440.507 145.192C440.257 145.428 439.962 145.611 439.64 145.73H439.63Z" fill="#263238"/>
<path opacity="0.2" d="M439.63 145.73C439.307 145.848 438.964 145.902 438.621 145.886C438.278 145.871 437.941 145.787 437.63 145.64C437.001 145.354 436.509 144.834 436.26 144.19C436.06 143.538 436.104 142.836 436.384 142.214C436.663 141.592 437.16 141.093 437.78 140.81C438.431 140.574 439.149 140.603 439.78 140.89C440.089 141.035 440.367 141.239 440.597 141.491C440.827 141.744 441.005 142.039 441.12 142.36C441.25 142.678 441.315 143.019 441.31 143.362C441.306 143.705 441.233 144.044 441.095 144.359C440.956 144.673 440.757 144.957 440.507 145.192C440.257 145.428 439.962 145.611 439.64 145.73H439.63Z" fill="white"/>
<path d="M440 156.38C435.13 154.38 427.16 153.96 423 154.43C422.719 154.051 422.568 153.592 422.568 153.12C422.568 152.648 422.719 152.189 423 151.81C423 151.81 435.11 152.28 440.06 154.57C439.94 155.52 440 156.38 440 156.38Z" fill="#263238"/>
<path d="M443.73 153.26C443.067 152.574 442.159 152.18 441.205 152.164C440.251 152.148 439.331 152.512 438.645 153.175C437.959 153.838 437.565 154.746 437.549 155.7C437.533 156.654 437.897 157.574 438.56 158.26C439.223 158.946 440.131 159.34 441.085 159.356C442.039 159.372 442.959 159.008 443.645 158.345C444.331 157.682 444.725 156.774 444.741 155.82C444.757 154.866 444.393 153.946 443.73 153.26Z" fill="#263238"/>
<path opacity="0.2" d="M443.73 153.26C443.067 152.574 442.159 152.18 441.205 152.164C440.251 152.148 439.331 152.512 438.645 153.175C437.959 153.838 437.565 154.746 437.549 155.7C437.533 156.654 437.897 157.574 438.56 158.26C439.223 158.946 440.131 159.34 441.085 159.356C442.039 159.372 442.959 159.008 443.645 158.345C444.331 157.682 444.725 156.774 444.741 155.82C444.757 154.866 444.393 153.946 443.73 153.26Z" fill="white"/>
<path d="M432.4 168.37C427.98 167.7 422.03 164.46 419.23 162.29C418.857 162.436 418.541 162.699 418.33 163.04C418.118 163.381 418.024 163.781 418.06 164.18C418.06 164.18 427.06 169.18 431.64 169.71C432 169 432.4 168.37 432.4 168.37Z" fill="#263238"/>
<path d="M433.76 172.3C432.978 172.494 432.152 172.372 431.46 171.96C431.117 171.761 430.816 171.496 430.576 171.18C430.335 170.864 430.16 170.504 430.06 170.12C429.907 169.346 430.041 168.543 430.436 167.86C430.832 167.177 431.462 166.662 432.21 166.41C432.595 166.312 432.996 166.292 433.389 166.35C433.782 166.409 434.16 166.544 434.5 166.75C435.182 167.158 435.675 167.819 435.87 168.59C435.981 168.971 436.015 169.371 435.971 169.766C435.926 170.161 435.803 170.543 435.61 170.89C435.201 171.583 434.537 172.089 433.76 172.3Z" fill="#263238"/>
<path opacity="0.2" d="M433.76 172.3C432.978 172.494 432.152 172.372 431.46 171.96C431.117 171.761 430.816 171.496 430.576 171.18C430.335 170.864 430.16 170.504 430.06 170.12C429.907 169.346 430.041 168.543 430.436 167.86C430.832 167.177 431.462 166.662 432.21 166.41C432.595 166.312 432.996 166.292 433.389 166.35C433.782 166.409 434.16 166.544 434.5 166.75C435.182 167.158 435.675 167.819 435.87 168.59C435.981 168.971 436.015 169.371 435.971 169.766C435.926 170.161 435.803 170.543 435.61 170.89C435.201 171.583 434.537 172.089 433.76 172.3Z" fill="white"/>
<path d="M429.58 181C426.34 176.22 419.28 171.07 415.19 169C415.156 168.484 415.289 167.97 415.57 167.536C415.851 167.102 416.265 166.77 416.75 166.59C416.75 166.59 427.56 174.3 430.75 179.37C430.08 180.18 429.58 181 429.58 181Z" fill="#263238"/>
<path d="M434.91 180.39C434.695 179.379 434.097 178.491 433.241 177.911C432.386 177.331 431.339 177.105 430.32 177.28C429.821 177.389 429.35 177.597 428.934 177.892C428.518 178.188 428.166 178.565 427.9 179C427.595 179.408 427.374 179.873 427.25 180.368C427.127 180.862 427.103 181.376 427.18 181.88C427.384 182.896 427.981 183.791 428.84 184.37C429.705 184.922 430.747 185.125 431.757 184.94C432.766 184.754 433.667 184.193 434.28 183.37C434.875 182.499 435.101 181.428 434.91 180.39Z" fill="#263238"/>
<path opacity="0.2" d="M434.91 180.39C434.695 179.379 434.097 178.491 433.241 177.911C432.386 177.331 431.339 177.105 430.32 177.28C429.821 177.389 429.35 177.597 428.934 177.892C428.518 178.188 428.166 178.565 427.9 179C427.595 179.408 427.374 179.873 427.25 180.368C427.127 180.862 427.103 181.376 427.18 181.88C427.384 182.896 427.981 183.791 428.84 184.37C429.705 184.922 430.747 185.125 431.757 184.94C432.766 184.754 433.667 184.193 434.28 183.37C434.875 182.499 435.101 181.428 434.91 180.39Z" fill="white"/>
<path d="M401.93 201C400.03 193.5 393.48 183.79 389.27 179.32C389.463 178.655 389.864 178.069 390.415 177.65C390.966 177.23 391.638 176.999 392.33 176.99C392.33 176.99 402.44 191.64 404.11 199.47C402.93 200.23 401.93 201 401.93 201Z" fill="#263238"/>
<path d="M408.93 202.69C409.119 201.319 408.77 199.928 407.955 198.809C407.14 197.69 405.923 196.931 404.56 196.69C403.207 196.565 401.854 196.933 400.752 197.727C399.649 198.521 398.87 199.687 398.56 201.01C398.364 202.391 398.724 203.794 399.56 204.91C400.388 206 401.614 206.719 402.97 206.91C404.327 207.16 405.728 206.865 406.87 206.09C407.969 205.264 408.707 204.046 408.93 202.69Z" fill="#263238"/>
<path opacity="0.2" d="M408.93 202.69C409.119 201.319 408.77 199.928 407.955 198.809C407.14 197.69 405.923 196.931 404.56 196.69C403.207 196.565 401.854 196.933 400.752 197.727C399.649 198.521 398.87 199.687 398.56 201.01C398.364 202.391 398.724 203.794 399.56 204.91C400.388 206 401.614 206.719 402.97 206.91C404.327 207.16 405.728 206.865 406.87 206.09C407.969 205.264 408.707 204.046 408.93 202.69Z" fill="white"/>
<path d="M415.45 187.43C411.81 184.15 408.3 177.61 407.04 173.93C406.613 173.84 406.169 173.888 405.771 174.068C405.374 174.248 405.044 174.55 404.83 174.93C404.83 174.93 410.06 184.93 413.95 188.17C414.72 187.76 415.45 187.43 415.45 187.43Z" fill="#263238"/>
<path d="M414.33 191.84C413.501 191.547 412.82 190.941 412.432 190.153C412.043 189.365 411.978 188.456 412.25 187.62C412.576 186.819 413.181 186.164 413.954 185.776C414.726 185.388 415.613 185.294 416.45 185.51C417.278 185.796 417.959 186.399 418.343 187.186C418.727 187.974 418.784 188.881 418.5 189.71C418.374 190.129 418.165 190.519 417.885 190.855C417.605 191.191 417.26 191.467 416.87 191.666C416.48 191.865 416.054 191.983 415.618 192.013C415.181 192.043 414.743 191.984 414.33 191.84Z" fill="#263238"/>
<path opacity="0.2" d="M414.33 191.84C413.501 191.547 412.82 190.941 412.432 190.153C412.043 189.365 411.978 188.456 412.25 187.62C412.576 186.819 413.181 186.164 413.954 185.776C414.726 185.388 415.613 185.294 416.45 185.51C417.278 185.796 417.959 186.399 418.343 187.186C418.727 187.974 418.784 188.881 418.5 189.71C418.374 190.129 418.165 190.519 417.885 190.855C417.605 191.191 417.26 191.467 416.87 191.666C416.48 191.865 416.054 191.983 415.618 192.013C415.181 192.043 414.743 191.984 414.33 191.84Z" fill="white"/>
<path d="M321.38 136.51C325.22 136.04 330.92 137.33 333.76 138.51C334.037 138.301 334.239 138.007 334.334 137.674C334.43 137.34 334.414 136.984 334.29 136.66C334.29 136.66 325.65 134.66 321.7 135.25C321.57 135.9 321.38 136.51 321.38 136.51Z" fill="#263238"/>
<path d="M319.34 133.56C319.641 133.389 319.972 133.279 320.315 133.236C320.658 133.193 321.007 133.218 321.34 133.31C321.67 133.394 321.981 133.542 322.254 133.747C322.526 133.951 322.756 134.207 322.93 134.5C323.239 135.107 323.318 135.806 323.15 136.466C322.983 137.127 322.581 137.704 322.02 138.09C321.571 138.338 321.059 138.451 320.547 138.415C320.035 138.379 319.544 138.196 319.134 137.887C318.724 137.579 318.412 137.158 318.235 136.676C318.059 136.193 318.026 135.671 318.14 135.17C318.314 134.497 318.745 133.919 319.34 133.56Z" fill="#263238"/>
<path opacity="0.2" d="M319.34 133.56C319.641 133.389 319.972 133.279 320.315 133.236C320.658 133.193 321.007 133.218 321.34 133.31C321.67 133.394 321.981 133.542 322.254 133.747C322.526 133.951 322.756 134.207 322.93 134.5C323.239 135.107 323.318 135.806 323.15 136.466C322.983 137.127 322.581 137.704 322.02 138.09C321.571 138.338 321.059 138.451 320.547 138.415C320.035 138.379 319.544 138.196 319.134 137.887C318.724 137.579 318.412 137.158 318.235 136.676C318.059 136.193 318.026 135.671 318.14 135.17C318.314 134.497 318.745 133.919 319.34 133.56Z" fill="white"/>
<path d="M372.22 202.55C373.67 197.49 373.13 189.55 372.22 185.45C372.563 185.123 373.002 184.915 373.472 184.857C373.942 184.8 374.418 184.895 374.83 185.13C374.83 185.13 375.76 197.22 374.06 202.4C373.07 202.44 372.22 202.55 372.22 202.55Z" fill="#263238"/>
<path d="M375.76 205.94C376.333 205.2 376.599 204.267 376.502 203.336C376.405 202.405 375.953 201.547 375.24 200.94C374.876 200.654 374.458 200.444 374.012 200.322C373.565 200.2 373.099 200.169 372.64 200.23C372.176 200.257 371.723 200.376 371.305 200.581C370.888 200.785 370.516 201.07 370.21 201.42C369.616 202.157 369.339 203.099 369.44 204.04C369.562 204.969 370.031 205.817 370.753 206.414C371.474 207.011 372.395 207.313 373.33 207.26C374.282 207.156 375.154 206.682 375.76 205.94Z" fill="#263238"/>
<path opacity="0.2" d="M375.76 205.94C376.333 205.2 376.599 204.267 376.502 203.336C376.405 202.405 375.953 201.547 375.24 200.94C374.876 200.654 374.458 200.444 374.012 200.322C373.565 200.2 373.099 200.169 372.64 200.23C372.176 200.257 371.723 200.376 371.305 200.581C370.888 200.785 370.516 201.07 370.21 201.42C369.616 202.157 369.339 203.099 369.44 204.04C369.562 204.969 370.031 205.817 370.753 206.414C371.474 207.011 372.395 207.313 373.33 207.26C374.282 207.156 375.154 206.682 375.76 205.94Z" fill="white"/>
<path d="M320.85 125.05C325.32 124.85 331.78 126.86 334.96 128.44C335.297 128.223 335.554 127.904 335.695 127.529C335.835 127.155 335.851 126.744 335.74 126.36C335.74 126.36 325.94 123.21 321.33 123.59C321.11 124.37 320.85 125.05 320.85 125.05Z" fill="#263238"/>
<path d="M318.75 121.47C319.109 121.297 319.5 121.197 319.898 121.176C320.296 121.156 320.695 121.215 321.07 121.35C321.445 121.478 321.791 121.679 322.088 121.942C322.385 122.204 322.627 122.523 322.8 122.88C323.106 123.608 323.135 124.424 322.881 125.172C322.627 125.92 322.107 126.549 321.42 126.94C321.062 127.112 320.674 127.211 320.277 127.232C319.881 127.252 319.484 127.194 319.11 127.06C318.367 126.778 317.759 126.225 317.407 125.513C317.054 124.801 316.984 123.982 317.21 123.22C317.337 122.84 317.539 122.49 317.803 122.189C318.068 121.889 318.39 121.644 318.75 121.47Z" fill="#263238"/>
<path opacity="0.2" d="M318.75 121.47C319.109 121.297 319.5 121.197 319.898 121.176C320.296 121.156 320.695 121.215 321.07 121.35C321.445 121.478 321.791 121.679 322.088 121.942C322.385 122.204 322.627 122.523 322.8 122.88C323.106 123.608 323.135 124.424 322.881 125.172C322.627 125.92 322.107 126.549 321.42 126.94C321.062 127.112 320.674 127.211 320.277 127.232C319.881 127.252 319.484 127.194 319.11 127.06C318.367 126.778 317.759 126.225 317.407 125.513C317.054 124.801 316.984 123.982 317.21 123.22C317.337 122.84 317.539 122.49 317.803 122.189C318.068 121.889 318.39 121.644 318.75 121.47Z" fill="white"/>
<path d="M324.34 176C329.94 174.57 337.18 169.67 340.51 166.52C341.008 166.661 341.446 166.959 341.76 167.37C342.074 167.781 342.246 168.283 342.25 168.8C342.25 168.8 331.33 176.36 325.49 177.62C324.93 176.76 324.34 176 324.34 176Z" fill="#263238"/>
<path d="M323.1 181.23C324.123 181.37 325.161 181.109 325.996 180.501C326.831 179.894 327.399 178.987 327.58 177.97C327.681 176.955 327.409 175.939 326.815 175.11C326.22 174.282 325.344 173.699 324.35 173.47C323.323 173.324 322.28 173.582 321.44 174.19C320.618 174.803 320.071 175.716 319.92 176.73C319.735 177.747 319.957 178.796 320.54 179.65C321.155 180.49 322.074 181.057 323.1 181.23Z" fill="#263238"/>
<path opacity="0.2" d="M323.1 181.23C324.123 181.37 325.161 181.109 325.996 180.501C326.831 179.894 327.399 178.987 327.58 177.97C327.681 176.955 327.409 175.939 326.815 175.11C326.22 174.282 325.344 173.699 324.35 173.47C323.323 173.324 322.28 173.582 321.44 174.19C320.618 174.803 320.071 175.716 319.92 176.73C319.735 177.747 319.957 178.796 320.54 179.65C321.155 180.49 322.074 181.057 323.1 181.23Z" fill="white"/>
<path d="M318.46 146.15C326.17 146.9 337.52 144.02 343.15 141.57C343.711 141.976 344.127 142.552 344.336 143.213C344.545 143.874 344.536 144.585 344.31 145.24C344.31 145.24 327.1 149.79 319.17 148.71C318.86 147.35 318.46 146.15 318.46 146.15Z" fill="#263238"/>
<path d="M314.52 152.16C315.746 152.806 317.175 152.951 318.506 152.563C319.836 152.174 320.964 151.284 321.65 150.08C321.967 149.479 322.161 148.821 322.219 148.144C322.278 147.468 322.2 146.786 321.99 146.14C321.827 145.477 321.535 144.853 321.13 144.304C320.725 143.755 320.215 143.291 319.63 142.94C318.716 142.462 317.683 142.259 316.656 142.357C315.629 142.454 314.652 142.848 313.845 143.489C313.037 144.131 312.433 144.993 312.105 145.971C311.778 146.949 311.741 148.001 312 149C312.39 150.345 313.296 151.481 314.52 152.16Z" fill="#263238"/>
<path opacity="0.2" d="M314.52 152.16C315.746 152.806 317.175 152.951 318.506 152.563C319.836 152.174 320.964 151.284 321.65 150.08C321.967 149.479 322.161 148.821 322.219 148.144C322.278 147.468 322.2 146.786 321.99 146.14C321.827 145.477 321.535 144.853 321.13 144.304C320.725 143.755 320.215 143.291 319.63 142.94C318.716 142.462 317.683 142.259 316.656 142.357C315.629 142.454 314.652 142.848 313.845 143.489C313.037 144.131 312.433 144.993 312.105 145.971C311.778 146.949 311.741 148.001 312 149C312.39 150.345 313.296 151.481 314.52 152.16Z" fill="white"/>
<path d="M324.35 158.73C328.67 156.41 336.01 155.32 339.89 155.38C340.127 155.007 340.233 154.567 340.193 154.128C340.154 153.688 339.97 153.274 339.67 152.95C339.67 152.95 328.5 154.49 324.13 157.05C324.29 157.92 324.35 158.73 324.35 158.73Z" fill="#263238"/>
<path d="M320.57 156.18C321.126 155.498 321.928 155.061 322.802 154.962C323.677 154.863 324.555 155.11 325.25 155.65C325.895 156.226 326.307 157.016 326.41 157.874C326.513 158.732 326.3 159.598 325.81 160.31C325.393 160.809 324.841 161.177 324.22 161.369C323.598 161.561 322.935 161.569 322.309 161.392C321.683 161.216 321.122 160.862 320.693 160.374C320.264 159.885 319.985 159.283 319.89 158.64C319.784 157.762 320.029 156.879 320.57 156.18Z" fill="#263238"/>
<path opacity="0.2" d="M320.57 156.18C321.126 155.498 321.928 155.061 322.802 154.962C323.677 154.863 324.555 155.11 325.25 155.65C325.895 156.226 326.307 157.016 326.41 157.874C326.513 158.732 326.3 159.598 325.81 160.31C325.393 160.809 324.841 161.177 324.22 161.369C323.598 161.561 322.935 161.569 322.309 161.392C321.683 161.216 321.122 160.862 320.693 160.374C320.264 159.885 319.985 159.283 319.89 158.64C319.784 157.762 320.029 156.879 320.57 156.18Z" fill="white"/>
<path d="M339.72 187.9C341.51 184.47 345.82 180.52 348.39 178.84C348.373 178.494 348.245 178.162 348.026 177.894C347.806 177.626 347.506 177.435 347.17 177.35C347.17 177.35 340.56 183.29 338.84 186.9C339.32 187.4 339.72 187.9 339.72 187.9Z" fill="#263238"/>
<path d="M336.13 187.9C336.191 187.209 336.521 186.57 337.048 186.119C337.575 185.669 338.258 185.443 338.95 185.49C339.288 185.523 339.616 185.623 339.915 185.784C340.214 185.946 340.477 186.165 340.69 186.43C341.156 186.931 341.404 187.596 341.38 188.28C341.316 188.973 340.986 189.614 340.46 190.07C339.927 190.505 339.249 190.72 338.563 190.671C337.878 190.623 337.236 190.315 336.77 189.81C336.313 189.283 336.083 188.596 336.13 187.9Z" fill="#263238"/>
<path opacity="0.2" d="M336.13 187.9C336.191 187.209 336.521 186.57 337.048 186.119C337.575 185.669 338.258 185.443 338.95 185.49C339.288 185.523 339.616 185.623 339.915 185.784C340.214 185.946 340.477 186.165 340.69 186.43C341.156 186.931 341.404 187.596 341.38 188.28C341.316 188.973 340.986 189.614 340.46 190.07C339.927 190.505 339.249 190.72 338.563 190.671C337.878 190.623 337.236 190.315 336.77 189.81C336.313 189.283 336.083 188.596 336.13 187.9Z" fill="white"/>
<path d="M321.84 110.9C326.12 113.98 333.84 116.18 337.94 116.66C338.133 117.092 338.181 117.575 338.076 118.037C337.971 118.498 337.72 118.913 337.36 119.22C337.36 119.22 325.67 116.01 321.36 112.66C321.66 111.75 321.84 110.9 321.84 110.9Z" fill="#263238"/>
<path d="M317.46 113.09C317.957 113.894 318.749 114.472 319.667 114.7C320.584 114.928 321.554 114.788 322.37 114.31C323.139 113.788 323.691 113.002 323.921 112.102C324.151 111.201 324.044 110.247 323.62 109.42C323.381 109.018 323.064 108.668 322.688 108.39C322.312 108.112 321.884 107.912 321.43 107.801C320.975 107.691 320.504 107.671 320.042 107.745C319.58 107.819 319.137 107.983 318.74 108.23C318.334 108.459 317.978 108.766 317.691 109.133C317.404 109.5 317.193 109.921 317.07 110.37C316.84 111.293 316.98 112.269 317.46 113.09Z" fill="#263238"/>
<path opacity="0.2" d="M317.46 113.09C317.957 113.894 318.749 114.472 319.667 114.7C320.584 114.928 321.554 114.788 322.37 114.31C323.139 113.788 323.691 113.002 323.921 112.102C324.151 111.201 324.044 110.247 323.62 109.42C323.381 109.018 323.064 108.668 322.688 108.39C322.312 108.112 321.884 107.912 321.43 107.801C320.975 107.691 320.504 107.671 320.042 107.745C319.58 107.819 319.137 107.983 318.74 108.23C318.334 108.459 317.978 108.766 317.691 109.133C317.404 109.5 317.193 109.921 317.07 110.37C316.84 111.293 316.98 112.269 317.46 113.09Z" fill="white"/>
<path d="M331.92 100.94C336.07 102.6 341.13 107.1 343.37 109.86C343.767 109.8 344.133 109.614 344.416 109.329C344.699 109.045 344.882 108.677 344.94 108.28C344.94 108.28 337.32 101.36 332.94 99.81C332.44 100.43 331.92 100.94 331.92 100.94Z" fill="#263238"/>
<path d="M331.49 96.8C332.298 96.7944 333.075 97.1053 333.657 97.666C334.238 98.2267 334.576 98.9927 334.6 99.8C334.597 100.592 334.28 101.35 333.72 101.91C333.461 102.206 333.145 102.447 332.791 102.619C332.437 102.791 332.053 102.89 331.66 102.91C331.262 102.92 330.866 102.851 330.496 102.707C330.125 102.563 329.786 102.346 329.5 102.07C329.042 101.666 328.718 101.132 328.572 100.539C328.425 99.9462 328.463 99.3227 328.681 98.752C328.898 98.1813 329.285 97.6905 329.788 97.3453C330.292 97.0001 330.889 96.8168 331.5 96.82L331.49 96.8Z" fill="#263238"/>
<path opacity="0.2" d="M331.49 96.8C332.298 96.7944 333.075 97.1053 333.657 97.666C334.238 98.2267 334.576 98.9927 334.6 99.8C334.597 100.592 334.28 101.35 333.72 101.91C333.461 102.206 333.145 102.447 332.791 102.619C332.437 102.791 332.053 102.89 331.66 102.91C331.262 102.92 330.866 102.851 330.496 102.707C330.125 102.563 329.786 102.346 329.5 102.07C329.042 101.666 328.718 101.132 328.572 100.539C328.425 99.9462 328.463 99.3227 328.681 98.752C328.898 98.1813 329.285 97.6905 329.788 97.3453C330.292 97.0001 330.889 96.8168 331.5 96.82L331.49 96.8Z" fill="white"/>
<path d="M340.29 87.88C342.35 93.28 348.07 99.88 351.58 102.88C351.496 103.392 351.249 103.863 350.876 104.223C350.504 104.583 350.024 104.814 349.51 104.88C349.51 104.88 340.73 94.88 338.81 89.26C339.61 88.55 340.29 87.88 340.29 87.88Z" fill="#263238"/>
<path d="M335 87.25C334.952 88.2815 335.311 89.2906 336 90.06C336.345 90.438 336.761 90.744 337.224 90.9603C337.687 91.1765 338.189 91.2988 338.7 91.32C339.208 91.3303 339.713 91.2392 340.185 91.052C340.657 90.8648 341.087 90.5854 341.45 90.23C341.838 89.9003 342.156 89.4974 342.388 89.0444C342.62 88.5914 342.76 88.0972 342.8 87.59C342.822 86.5547 342.443 85.5509 341.74 84.79C341.037 84.0422 340.066 83.6035 339.04 83.57C338.527 83.5334 338.012 83.6005 337.526 83.7671C337.04 83.9338 336.592 84.1966 336.209 84.54C335.827 84.8834 335.517 85.3004 335.299 85.7659C335.081 86.2315 334.959 86.7362 334.94 87.25H335Z" fill="#263238"/>
<path opacity="0.2" d="M335 87.25C334.952 88.2815 335.311 89.2906 336 90.06C336.345 90.438 336.761 90.744 337.224 90.9603C337.687 91.1765 338.189 91.2988 338.7 91.32C339.208 91.3303 339.713 91.2392 340.185 91.052C340.657 90.8648 341.087 90.5854 341.45 90.23C341.838 89.9003 342.156 89.4974 342.388 89.0444C342.62 88.5914 342.76 88.0972 342.8 87.59C342.822 86.5547 342.443 85.5509 341.74 84.79C341.037 84.0422 340.066 83.6035 339.04 83.57C338.527 83.5334 338.012 83.6005 337.526 83.7671C337.04 83.9338 336.592 84.1966 336.209 84.54C335.827 84.8834 335.517 85.3004 335.299 85.7659C335.081 86.2315 334.959 86.7362 334.94 87.25H335Z" fill="white"/>
<path d="M370.08 80.11C370.23 87.85 374.41 98.8 377.5 104.11C377.161 104.717 376.636 105.199 376.002 105.483C375.368 105.768 374.659 105.84 373.98 105.69C373.98 105.69 367.46 89.12 367.61 81.12C368.93 80.65 370.08 80.11 370.08 80.11Z" fill="#263238"/>
<path d="M363.65 76.89C363.15 78.1823 363.172 79.6182 363.712 80.8945C364.251 82.1709 365.265 83.1876 366.54 83.73C367.18 83.9819 367.865 84.1011 368.552 84.0805C369.24 84.0599 369.916 83.8998 370.54 83.61C371.179 83.3731 371.764 83.0115 372.262 82.5462C372.76 82.081 373.16 81.5214 373.44 80.9C373.82 79.9327 373.908 78.8756 373.695 77.8587C373.481 76.8418 372.975 75.9094 372.239 75.1762C371.503 74.4431 370.568 73.9412 369.55 73.7322C368.532 73.5232 367.476 73.6163 366.51 74C365.212 74.5467 364.183 75.586 363.65 76.89Z" fill="#263238"/>
<path opacity="0.2" d="M363.65 76.89C363.15 78.1823 363.172 79.6182 363.712 80.8945C364.251 82.1709 365.265 83.1876 366.54 83.73C367.18 83.9819 367.865 84.1011 368.552 84.0805C369.24 84.0599 369.916 83.8998 370.54 83.61C371.179 83.3731 371.764 83.0115 372.262 82.5462C372.76 82.081 373.16 81.5214 373.44 80.9C373.82 79.9327 373.908 78.8756 373.695 77.8587C373.481 76.8418 372.975 75.9094 372.239 75.1762C371.503 74.4431 370.568 73.9412 369.55 73.7322C368.532 73.5232 367.476 73.6163 366.51 74C365.212 74.5467 364.183 75.586 363.65 76.89Z" fill="white"/>
<path d="M352.75 86.23C355.56 90.23 357.49 97.41 357.88 101.23C358.278 101.422 358.728 101.478 359.16 101.387C359.593 101.297 359.983 101.066 360.27 100.73C360.27 100.73 357.44 89.81 354.39 85.73C353.54 86.07 352.75 86.23 352.75 86.23Z" fill="#263238"/>
<path d="M354.84 82.18C355.583 82.6535 356.111 83.399 356.311 84.2569C356.511 85.1148 356.367 86.0169 355.91 86.77C355.675 87.1303 355.372 87.4404 355.016 87.6824C354.661 87.9245 354.261 88.0936 353.84 88.18C352.998 88.408 352.101 88.2967 351.34 87.87C350.598 87.3941 350.071 86.6481 349.87 85.79C349.683 84.9377 349.841 84.046 350.31 83.31C350.527 82.9373 350.815 82.6112 351.158 82.3503C351.501 82.0894 351.893 81.899 352.31 81.79C353.172 81.5811 354.081 81.7213 354.84 82.18Z" fill="#263238"/>
<path opacity="0.2" d="M354.84 82.18C355.583 82.6535 356.111 83.399 356.311 84.2569C356.511 85.1148 356.367 86.0169 355.91 86.77C355.675 87.1303 355.372 87.4404 355.016 87.6824C354.661 87.9245 354.261 88.0936 353.84 88.18C352.998 88.408 352.101 88.2967 351.34 87.87C350.598 87.3941 350.071 86.6481 349.87 85.79C349.683 84.9377 349.841 84.046 350.31 83.31C350.527 82.9373 350.815 82.6112 351.158 82.3503C351.501 82.0894 351.893 81.899 352.31 81.79C353.172 81.5811 354.081 81.7213 354.84 82.18Z" fill="white"/>
<path d="M384.27 81.58C383.65 85.4 380.81 90.51 378.9 92.91C379.029 93.229 379.257 93.4983 379.55 93.6782C379.844 93.8582 380.187 93.9394 380.53 93.91C380.53 93.91 384.93 86.19 385.42 82.22C384.8 81.93 384.27 81.58 384.27 81.58Z" fill="#263238"/>
<path d="M387.67 80.44C387.753 80.7773 387.768 81.1277 387.715 81.471C387.662 81.8143 387.541 82.1436 387.36 82.44C387.185 82.7339 386.953 82.9903 386.679 83.1945C386.404 83.3987 386.092 83.5467 385.76 83.63C385.429 83.7062 385.086 83.7153 384.751 83.6569C384.416 83.5985 384.096 83.4738 383.81 83.29C383.363 83.0393 383.002 82.6592 382.775 82.1997C382.548 81.7402 382.465 81.2228 382.538 80.7154C382.61 80.2081 382.835 79.7345 383.181 79.3569C383.528 78.9794 383.981 78.7155 384.48 78.6C384.811 78.5053 385.158 78.4784 385.499 78.5208C385.841 78.5632 386.171 78.674 386.468 78.8467C386.766 79.0195 387.026 79.2505 387.232 79.5259C387.439 79.8014 387.588 80.1157 387.67 80.45V80.44Z" fill="#263238"/>
<path opacity="0.2" d="M387.67 80.44C387.753 80.7773 387.768 81.1277 387.715 81.471C387.662 81.8143 387.541 82.1436 387.36 82.44C387.185 82.7339 386.953 82.9903 386.679 83.1945C386.404 83.3987 386.092 83.5467 385.76 83.63C385.429 83.7062 385.086 83.7153 384.751 83.6569C384.416 83.5985 384.096 83.4738 383.81 83.29C383.363 83.0393 383.002 82.6592 382.775 82.1997C382.548 81.7402 382.465 81.2228 382.538 80.7154C382.61 80.2081 382.835 79.7345 383.181 79.3569C383.528 78.9794 383.981 78.7155 384.48 78.6C384.811 78.5053 385.158 78.4784 385.499 78.5208C385.841 78.5632 386.171 78.674 386.468 78.8467C386.766 79.0195 387.026 79.2505 387.232 79.5259C387.439 79.8014 387.588 80.1157 387.67 80.45V80.44Z" fill="white"/>
<path d="M398.29 81.31C395.73 85.92 394.44 93.79 394.45 97.97C394.042 98.2121 393.567 98.3166 393.095 98.268C392.624 98.2193 392.18 98.0202 391.83 97.7C391.83 97.7 393.67 85.7 396.5 81.05C397.43 81.23 398.29 81.31 398.29 81.31Z" fill="#263238"/>
<path d="M395.61 77.21C394.877 77.7983 394.4 78.6482 394.281 79.5808C394.161 80.5134 394.408 81.456 394.97 82.21C395.58 82.9099 396.423 83.3647 397.342 83.4898C398.262 83.6149 399.196 83.4017 399.97 82.89C400.342 82.6043 400.653 82.2476 400.885 81.8407C401.118 81.4338 401.267 80.9847 401.325 80.5196C401.383 80.0544 401.347 79.5825 401.221 79.1311C401.095 78.6797 400.88 78.2578 400.59 77.89C400.315 77.506 399.966 77.1817 399.562 76.9367C399.158 76.6918 398.709 76.5313 398.242 76.4649C397.775 76.3985 397.299 76.4277 396.843 76.5506C396.387 76.6735 395.961 76.8876 395.59 77.18L395.61 77.21Z" fill="#263238"/>
<path opacity="0.2" d="M395.61 77.21C394.877 77.7983 394.4 78.6482 394.281 79.5808C394.161 80.5134 394.408 81.456 394.97 82.21C395.58 82.9099 396.423 83.3647 397.342 83.4898C398.262 83.6149 399.196 83.4017 399.97 82.89C400.342 82.6043 400.653 82.2476 400.885 81.8407C401.118 81.4338 401.267 80.9847 401.325 80.5196C401.383 80.0544 401.347 79.5825 401.221 79.1311C401.095 78.6797 400.88 78.2578 400.59 77.89C400.315 77.506 399.966 77.1817 399.562 76.9367C399.158 76.6918 398.709 76.5313 398.242 76.4649C397.775 76.3985 397.299 76.4277 396.843 76.5506C396.387 76.6735 395.961 76.8876 395.59 77.18L395.61 77.21Z" fill="white"/>
<path d="M409.36 90.16C408.19 94.48 404.31 100.03 401.83 102.57C401.936 102.957 402.164 103.299 402.479 103.547C402.793 103.796 403.179 103.937 403.58 103.95C403.58 103.95 409.58 95.58 410.58 91.07C409.93 90.62 409.36 90.16 409.36 90.16Z" fill="#263238"/>
<path d="M413.42 89.26C413.474 89.6545 413.448 90.0558 413.345 90.4403C413.242 90.8249 413.064 91.1851 412.82 91.5C412.449 91.9558 411.956 92.2964 411.399 92.4818C410.841 92.6673 410.242 92.69 409.672 92.5473C409.102 92.4045 408.585 92.1023 408.181 91.6759C407.777 91.2495 407.502 90.7167 407.39 90.14C407.283 89.3416 407.495 88.5331 407.98 87.89C408.475 87.2673 409.189 86.8559 409.976 86.739C410.763 86.622 411.565 86.8083 412.22 87.26C412.864 87.7458 413.295 88.4629 413.42 89.26Z" fill="#263238"/>
<path opacity="0.2" d="M413.42 89.26C413.474 89.6545 413.448 90.0558 413.345 90.4403C413.242 90.8249 413.064 91.1851 412.82 91.5C412.449 91.9558 411.956 92.2964 411.399 92.4818C410.841 92.6673 410.242 92.69 409.672 92.5473C409.102 92.4045 408.585 92.1023 408.181 91.6759C407.777 91.2495 407.502 90.7167 407.39 90.14C407.283 89.3416 407.495 88.5331 407.98 87.89C408.475 87.2673 409.189 86.8559 409.976 86.739C410.763 86.622 411.565 86.8083 412.22 87.26C412.864 87.7458 413.295 88.4629 413.42 89.26Z" fill="white"/>
<g opacity="0.1">
<path opacity="0.1" d="M378.76 98C375.81 98.2 373.22 99.92 370.47 100.71C367.72 101.5 364.86 102.06 362.3 103.4C359.764 104.774 357.363 106.385 355.13 108.21C352.834 109.955 350.704 111.91 348.77 114.05C346.928 116.253 345.301 118.627 343.91 121.14C342.452 123.61 341.236 126.216 340.28 128.92C339.241 131.614 338.471 134.404 337.98 137.25C337.744 140.128 337.798 143.023 338.14 145.89C338.34 148.82 339.41 151.37 340.22 154.06C341.03 156.75 341.22 159.77 342.59 162.26C343.96 164.75 346.35 166.53 348.18 168.74C350.01 170.95 351.18 173.74 353.31 175.65C355.397 177.676 357.637 179.538 360.01 181.22C362.44 182.75 365.49 183.22 368.17 184.22C370.809 185.322 373.558 186.14 376.37 186.66C379.15 187.12 381.93 186.71 384.88 186.51C387.83 186.31 391.06 187.69 393.82 186.9C396.58 186.11 399.01 183.9 401.57 182.55C404.13 181.2 406.99 180.11 409.26 178.32C411.5 176.429 413.559 174.333 415.41 172.06C417.31 169.88 418.3 167.06 419.69 164.56C421.095 162.081 422.241 159.464 423.11 156.75C423.96 154.04 425.11 151.36 425.4 148.46C425.69 145.56 425 142.8 424.8 139.87C424.675 137.014 424.307 134.174 423.7 131.38C422.878 128.65 421.796 126.004 420.47 123.48C419.26 120.82 418.47 118.09 416.74 115.78C415.143 113.37 413.285 111.143 411.2 109.14C408.925 107.31 406.477 105.705 403.89 104.35C401.38 102.91 398.54 102.35 395.75 101.35C392.96 100.35 390.57 97.9 387.66 97.51C384.75 97.12 381.71 97.8 378.76 98Z" fill="white"/>
</g>
<path d="M370.06 133.3C370.23 137 372.33 139.97 374.74 139.92C377.15 139.87 378.97 136.84 378.8 133.14C378.63 129.44 376.54 126.47 374.12 126.51C371.7 126.55 369.89 129.6 370.06 133.3Z" fill="white"/>
<path d="M396.25 132.9C396.42 136.6 398.52 139.57 400.93 139.52C403.34 139.47 405.16 136.44 404.99 132.74C404.82 129.04 402.73 126.07 400.31 126.11C397.89 126.15 396.08 129.2 396.25 132.9Z" fill="white"/>
<path d="M393.21 162.08C388.188 162.5 383.132 161.892 378.352 160.293C373.573 158.694 369.169 156.138 365.41 152.78C365.169 152.538 365.034 152.211 365.034 151.87C365.034 151.529 365.169 151.202 365.41 150.96C365.65 150.723 365.973 150.59 366.31 150.59C366.647 150.59 366.97 150.723 367.21 150.96C371.342 154.563 376.252 157.161 381.556 158.549C386.86 159.937 392.413 160.078 397.78 158.96C397.943 158.928 398.111 158.929 398.273 158.962C398.436 158.995 398.59 159.06 398.728 159.152C398.865 159.245 398.983 159.365 399.075 159.503C399.166 159.642 399.229 159.797 399.26 159.96C399.322 160.291 399.252 160.633 399.066 160.914C398.879 161.194 398.59 161.39 398.26 161.46C396.591 161.768 394.904 161.975 393.21 162.08Z" fill="white"/>
<path d="M373.23 117.45C373.43 117.596 373.591 117.788 373.7 118.01C373.788 118.187 373.839 118.381 373.85 118.578C373.862 118.776 373.834 118.974 373.767 119.16C373.701 119.346 373.598 119.518 373.465 119.664C373.331 119.81 373.17 119.928 372.99 120.01C370.918 121.053 368.622 121.571 366.303 121.519C363.983 121.467 361.713 120.846 359.69 119.71C359.528 119.609 359.388 119.477 359.277 119.321C359.167 119.165 359.089 118.989 359.048 118.803C359.007 118.616 359.004 118.424 359.039 118.236C359.073 118.048 359.145 117.869 359.25 117.71C359.464 117.395 359.79 117.174 360.161 117.09C360.532 117.006 360.922 117.067 361.25 117.26C362.852 118.124 364.64 118.586 366.46 118.607C368.28 118.628 370.078 118.207 371.7 117.38C371.937 117.25 372.205 117.188 372.475 117.2C372.745 117.212 373.006 117.299 373.23 117.45Z" fill="white"/>
<path d="M408.5 117.92C408.262 117.919 408.028 117.86 407.818 117.746C407.609 117.633 407.431 117.469 407.3 117.27C406.316 115.672 404.975 114.323 403.382 113.329C401.789 112.334 399.989 111.722 398.12 111.54C397.927 111.537 397.737 111.496 397.56 111.419C397.383 111.342 397.223 111.23 397.09 111.091C396.957 110.951 396.853 110.786 396.784 110.606C396.715 110.425 396.683 110.233 396.69 110.04C396.698 109.651 396.859 109.281 397.138 109.009C397.416 108.738 397.791 108.587 398.18 108.59C400.52 108.771 402.785 109.499 404.793 110.714C406.801 111.93 408.495 113.6 409.74 115.59C409.943 115.913 410.013 116.302 409.934 116.675C409.856 117.048 409.636 117.376 409.32 117.59C409.09 117.786 408.802 117.901 408.5 117.92Z" fill="white"/>
</svg>
